<?xml version="1.0" encoding="UTF-8" standalone="no"?>
<!-- Created with Inkscape (http://www.inkscape.org/) -->

<svg
   xmlns:dc="http://purl.org/dc/elements/1.1/"
   xmlns:cc="http://creativecommons.org/ns#"
   xmlns:rdf="http://www.w3.org/1999/02/22-rdf-syntax-ns#"
   xmlns:svg="http://www.w3.org/2000/svg"
   xmlns="http://www.w3.org/2000/svg"
   xmlns:sodipodi="http://sodipodi.sourceforge.net/DTD/sodipodi-0.dtd"
   xmlns:inkscape="http://www.inkscape.org/namespaces/inkscape"
   id="svg3336"
   version="1.1"
   inkscape:version="0.91 r13725"
   xml:space="preserve"
   width="567"
   height="265.79999"
   viewBox="0 0 567 265.79999"
   sodipodi:docname="ELA214Table.svg"><metadata
     id="metadata3342"><rdf:RDF><cc:Work
         rdf:about=""><dc:format>image/svg+xml</dc:format><dc:type
           rdf:resource="http://purl.org/dc/dcmitype/StillImage" /><dc:title></dc:title></cc:Work></rdf:RDF></metadata><defs
     id="defs3340"><clipPath
       clipPathUnits="userSpaceOnUse"
       id="clipPath3350"><path
         d="m 9.0013,141.91 139.73,0 0,56.085 -139.73,0 0,-56.085 z"
         id="path3352"
         inkscape:connector-curvature="0"
         style="clip-rule:evenodd" /></clipPath><clipPath
       clipPathUnits="userSpaceOnUse"
       id="clipPath3358"><path
         d="m 9,141.91 139.73,0 0,56.088 -139.73,0 0,-56.088 z"
         id="path3360"
         inkscape:connector-curvature="0"
         style="clip-rule:evenodd" /></clipPath><clipPath
       clipPathUnits="userSpaceOnUse"
       id="clipPath3366"><path
         d="m 149.21,141.91 84.51,0 0,56.085 -84.51,0 0,-56.085 z"
         id="path3368"
         inkscape:connector-curvature="0"
         style="clip-rule:evenodd" /></clipPath><clipPath
       clipPathUnits="userSpaceOnUse"
       id="clipPath3374"><path
         d="m 149.21,141.91 84.504,0 0,56.088 -84.504,0 0,-56.088 z"
         id="path3376"
         inkscape:connector-curvature="0"
         style="clip-rule:evenodd" /></clipPath><clipPath
       clipPathUnits="userSpaceOnUse"
       id="clipPath3386"><path
         d="m 149.21,141.91 84.504,0 0,56.088 -84.504,0 0,-56.088 z"
         id="path3388"
         inkscape:connector-curvature="0"
         style="clip-rule:evenodd" /></clipPath><clipPath
       clipPathUnits="userSpaceOnUse"
       id="clipPath3394"><path
         d="m 234.32,141.91 84.495,0 0,56.085 -84.495,0 0,-56.085 z"
         id="path3396"
         inkscape:connector-curvature="0"
         style="clip-rule:evenodd" /></clipPath><clipPath
       clipPathUnits="userSpaceOnUse"
       id="clipPath3402"><path
         d="m 234.31,141.91 84.504,0 0,56.088 -84.504,0 0,-56.088 z"
         id="path3404"
         inkscape:connector-curvature="0"
         style="clip-rule:evenodd" /></clipPath><clipPath
       clipPathUnits="userSpaceOnUse"
       id="clipPath3414"><path
         d="m 234.31,141.91 84.504,0 0,56.088 -84.504,0 0,-56.088 z"
         id="path3416"
         inkscape:connector-curvature="0"
         style="clip-rule:evenodd" /></clipPath><clipPath
       clipPathUnits="userSpaceOnUse"
       id="clipPath3426"><path
         d="m 234.31,141.91 84.504,0 0,56.088 -84.504,0 0,-56.088 z"
         id="path3428"
         inkscape:connector-curvature="0"
         style="clip-rule:evenodd" /></clipPath><clipPath
       clipPathUnits="userSpaceOnUse"
       id="clipPath3434"><path
         d="m 234.31,141.91 84.504,0 0,56.088 -84.504,0 0,-56.088 z"
         id="path3436"
         inkscape:connector-curvature="0"
         style="clip-rule:evenodd" /></clipPath><clipPath
       clipPathUnits="userSpaceOnUse"
       id="clipPath3446"><path
         d="m 234.31,141.91 84.504,0 0,56.088 -84.504,0 0,-56.088 z"
         id="path3448"
         inkscape:connector-curvature="0"
         style="clip-rule:evenodd" /></clipPath><clipPath
       clipPathUnits="userSpaceOnUse"
       id="clipPath3454"><path
         d="m 319.29,141.91 127.11,0 0,56.085 -127.11,0 0,-56.085 z"
         id="path3456"
         inkscape:connector-curvature="0"
         style="clip-rule:evenodd" /></clipPath><clipPath
       clipPathUnits="userSpaceOnUse"
       id="clipPath3462"><path
         d="m 319.3,141.91 127.1,0 0,56.088 -127.1,0 0,-56.088 z"
         id="path3464"
         inkscape:connector-curvature="0"
         style="clip-rule:evenodd" /></clipPath><clipPath
       clipPathUnits="userSpaceOnUse"
       id="clipPath3474"><path
         d="m 319.3,141.91 127.1,0 0,56.088 -127.1,0 0,-56.088 z"
         id="path3476"
         inkscape:connector-curvature="0"
         style="clip-rule:evenodd" /></clipPath><clipPath
       clipPathUnits="userSpaceOnUse"
       id="clipPath3486"><path
         d="m 319.3,141.91 127.1,0 0,56.088 -127.1,0 0,-56.088 z"
         id="path3488"
         inkscape:connector-curvature="0"
         style="clip-rule:evenodd" /></clipPath><clipPath
       clipPathUnits="userSpaceOnUse"
       id="clipPath3494"><path
         d="m 319.3,141.91 127.1,0 0,56.088 -127.1,0 0,-56.088 z"
         id="path3496"
         inkscape:connector-curvature="0"
         style="clip-rule:evenodd" /></clipPath><clipPath
       clipPathUnits="userSpaceOnUse"
       id="clipPath3506"><path
         d="m 319.3,141.91 127.1,0 0,56.088 -127.1,0 0,-56.088 z"
         id="path3508"
         inkscape:connector-curvature="0"
         style="clip-rule:evenodd" /></clipPath><clipPath
       clipPathUnits="userSpaceOnUse"
       id="clipPath3546"><path
         d="m 9.0013,84.644 139.73,0 0,56.79 -139.73,0 0,-56.79 z"
         id="path3548"
         inkscape:connector-curvature="0"
         style="clip-rule:evenodd" /></clipPath><clipPath
       clipPathUnits="userSpaceOnUse"
       id="clipPath3554"><path
         d="m 9,84.648 139.73,0 0,56.784 -139.73,0 0,-56.784 z"
         id="path3556"
         inkscape:connector-curvature="0"
         style="clip-rule:evenodd" /></clipPath><clipPath
       clipPathUnits="userSpaceOnUse"
       id="clipPath3566"><path
         d="m 9,84.648 139.73,0 0,56.784 -139.73,0 0,-56.784 z"
         id="path3568"
         inkscape:connector-curvature="0"
         style="clip-rule:evenodd" /></clipPath><clipPath
       clipPathUnits="userSpaceOnUse"
       id="clipPath3578"><path
         d="m 9,84.648 139.73,0 0,56.784 -139.73,0 0,-56.784 z"
         id="path3580"
         inkscape:connector-curvature="0"
         style="clip-rule:evenodd" /></clipPath><clipPath
       clipPathUnits="userSpaceOnUse"
       id="clipPath3586"><path
         d="m 149.21,84.644 84.51,0 0,56.79 -84.51,0 0,-56.79 z"
         id="path3588"
         inkscape:connector-curvature="0"
         style="clip-rule:evenodd" /></clipPath><clipPath
       clipPathUnits="userSpaceOnUse"
       id="clipPath3594"><path
         d="m 149.21,84.648 84.504,0 0,56.784 -84.504,0 0,-56.784 z"
         id="path3596"
         inkscape:connector-curvature="0"
         style="clip-rule:evenodd" /></clipPath><clipPath
       clipPathUnits="userSpaceOnUse"
       id="clipPath3606"><path
         d="m 149.21,84.648 84.504,0 0,56.784 -84.504,0 0,-56.784 z"
         id="path3608"
         inkscape:connector-curvature="0"
         style="clip-rule:evenodd" /></clipPath><clipPath
       clipPathUnits="userSpaceOnUse"
       id="clipPath3614"><path
         d="m 234.32,84.644 84.495,0 0,56.79 -84.495,0 0,-56.79 z"
         id="path3616"
         inkscape:connector-curvature="0"
         style="clip-rule:evenodd" /></clipPath><clipPath
       clipPathUnits="userSpaceOnUse"
       id="clipPath3622"><path
         d="m 234.31,84.648 84.504,0 0,56.784 -84.504,0 0,-56.784 z"
         id="path3624"
         inkscape:connector-curvature="0"
         style="clip-rule:evenodd" /></clipPath><clipPath
       clipPathUnits="userSpaceOnUse"
       id="clipPath3634"><path
         d="m 234.31,84.648 84.504,0 0,56.784 -84.504,0 0,-56.784 z"
         id="path3636"
         inkscape:connector-curvature="0"
         style="clip-rule:evenodd" /></clipPath><clipPath
       clipPathUnits="userSpaceOnUse"
       id="clipPath3642"><path
         d="m 319.29,84.644 127.11,0 0,56.79 -127.11,0 0,-56.79 z"
         id="path3644"
         inkscape:connector-curvature="0"
         style="clip-rule:evenodd" /></clipPath><clipPath
       clipPathUnits="userSpaceOnUse"
       id="clipPath3650"><path
         d="m 319.3,84.648 127.1,0 0,56.784 -127.1,0 0,-56.784 z"
         id="path3652"
         inkscape:connector-curvature="0"
         style="clip-rule:evenodd" /></clipPath><clipPath
       clipPathUnits="userSpaceOnUse"
       id="clipPath3662"><path
         d="m 319.3,84.648 127.1,0 0,56.784 -127.1,0 0,-56.784 z"
         id="path3664"
         inkscape:connector-curvature="0"
         style="clip-rule:evenodd" /></clipPath><clipPath
       clipPathUnits="userSpaceOnUse"
       id="clipPath3698"><path
         d="m 9.0013,27.509 139.73,0 0,56.655 -139.73,0 0,-56.655 z"
         id="path3700"
         inkscape:connector-curvature="0"
         style="clip-rule:evenodd" /></clipPath><clipPath
       clipPathUnits="userSpaceOnUse"
       id="clipPath3706"><path
         d="m 9,27.504 139.73,0 0,56.664 -139.73,0 0,-56.664 z"
         id="path3708"
         inkscape:connector-curvature="0"
         style="clip-rule:evenodd" /></clipPath><clipPath
       clipPathUnits="userSpaceOnUse"
       id="clipPath3718"><path
         d="m 9,27.504 139.73,0 0,56.664 -139.73,0 0,-56.664 z"
         id="path3720"
         inkscape:connector-curvature="0"
         style="clip-rule:evenodd" /></clipPath><clipPath
       clipPathUnits="userSpaceOnUse"
       id="clipPath3730"><path
         d="m 9,27.504 139.73,0 0,56.664 -139.73,0 0,-56.664 z"
         id="path3732"
         inkscape:connector-curvature="0"
         style="clip-rule:evenodd" /></clipPath><clipPath
       clipPathUnits="userSpaceOnUse"
       id="clipPath3738"><path
         d="m 149.21,27.509 84.51,0 0,56.655 -84.51,0 0,-56.655 z"
         id="path3740"
         inkscape:connector-curvature="0"
         style="clip-rule:evenodd" /></clipPath><clipPath
       clipPathUnits="userSpaceOnUse"
       id="clipPath3746"><path
         d="m 149.21,27.504 84.504,0 0,56.664 -84.504,0 0,-56.664 z"
         id="path3748"
         inkscape:connector-curvature="0"
         style="clip-rule:evenodd" /></clipPath><clipPath
       clipPathUnits="userSpaceOnUse"
       id="clipPath3758"><path
         d="m 149.21,27.504 84.504,0 0,56.664 -84.504,0 0,-56.664 z"
         id="path3760"
         inkscape:connector-curvature="0"
         style="clip-rule:evenodd" /></clipPath><clipPath
       clipPathUnits="userSpaceOnUse"
       id="clipPath3766"><path
         d="m 234.32,27.509 84.495,0 0,56.655 -84.495,0 0,-56.655 z"
         id="path3768"
         inkscape:connector-curvature="0"
         style="clip-rule:evenodd" /></clipPath><clipPath
       clipPathUnits="userSpaceOnUse"
       id="clipPath3774"><path
         d="m 234.31,27.504 84.504,0 0,56.664 -84.504,0 0,-56.664 z"
         id="path3776"
         inkscape:connector-curvature="0"
         style="clip-rule:evenodd" /></clipPath><clipPath
       clipPathUnits="userSpaceOnUse"
       id="clipPath3786"><path
         d="m 234.31,27.504 84.504,0 0,56.664 -84.504,0 0,-56.664 z"
         id="path3788"
         inkscape:connector-curvature="0"
         style="clip-rule:evenodd" /></clipPath><clipPath
       clipPathUnits="userSpaceOnUse"
       id="clipPath3794"><path
         d="m 319.29,27.509 127.11,0 0,56.655 -127.11,0 0,-56.655 z"
         id="path3796"
         inkscape:connector-curvature="0"
         style="clip-rule:evenodd" /></clipPath><clipPath
       clipPathUnits="userSpaceOnUse"
       id="clipPath3802"><path
         d="m 319.3,27.504 127.1,0 0,56.664 -127.1,0 0,-56.664 z"
         id="path3804"
         inkscape:connector-curvature="0"
         style="clip-rule:evenodd" /></clipPath><clipPath
       clipPathUnits="userSpaceOnUse"
       id="clipPath3814"><path
         d="m 319.3,27.504 127.1,0 0,56.664 -127.1,0 0,-56.664 z"
         id="path3816"
         inkscape:connector-curvature="0"
         style="clip-rule:evenodd" /></clipPath></defs><sodipodi:namedview
     pagecolor="#ffffff"
     bordercolor="#666666"
     borderopacity="1"
     objecttolerance="10"
     gridtolerance="10"
     guidetolerance="10"
     inkscape:pageopacity="0"
     inkscape:pageshadow="2"
     inkscape:window-width="640"
     inkscape:window-height="480"
     id="namedview3338"
     showgrid="false"
     inkscape:zoom="0.91710758"
     inkscape:cx="283.5"
     inkscape:cy="132.89999"
     inkscape:window-x="0"
     inkscape:window-y="0"
     inkscape:window-maximized="0"
     inkscape:current-layer="g3344" /><g
     id="g3344"
     inkscape:groupmode="layer"
     inkscape:label="ELA214Table"
     transform="matrix(1.25,0,0,-1.25,0,265.8)"><g
       id="g3346"><g
         id="g3348"
         clip-path="url(#clipPath3350)"><g
           id="g3354"><g
             id="g3356"
             clip-path="url(#clipPath3358)" /></g></g></g><g
       id="g3362"><g
         id="g3364"
         clip-path="url(#clipPath3366)"><g
           id="g3370"><g
             id="g3372"
             clip-path="url(#clipPath3374)"><text
               transform="matrix(1,0,0,-1,164.81,164.5)"
               style="font-variant:normal;font-weight:normal;font-size:14.03999996px;font-family:Verdana;-inkscape-font-specification:Verdana;writing-mode:lr-tb;fill:#333333;fill-opacity:1;fill-rule:nonzero;stroke:none"
               id="text3378"><tspan
                 x="0 8.5082397 13.45032 19.67004 23.61528 32.502602 37.444679 47.132278"
                 y="0"
                 sodipodi:role="line"
                 id="tspan3380">P (in R)</tspan></text>
</g></g><g
           id="g3382"><g
             id="g3384"
             clip-path="url(#clipPath3386)" /></g></g></g><g
       id="g3390"><g
         id="g3392"
         clip-path="url(#clipPath3394)"><g
           id="g3398"><g
             id="g3400"
             clip-path="url(#clipPath3402)"><text
               transform="matrix(1,0,0,-1,240.67,164.5)"
               style="font-variant:normal;font-weight:normal;font-size:14.03999996px;font-family:Verdana;-inkscape-font-specification:Verdana;writing-mode:lr-tb;fill:#333333;fill-opacity:1;fill-rule:nonzero;stroke:none"
               id="text3406"><tspan
                 x="0"
                 y="0"
                 id="tspan3408">Q</tspan></text>
</g></g><g
           id="g3410"><g
             id="g3412"
             clip-path="url(#clipPath3414)"><text
               transform="matrix(1,0,0,-1,251.71,162.46)"
               style="font-variant:normal;font-weight:normal;font-size:9px;font-family:Verdana;-inkscape-font-specification:Verdana;writing-mode:lr-tb;fill:#333333;fill-opacity:1;fill-rule:nonzero;stroke:none"
               id="text3418"><tspan
                 x="0"
                 y="0"
                 id="tspan3420">d</tspan></text>
</g></g><g
           id="g3422"><g
             id="g3424"
             clip-path="url(#clipPath3426)" /></g><g
           id="g3430"><g
             id="g3432"
             clip-path="url(#clipPath3434)"><text
               transform="matrix(1,0,0,-1,262.27,164.5)"
               style="font-variant:normal;font-weight:normal;font-size:14.03999996px;font-family:Verdana;-inkscape-font-specification:Verdana;writing-mode:lr-tb;fill:#333333;fill-opacity:1;fill-rule:nonzero;stroke:none"
               id="text3438"><tspan
                 x="0 6.3741598 15.97752 24.23304 28.17828 36.54612 43.860958"
                 y="0"
                 sodipodi:role="line"
                 id="tspan3440">(Sales)</tspan></text>
</g></g><g
           id="g3442"><g
             id="g3444"
             clip-path="url(#clipPath3446)" /></g></g></g><g
       id="g3450"><g
         id="g3452"
         clip-path="url(#clipPath3454)"><g
           id="g3458"><g
             id="g3460"
             clip-path="url(#clipPath3462)"><text
               transform="matrix(1,0,0,-1,334.3,173.02)"
               style="font-variant:normal;font-weight:normal;font-size:14.03999996px;font-family:Verdana;-inkscape-font-specification:Verdana;writing-mode:lr-tb;fill:#000000;fill-opacity:1;fill-rule:nonzero;stroke:none"
               id="text3466"><tspan
                 x="0 8.6486397 17.170919 22.702681 31.08456 35.0298 39.971882 45.826561 54.194401 62.506081 70.78968 79.677002 88.564323 96.932159"
                 y="0"
                 sodipodi:role="line"
                 id="tspan3468">Total revenue </tspan></text>
</g></g><g
           id="g3470"><g
             id="g3472"
             clip-path="url(#clipPath3474)"><text
               transform="matrix(1,0,0,-1,328.06,155.98)"
               style="font-variant:normal;font-weight:normal;font-size:14.03999996px;font-family:Verdana;-inkscape-font-specification:Verdana;writing-mode:lr-tb;fill:#000000;fill-opacity:1;fill-rule:nonzero;stroke:none"
               id="text3478"><tspan
                 x="0 8.7469196 17.142839 23.13792 27.9396 39.42432 47.84832 56.21616"
                 y="0"
                 sodipodi:role="line"
                 id="tspan3480">per week</tspan></text>
</g></g><g
           id="g3482"><g
             id="g3484"
             clip-path="url(#clipPath3486)" /></g><g
           id="g3490"><g
             id="g3492"
             clip-path="url(#clipPath3494)"><text
               transform="matrix(1,0,0,-1,397.56,155.98)"
               style="font-variant:normal;font-weight:normal;font-size:14.03999996px;font-family:Verdana;-inkscape-font-specification:Verdana;writing-mode:lr-tb;fill:#000000;fill-opacity:1;fill-rule:nonzero;stroke:none"
               id="text3498"><tspan
                 x="0 6.2337599 10.08072 18.96804 23.91012 33.597721"
                 y="0"
                 sodipodi:role="line"
                 id="tspan3500">(in R)</tspan></text>
</g></g><g
           id="g3502"><g
             id="g3504"
             clip-path="url(#clipPath3506)" /></g></g></g><path
       d="m 8.52,198 0.48,0 0,0.48 -0.48,0 0,-0.48 z"
       style="fill:#000000;fill-opacity:1;fill-rule:evenodd;stroke:none"
       id="path3510"
       inkscape:connector-curvature="0" /><path
       d="m 8.52,198 0.48,0 0,0.48 -0.48,0 0,-0.48 z"
       style="fill:#000000;fill-opacity:1;fill-rule:evenodd;stroke:none"
       id="path3512"
       inkscape:connector-curvature="0" /><path
       d="m 9,198 139.73,0 0,0.48 L 9,198.48 9,198 Z"
       style="fill:#000000;fill-opacity:1;fill-rule:evenodd;stroke:none"
       id="path3514"
       inkscape:connector-curvature="0" /><path
       d="m 148.73,198 0.48,0 0,0.48 -0.48,0 0,-0.48 z"
       style="fill:#000000;fill-opacity:1;fill-rule:evenodd;stroke:none"
       id="path3516"
       inkscape:connector-curvature="0" /><path
       d="m 149.21,198 84.504,0 0,0.48 -84.504,0 0,-0.48 z"
       style="fill:#000000;fill-opacity:1;fill-rule:evenodd;stroke:none"
       id="path3518"
       inkscape:connector-curvature="0" /><path
       d="m 233.71,198 0.48001,0 0,0.48 -0.48001,0 0,-0.48 z"
       style="fill:#000000;fill-opacity:1;fill-rule:evenodd;stroke:none"
       id="path3520"
       inkscape:connector-curvature="0" /><path
       d="m 234.19,198 84.624,0 0,0.48 -84.624,0 0,-0.48 z"
       style="fill:#000000;fill-opacity:1;fill-rule:evenodd;stroke:none"
       id="path3522"
       inkscape:connector-curvature="0" /><path
       d="m 318.82,198 0.48001,0 0,0.48 -0.48001,0 0,-0.48 z"
       style="fill:#000000;fill-opacity:1;fill-rule:evenodd;stroke:none"
       id="path3524"
       inkscape:connector-curvature="0" /><path
       d="m 319.3,198 127.1,0 0,0.48 -127.1,0 0,-0.48 z"
       style="fill:#000000;fill-opacity:1;fill-rule:evenodd;stroke:none"
       id="path3526"
       inkscape:connector-curvature="0" /><path
       d="m 446.4,198 0.47998,0 0,0.48 -0.47998,0 0,-0.48 z"
       style="fill:#000000;fill-opacity:1;fill-rule:evenodd;stroke:none"
       id="path3528"
       inkscape:connector-curvature="0" /><path
       d="m 446.4,198 0.47998,0 0,0.48 -0.47998,0 0,-0.48 z"
       style="fill:#000000;fill-opacity:1;fill-rule:evenodd;stroke:none"
       id="path3530"
       inkscape:connector-curvature="0" /><path
       d="m 8.52,141.91 0.48,0 0,56.088 -0.48,0 0,-56.088 z"
       style="fill:#000000;fill-opacity:1;fill-rule:evenodd;stroke:none"
       id="path3532"
       inkscape:connector-curvature="0" /><path
       d="m 148.73,141.91 0.48,0 0,56.088 -0.48,0 0,-56.088 z"
       style="fill:#000000;fill-opacity:1;fill-rule:evenodd;stroke:none"
       id="path3534"
       inkscape:connector-curvature="0" /><path
       d="m 233.71,141.91 0.48001,0 0,56.088 -0.48001,0 0,-56.088 z"
       style="fill:#000000;fill-opacity:1;fill-rule:evenodd;stroke:none"
       id="path3536"
       inkscape:connector-curvature="0" /><path
       d="m 318.82,141.91 0.48001,0 0,56.088 -0.48001,0 0,-56.088 z"
       style="fill:#000000;fill-opacity:1;fill-rule:evenodd;stroke:none"
       id="path3538"
       inkscape:connector-curvature="0" /><path
       d="m 446.4,141.91 0.47998,0 0,56.088 -0.47998,0 0,-56.088 z"
       style="fill:#000000;fill-opacity:1;fill-rule:evenodd;stroke:none"
       id="path3540"
       inkscape:connector-curvature="0" /><g
       id="g3542"><g
         id="g3544"
         clip-path="url(#clipPath3546)"><g
           id="g3550"><g
             id="g3552"
             clip-path="url(#clipPath3554)"><text
               transform="matrix(1,0,0,-1,34.92,116.11)"
               style="font-variant:normal;font-weight:normal;font-size:14.03999996px;font-family:Verdana;-inkscape-font-specification:Verdana;writing-mode:lr-tb;fill:#000000;fill-opacity:1;fill-rule:nonzero;stroke:none"
               id="text3558"><tspan
                 x="0 13.88556 22.197241 30.565081 38.750401 42.695641 51.00732 55.893242 61.424999 69.947281 75.479042 83.734558 87.679802"
                 y="0"
                 sodipodi:role="line"
                 id="tspan3560">Weekly total </tspan></text>
</g></g><g
           id="g3562"><g
             id="g3564"
             clip-path="url(#clipPath3566)"><text
               transform="matrix(1,0,0,-1,24.6,99.048)"
               style="font-variant:normal;font-weight:normal;font-size:14.03999996px;font-family:Verdana;-inkscape-font-specification:Verdana;writing-mode:lr-tb;fill:#000000;fill-opacity:1;fill-rule:nonzero;stroke:none"
               id="text3570"><tspan
                 x="0 5.99508 14.36292 22.674601 31.04244 39.92976 48.7188 57.086639 62.028721 70.466759 75.99852 80.884438 90.642242 99.487442"
                 y="0"
                 sodipodi:role="line"
                 id="tspan3572">revenue at R30</tspan></text>
</g></g><g
           id="g3574"><g
             id="g3576"
             clip-path="url(#clipPath3578)" /></g></g></g><g
       id="g3582"><g
         id="g3584"
         clip-path="url(#clipPath3586)"><g
           id="g3590"><g
             id="g3592"
             clip-path="url(#clipPath3594)"><text
               transform="matrix(1,0,0,-1,187.25,107.59)"
               style="font-variant:normal;font-weight:normal;font-size:14.03999996px;font-family:Verdana;-inkscape-font-specification:Verdana;writing-mode:lr-tb;fill:#000000;fill-opacity:1;fill-rule:nonzero;stroke:none"
               id="text3598"><tspan
                 x="0"
                 y="0"
                 id="tspan3600">a</tspan></text>
</g></g><g
           id="g3602"><g
             id="g3604"
             clip-path="url(#clipPath3606)" /></g></g></g><g
       id="g3610"><g
         id="g3612"
         clip-path="url(#clipPath3614)"><g
           id="g3618"><g
             id="g3620"
             clip-path="url(#clipPath3622)"><text
               transform="matrix(1,0,0,-1,272.23,107.59)"
               style="font-variant:normal;font-weight:normal;font-size:14.03999996px;font-family:Verdana;-inkscape-font-specification:Verdana;writing-mode:lr-tb;fill:#000000;fill-opacity:1;fill-rule:nonzero;stroke:none"
               id="text3626"><tspan
                 x="0"
                 y="0"
                 id="tspan3628">b</tspan></text>
</g></g><g
           id="g3630"><g
             id="g3632"
             clip-path="url(#clipPath3634)" /></g></g></g><g
       id="g3638"><g
         id="g3640"
         clip-path="url(#clipPath3642)"><g
           id="g3646"><g
             id="g3648"
             clip-path="url(#clipPath3650)"><text
               transform="matrix(1,0,0,-1,379.2,107.59)"
               style="font-variant:normal;font-weight:normal;font-size:14.03999996px;font-family:Verdana;-inkscape-font-specification:Verdana;writing-mode:lr-tb;fill:#000000;fill-opacity:1;fill-rule:nonzero;stroke:none"
               id="text3654"><tspan
                 x="0"
                 y="0"
                 id="tspan3656">c</tspan></text>
</g></g><g
           id="g3658"><g
             id="g3660"
             clip-path="url(#clipPath3662)" /></g></g></g><path
       d="m 8.52,141.43 0.48,0 0,0.48 -0.48,0 0,-0.48 z"
       style="fill:#000000;fill-opacity:1;fill-rule:evenodd;stroke:none"
       id="path3666"
       inkscape:connector-curvature="0" /><path
       d="m 9,141.43 139.73,0 0,0.48 -139.73,0 0,-0.48 z"
       style="fill:#000000;fill-opacity:1;fill-rule:evenodd;stroke:none"
       id="path3668"
       inkscape:connector-curvature="0" /><path
       d="m 148.73,141.43 0.48,0 0,0.48 -0.48,0 0,-0.48 z"
       style="fill:#000000;fill-opacity:1;fill-rule:evenodd;stroke:none"
       id="path3670"
       inkscape:connector-curvature="0" /><path
       d="m 149.21,141.43 84.504,0 0,0.48 -84.504,0 0,-0.48 z"
       style="fill:#000000;fill-opacity:1;fill-rule:evenodd;stroke:none"
       id="path3672"
       inkscape:connector-curvature="0" /><path
       d="m 233.71,141.43 0.48001,0 0,0.48 -0.48001,0 0,-0.48 z"
       style="fill:#000000;fill-opacity:1;fill-rule:evenodd;stroke:none"
       id="path3674"
       inkscape:connector-curvature="0" /><path
       d="m 234.19,141.43 84.624,0 0,0.48 -84.624,0 0,-0.48 z"
       style="fill:#000000;fill-opacity:1;fill-rule:evenodd;stroke:none"
       id="path3676"
       inkscape:connector-curvature="0" /><path
       d="m 318.82,141.43 0.48001,0 0,0.48 -0.48001,0 0,-0.48 z"
       style="fill:#000000;fill-opacity:1;fill-rule:evenodd;stroke:none"
       id="path3678"
       inkscape:connector-curvature="0" /><path
       d="m 319.3,141.43 127.1,0 0,0.48 -127.1,0 0,-0.48 z"
       style="fill:#000000;fill-opacity:1;fill-rule:evenodd;stroke:none"
       id="path3680"
       inkscape:connector-curvature="0" /><path
       d="m 446.4,141.43 0.47998,0 0,0.48 -0.47998,0 0,-0.48 z"
       style="fill:#000000;fill-opacity:1;fill-rule:evenodd;stroke:none"
       id="path3682"
       inkscape:connector-curvature="0" /><path
       d="m 8.52,84.648 0.48,0 0,56.784 -0.48,0 0,-56.784 z"
       style="fill:#000000;fill-opacity:1;fill-rule:evenodd;stroke:none"
       id="path3684"
       inkscape:connector-curvature="0" /><path
       d="m 148.73,84.648 0.48,0 0,56.784 -0.48,0 0,-56.784 z"
       style="fill:#000000;fill-opacity:1;fill-rule:evenodd;stroke:none"
       id="path3686"
       inkscape:connector-curvature="0" /><path
       d="m 233.71,84.648 0.48001,0 0,56.784 -0.48001,0 0,-56.784 z"
       style="fill:#000000;fill-opacity:1;fill-rule:evenodd;stroke:none"
       id="path3688"
       inkscape:connector-curvature="0" /><path
       d="m 318.82,84.648 0.48001,0 0,56.784 -0.48001,0 0,-56.784 z"
       style="fill:#000000;fill-opacity:1;fill-rule:evenodd;stroke:none"
       id="path3690"
       inkscape:connector-curvature="0" /><path
       d="m 446.4,84.648 0.47998,0 0,56.784 -0.47998,0 0,-56.784 z"
       style="fill:#000000;fill-opacity:1;fill-rule:evenodd;stroke:none"
       id="path3692"
       inkscape:connector-curvature="0" /><g
       id="g3694"><g
         id="g3696"
         clip-path="url(#clipPath3698)"><g
           id="g3702"><g
             id="g3704"
             clip-path="url(#clipPath3706)"><text
               transform="matrix(1,0,0,-1,34.92,58.944)"
               style="font-variant:normal;font-weight:normal;font-size:14.03999996px;font-family:Verdana;-inkscape-font-specification:Verdana;writing-mode:lr-tb;fill:#000000;fill-opacity:1;fill-rule:nonzero;stroke:none"
               id="text3710"><tspan
                 x="0 13.88556 22.197241 30.565081 38.750401 42.695641 51.00732 55.893242 61.424999 69.947281 75.479042 83.734558 87.679802"
                 y="0"
                 sodipodi:role="line"
                 id="tspan3712">Weekly total </tspan></text>
</g></g><g
           id="g3714"><g
             id="g3716"
             clip-path="url(#clipPath3718)"><text
               transform="matrix(1,0,0,-1,24.6,41.904)"
               style="font-variant:normal;font-weight:normal;font-size:14.03999996px;font-family:Verdana;-inkscape-font-specification:Verdana;writing-mode:lr-tb;fill:#000000;fill-opacity:1;fill-rule:nonzero;stroke:none"
               id="text3722"><tspan
                 x="0 5.99508 14.36292 22.674601 31.04244 39.92976 48.7188 57.086639 62.028721 70.466759 75.99852 80.884438 90.642242 99.487442"
                 y="0"
                 sodipodi:role="line"
                 id="tspan3724">revenue at R33</tspan></text>
</g></g><g
           id="g3726"><g
             id="g3728"
             clip-path="url(#clipPath3730)" /></g></g></g><g
       id="g3734"><g
         id="g3736"
         clip-path="url(#clipPath3738)"><g
           id="g3742"><g
             id="g3744"
             clip-path="url(#clipPath3746)"><text
               transform="matrix(1,0,0,-1,187.13,50.424)"
               style="font-variant:normal;font-weight:normal;font-size:14.03999996px;font-family:Verdana;-inkscape-font-specification:Verdana;writing-mode:lr-tb;fill:#000000;fill-opacity:1;fill-rule:nonzero;stroke:none"
               id="text3750"><tspan
                 x="0"
                 y="0"
                 id="tspan3752">d</tspan></text>
</g></g><g
           id="g3754"><g
             id="g3756"
             clip-path="url(#clipPath3758)" /></g></g></g><g
       id="g3762"><g
         id="g3764"
         clip-path="url(#clipPath3766)"><g
           id="g3770"><g
             id="g3772"
             clip-path="url(#clipPath3774)"><text
               transform="matrix(1,0,0,-1,272.35,50.424)"
               style="font-variant:normal;font-weight:normal;font-size:14.03999996px;font-family:Verdana;-inkscape-font-specification:Verdana;writing-mode:lr-tb;fill:#000000;fill-opacity:1;fill-rule:nonzero;stroke:none"
               id="text3778"><tspan
                 x="0"
                 y="0"
                 id="tspan3780">e</tspan></text>
</g></g><g
           id="g3782"><g
             id="g3784"
             clip-path="url(#clipPath3786)" /></g></g></g><g
       id="g3790"><g
         id="g3792"
         clip-path="url(#clipPath3794)"><g
           id="g3798"><g
             id="g3800"
             clip-path="url(#clipPath3802)"><text
               transform="matrix(1,0,0,-1,380.4,50.424)"
               style="font-variant:normal;font-weight:normal;font-size:14.03999996px;font-family:Verdana;-inkscape-font-specification:Verdana;writing-mode:lr-tb;fill:#000000;fill-opacity:1;fill-rule:nonzero;stroke:none"
               id="text3806"><tspan
                 x="0"
                 y="0"
                 id="tspan3808">f</tspan></text>
</g></g><g
           id="g3810"><g
             id="g3812"
             clip-path="url(#clipPath3814)" /></g></g></g><path
       d="m 8.52,84.168 0.48,0 0,0.48 -0.48,0 0,-0.48 z"
       style="fill:#000000;fill-opacity:1;fill-rule:evenodd;stroke:none"
       id="path3818"
       inkscape:connector-curvature="0" /><path
       d="m 9,84.168 139.73,0 0,0.48 -139.73,0 0,-0.48 z"
       style="fill:#000000;fill-opacity:1;fill-rule:evenodd;stroke:none"
       id="path3820"
       inkscape:connector-curvature="0" /><path
       d="m 148.73,84.168 0.48,0 0,0.48 -0.48,0 0,-0.48 z"
       style="fill:#000000;fill-opacity:1;fill-rule:evenodd;stroke:none"
       id="path3822"
       inkscape:connector-curvature="0" /><path
       d="m 149.21,84.168 84.504,0 0,0.48 -84.504,0 0,-0.48 z"
       style="fill:#000000;fill-opacity:1;fill-rule:evenodd;stroke:none"
       id="path3824"
       inkscape:connector-curvature="0" /><path
       d="m 233.71,84.168 0.48001,0 0,0.48 -0.48001,0 0,-0.48 z"
       style="fill:#000000;fill-opacity:1;fill-rule:evenodd;stroke:none"
       id="path3826"
       inkscape:connector-curvature="0" /><path
       d="m 234.19,84.168 84.624,0 0,0.48 -84.624,0 0,-0.48 z"
       style="fill:#000000;fill-opacity:1;fill-rule:evenodd;stroke:none"
       id="path3828"
       inkscape:connector-curvature="0" /><path
       d="m 318.82,84.168 0.48001,0 0,0.48 -0.48001,0 0,-0.48 z"
       style="fill:#000000;fill-opacity:1;fill-rule:evenodd;stroke:none"
       id="path3830"
       inkscape:connector-curvature="0" /><path
       d="m 319.3,84.168 127.1,0 0,0.48 -127.1,0 0,-0.48 z"
       style="fill:#000000;fill-opacity:1;fill-rule:evenodd;stroke:none"
       id="path3832"
       inkscape:connector-curvature="0" /><path
       d="m 446.4,84.168 0.47998,0 0,0.48 -0.47998,0 0,-0.48 z"
       style="fill:#000000;fill-opacity:1;fill-rule:evenodd;stroke:none"
       id="path3834"
       inkscape:connector-curvature="0" /><path
       d="m 8.52,27.384 0.48,0 0,56.784 -0.48,0 0,-56.784 z"
       style="fill:#000000;fill-opacity:1;fill-rule:evenodd;stroke:none"
       id="path3836"
       inkscape:connector-curvature="0" /><path
       d="m 8.52,26.904 0.48,0 0,0.48 -0.48,0 0,-0.48 z"
       style="fill:#000000;fill-opacity:1;fill-rule:evenodd;stroke:none"
       id="path3838"
       inkscape:connector-curvature="0" /><path
       d="m 8.52,26.904 0.48,0 0,0.48 -0.48,0 0,-0.48 z"
       style="fill:#000000;fill-opacity:1;fill-rule:evenodd;stroke:none"
       id="path3840"
       inkscape:connector-curvature="0" /><path
       d="m 9,26.904 139.73,0 0,0.48 -139.73,0 0,-0.48 z"
       style="fill:#000000;fill-opacity:1;fill-rule:evenodd;stroke:none"
       id="path3842"
       inkscape:connector-curvature="0" /><path
       d="m 148.73,27.384 0.48,0 0,56.784 -0.48,0 0,-56.784 z"
       style="fill:#000000;fill-opacity:1;fill-rule:evenodd;stroke:none"
       id="path3844"
       inkscape:connector-curvature="0" /><path
       d="m 148.73,26.904 0.48,0 0,0.48 -0.48,0 0,-0.48 z"
       style="fill:#000000;fill-opacity:1;fill-rule:evenodd;stroke:none"
       id="path3846"
       inkscape:connector-curvature="0" /><path
       d="m 149.21,26.904 84.504,0 0,0.48 -84.504,0 0,-0.48 z"
       style="fill:#000000;fill-opacity:1;fill-rule:evenodd;stroke:none"
       id="path3848"
       inkscape:connector-curvature="0" /><path
       d="m 233.71,27.384 0.48001,0 0,56.784 -0.48001,0 0,-56.784 z"
       style="fill:#000000;fill-opacity:1;fill-rule:evenodd;stroke:none"
       id="path3850"
       inkscape:connector-curvature="0" /><path
       d="m 233.71,26.904 0.48001,0 0,0.48 -0.48001,0 0,-0.48 z"
       style="fill:#000000;fill-opacity:1;fill-rule:evenodd;stroke:none"
       id="path3852"
       inkscape:connector-curvature="0" /><path
       d="m 234.19,26.904 84.624,0 0,0.48 -84.624,0 0,-0.48 z"
       style="fill:#000000;fill-opacity:1;fill-rule:evenodd;stroke:none"
       id="path3854"
       inkscape:connector-curvature="0" /><path
       d="m 318.82,27.384 0.48001,0 0,56.784 -0.48001,0 0,-56.784 z"
       style="fill:#000000;fill-opacity:1;fill-rule:evenodd;stroke:none"
       id="path3856"
       inkscape:connector-curvature="0" /><path
       d="m 318.82,26.904 0.48001,0 0,0.48 -0.48001,0 0,-0.48 z"
       style="fill:#000000;fill-opacity:1;fill-rule:evenodd;stroke:none"
       id="path3858"
       inkscape:connector-curvature="0" /><path
       d="m 319.3,26.904 127.1,0 0,0.48 -127.1,0 0,-0.48 z"
       style="fill:#000000;fill-opacity:1;fill-rule:evenodd;stroke:none"
       id="path3860"
       inkscape:connector-curvature="0" /><path
       d="m 446.4,27.384 0.47998,0 0,56.784 -0.47998,0 0,-56.784 z"
       style="fill:#000000;fill-opacity:1;fill-rule:evenodd;stroke:none"
       id="path3862"
       inkscape:connector-curvature="0" /><path
       d="m 446.4,26.904 0.47998,0 0,0.48 -0.47998,0 0,-0.48 z"
       style="fill:#000000;fill-opacity:1;fill-rule:evenodd;stroke:none"
       id="path3864"
       inkscape:connector-curvature="0" /><path
       d="m 446.4,26.904 0.47998,0 0,0.48 -0.47998,0 0,-0.48 z"
       style="fill:#000000;fill-opacity:1;fill-rule:evenodd;stroke:none"
       id="path3866"
       inkscape:connector-curvature="0" /></g></svg>