<svg xmlns="http://www.w3.org/2000/svg" viewBox="0 0 356.69 302.24"><defs><style>.cls-1,.cls-12,.cls-13,.cls-14,.cls-17,.cls-18,.cls-19,.cls-4,.cls-5,.cls-6,.cls-7{fill:none;stroke-miterlimit:10;}.cls-1,.cls-12,.cls-13,.cls-17,.cls-18,.cls-4,.cls-5,.cls-6{stroke:#4d4d4d;}.cls-1{stroke-width:2.16px;}.cls-10,.cls-15,.cls-16,.cls-2,.cls-21,.cls-3,.cls-8,.cls-9{isolation:isolate;}.cls-2,.cls-3,.cls-8,.cls-9{font-size:16px;}.cls-11,.cls-16,.cls-2,.cls-21{fill:#4d4d4d;}.cls-15,.cls-16,.cls-2,.cls-21,.cls-3,.cls-8,.cls-9{font-family:Verdana, Verdana;}.cls-3{fill:#96201e;}.cls-12,.cls-13,.cls-17,.cls-4,.cls-5,.cls-6{stroke-width:1.4px;}.cls-5{stroke-dasharray:4.24 5.08;}.cls-6{stroke-dasharray:4.29 5.15;}.cls-7{stroke:#459a77;stroke-width:1.95px;}.cls-8{fill:#497;}.cls-15,.cls-9{fill:#3e7bbe;}.cls-12{stroke-dasharray:4.23 5.07;}.cls-13{stroke-dasharray:4.23 5.07;}.cls-14,.cls-19{stroke:#3e7bbe;}.cls-14{stroke-width:1.46px;}.cls-15,.cls-16{font-size:11.25px;}.cls-17{stroke-dasharray:4.27 5.13;}.cls-18{stroke-width:1.28px;}.cls-19{stroke-width:1.91px;}.cls-20{fill:#fff;}.cls-21{font-size:12px;}.cls-22{letter-spacing:-0.01em;}</style></defs><title>[UECA-724][5] cds05a</title><g id="svg2"><g id="g3665"><polyline id="polyline7" class="cls-1" points="338.95 280.99 14.36 280.99 14.36 2.19"/><text class="cls-2" transform="translate(0.38 13.4)">P</text><g id="g135"><text class="cls-2" transform="translate(4.06 294.01)">0</text></g><text class="cls-2" transform="translate(325.57 298.11)">Q</text><text class="cls-3" transform="translate(143.5 138.86)">E</text><line id="line144" class="cls-1" x1="256.06" y1="276.69" x2="256.06" y2="281.09"/><line id="line146" class="cls-1" x1="220.16" y1="276.69" x2="220.16" y2="281.09"/><line id="line148" class="cls-1" x1="184.26" y1="276.69" x2="184.26" y2="281.09"/><line id="line150" class="cls-1" x1="148.46" y1="276.69" x2="148.46" y2="281.09"/><line id="line152" class="cls-1" x1="112.56" y1="276.69" x2="112.56" y2="281.09"/><line id="line154" class="cls-1" x1="76.66" y1="276.69" x2="76.66" y2="281.09"/><line id="line156" class="cls-1" x1="40.76" y1="276.69" x2="40.76" y2="281.09"/><line id="line158" class="cls-1" x1="18.66" y1="253.19" x2="14.36" y2="253.19"/><line id="line160" class="cls-1" x1="18.66" y1="217.09" x2="14.36" y2="217.09"/><line id="line162" class="cls-1" x1="18.66" y1="181.09" x2="14.36" y2="181.09"/><line id="line164" class="cls-1" x1="18.66" y1="145.09" x2="14.36" y2="145.09"/><line id="line166" class="cls-1" x1="18.66" y1="109.09" x2="14.36" y2="109.09"/><line id="line168" class="cls-1" x1="18.66" y1="72.99" x2="14.36" y2="72.99"/><g id="g198"><g id="g200"><line id="line202" class="cls-4" x1="17.86" y1="144.89" x2="20.06" y2="144.89"/><line id="line204" class="cls-5" x1="25.16" y1="144.89" x2="143.66" y2="144.89"/><polyline id="polyline206" class="cls-4" points="146.25 144.89 148.46 144.89 148.46 146.99"/><line id="line208" class="cls-6" x1="148.46" y1="152.19" x2="148.46" y2="272.29"/><line id="line210" class="cls-4" x1="148.46" y1="274.89" x2="148.46" y2="277.09"/></g></g><line id="line276" class="cls-7" x1="265.06" y1="28.89" x2="29.66" y2="264.59"/><text class="cls-8" transform="translate(267.49 30.96)">S</text><text class="cls-9" transform="translate(268.42 274.74)">D</text><g id="g345"><text class="cls-2" transform="translate(-0.14 259.18)">1</text></g><g id="g349"><text class="cls-2" transform="translate(-0.14 223.17)">2</text></g><g id="g353"><text class="cls-2" transform="translate(-0.14 187.17)">3</text></g><g id="g357"><text class="cls-2" transform="translate(-0.14 151.16)">4</text></g><g id="g361"><text class="cls-2" transform="translate(-0.14 115.15)">5</text></g><g id="g365"><text class="cls-2" transform="translate(-0.14 79.15)">6</text></g><g id="g187" class="cls-10"><path id="path189" class="cls-11" d="M31.16,294.59h-3.9v-.7h1.5V289h-1.5v-.7a2,2,0,0,0,.7-.1,4.33,4.33,0,0,0,.5-.1c.1-.1.3-.2.4-.3a.75.75,0,0,0,.1-.5h.8v6.6h1.5v.7Z"/><path id="path191" class="cls-11" d="M41.46,294.59h-4.9v-1c.3-.3.7-.6,1-.9s.7-.6,1-.9a13.18,13.18,0,0,0,1.3-1.4,2.38,2.38,0,0,0,.3-1.2,1,1,0,0,0-.4-.9,1.49,1.49,0,0,0-1-.3,4.4,4.4,0,0,0-1,.2,3.13,3.13,0,0,0-1,.5h0v-1a4.65,4.65,0,0,1,.9-.3,4.48,4.48,0,0,1,1.1-.1,3.45,3.45,0,0,1,1.8.5,1.89,1.89,0,0,1,.6,1.5,2.2,2.2,0,0,1-.1.8c-.1.2-.2.5-.3.7s-.3.4-.4.6-.4.4-.6.6a11,11,0,0,1-1.1,1,9,9,0,0,0-1,.9h3.9v.7Z"/><path id="path193" class="cls-11" d="M47.76,291a5.46,5.46,0,0,1-.6,2.9,2.46,2.46,0,0,1-3.8,0,5.46,5.46,0,0,1-.6-2.9,5.7,5.7,0,0,1,.6-2.9,2.46,2.46,0,0,1,3.8,0A5.46,5.46,0,0,1,47.76,291Zm-1.3,2.2a2.92,2.92,0,0,0,.2-.9c0-.4.1-.8.1-1.3a5.28,5.28,0,0,0-.1-1.3,6.37,6.37,0,0,0-.2-.9c-.1-.3-.3-.4-.5-.6a1.08,1.08,0,0,0-.8-.2,1.88,1.88,0,0,0-.8.2,1,1,0,0,0-.5.6,2.39,2.39,0,0,0-.2.9c0,.3-.1.8-.1,1.3a5.28,5.28,0,0,0,.1,1.3c.1.4.1.6.2.9s.3.4.5.6a1.08,1.08,0,0,0,.8.2,1.88,1.88,0,0,0,.8-.2A1.47,1.47,0,0,0,46.46,293.19Z"/><path id="path195" class="cls-11" d="M54.16,291a5.46,5.46,0,0,1-.6,2.9,2.46,2.46,0,0,1-3.8,0,5.46,5.46,0,0,1-.6-2.9,5.7,5.7,0,0,1,.6-2.9,2.46,2.46,0,0,1,3.8,0A5.46,5.46,0,0,1,54.16,291Zm-1.3,2.2a2.92,2.92,0,0,0,.2-.9c0-.4.1-.8.1-1.3a5.28,5.28,0,0,0-.1-1.3,6.37,6.37,0,0,0-.2-.9c-.1-.3-.3-.4-.5-.6a1.08,1.08,0,0,0-.8-.2,1.88,1.88,0,0,0-.8.2,1,1,0,0,0-.5.6,2.39,2.39,0,0,0-.2.9c0,.3-.1.8-.1,1.3a5.28,5.28,0,0,0,.1,1.3c.1.4.1.6.2.9s.3.4.5.6a1.08,1.08,0,0,0,.8.2,1.88,1.88,0,0,0,.8-.2A1.47,1.47,0,0,0,52.86,293.19Z"/></g><g id="g197" class="cls-10"><path id="path199" class="cls-11" d="M67.26,294.59h-4v-.7h1.5V289h-1.5v-.7a2,2,0,0,0,.7-.1,4.33,4.33,0,0,0,.5-.1c.1-.1.3-.2.4-.3a.75.75,0,0,0,.1-.5h.8v6.6h1.5Z"/><path id="path201" class="cls-11" d="M77.56,292.59a2,2,0,0,1-.7,1.6,2.79,2.79,0,0,1-1.8.6,2.88,2.88,0,0,1-1.9-.6,1.86,1.86,0,0,1-.7-1.6,1.5,1.5,0,0,1,.4-1.1,2.72,2.72,0,0,1,1-.8h0a2.18,2.18,0,0,1-.9-.7,1.61,1.61,0,0,1-.3-.9,1.75,1.75,0,0,1,.7-1.4,2.46,2.46,0,0,1,1.7-.5,2.86,2.86,0,0,1,1.7.5,1.61,1.61,0,0,1,.6,1.3,1.93,1.93,0,0,1-.3,1,1.6,1.6,0,0,1-.9.7h0a2,2,0,0,1,1,.7,2.14,2.14,0,0,1,.4,1.2Zm-1,.1a1.45,1.45,0,0,0-.2-.7,1.23,1.23,0,0,0-.8-.5c-.2-.1-.3-.1-.5-.2a3.63,3.63,0,0,1-.7-.3,4.35,4.35,0,0,0-.7.6,1.4,1.4,0,0,0-.3.9,1.55,1.55,0,0,0,1.7,1.5,1.25,1.25,0,0,0,1.1-.4A1.49,1.49,0,0,0,76.56,292.69Zm-.1-3.7a.91.91,0,0,0-.4-.8,1.82,1.82,0,0,0-2,0,.91.91,0,0,0-.4.8,1.42,1.42,0,0,0,.2.6c.1.2.3.3.6.5.1.1.3.1.5.2a1.45,1.45,0,0,0,.7.2,2.34,2.34,0,0,0,.7-.7c.2-.3.1-.5.1-.8Z"/><path id="path203" class="cls-11" d="M83.86,291a5.46,5.46,0,0,1-.6,2.9,2.46,2.46,0,0,1-3.8,0,5.46,5.46,0,0,1-.6-2.9,5.7,5.7,0,0,1,.6-2.9,2.46,2.46,0,0,1,3.8,0A5.46,5.46,0,0,1,83.86,291Zm-1.3,2.2a2.92,2.92,0,0,0,.2-.9c0-.4.1-.8.1-1.3a5.28,5.28,0,0,0-.1-1.3,6.38,6.38,0,0,0-.2-.9c-.1-.3-.3-.4-.5-.6a1.08,1.08,0,0,0-.8-.2,1.88,1.88,0,0,0-.8.2,1,1,0,0,0-.5.6,2.39,2.39,0,0,0-.2.9c0,.3-.1.8-.1,1.3a5.28,5.28,0,0,0,.1,1.3c.1.4.1.6.2.9s.3.4.5.6a1.08,1.08,0,0,0,.8.2,1.88,1.88,0,0,0,.8-.2A1.47,1.47,0,0,0,82.56,293.19Z"/><path id="path205" class="cls-11" d="M90.26,291a5.46,5.46,0,0,1-.6,2.9,2.46,2.46,0,0,1-3.8,0,5.46,5.46,0,0,1-.6-2.9,5.7,5.7,0,0,1,.6-2.9,2.46,2.46,0,0,1,3.8,0A5.46,5.46,0,0,1,90.26,291Zm-1.3,2.2a2.92,2.92,0,0,0,.2-.9c0-.4.1-.8.1-1.3a5.28,5.28,0,0,0-.1-1.3,6.38,6.38,0,0,0-.2-.9c-.1-.3-.3-.4-.5-.6a1.08,1.08,0,0,0-.8-.2,1.88,1.88,0,0,0-.8.2,1,1,0,0,0-.5.6,2.39,2.39,0,0,0-.2.9c0,.3-.1.8-.1,1.3a5.28,5.28,0,0,0,.1,1.3c.1.4.1.6.2.9s.3.4.5.6a1.08,1.08,0,0,0,.8.2,1.88,1.88,0,0,0,.8-.2A1.47,1.47,0,0,0,89,293.19Z"/></g><g id="g207" class="cls-10"><path id="path209" class="cls-11" d="M103.36,294.59h-4.9v-1c.3-.3.7-.6,1-.9s.7-.6,1-.9a13.18,13.18,0,0,0,1.3-1.4,2.38,2.38,0,0,0,.3-1.2,1,1,0,0,0-.4-.9,1.49,1.49,0,0,0-1-.3,4.4,4.4,0,0,0-1,.2,3.13,3.13,0,0,0-1,.5h0v-1a4.65,4.65,0,0,1,.9-.3,4.48,4.48,0,0,1,1.1-.1,3.45,3.45,0,0,1,1.8.5,1.89,1.89,0,0,1,.6,1.5,2.2,2.2,0,0,1-.1.8c-.1.2-.2.5-.3.7s-.3.4-.4.6-.4.4-.6.6a11,11,0,0,1-1.1,1,9,9,0,0,0-1,.9h3.9v.7Z"/><path id="path211" class="cls-11" d="M113.46,292.59h-1.1v2h-.9v-2H108v-1.1l3.5-4.1h.9v4.4h1.1v.8Zm-2-.8v-3.3l-2.8,3.3Z"/><path id="path213" class="cls-11" d="M119.66,291a5.46,5.46,0,0,1-.6,2.9,2.46,2.46,0,0,1-3.8,0,5.46,5.46,0,0,1-.6-2.9,5.7,5.7,0,0,1,.6-2.9,2.46,2.46,0,0,1,3.8,0A5.46,5.46,0,0,1,119.66,291Zm-1.3,2.2a2.92,2.92,0,0,0,.2-.9c0-.4.1-.8.1-1.3a5.28,5.28,0,0,0-.1-1.3,6.38,6.38,0,0,0-.2-.9c-.1-.3-.3-.4-.5-.6a1.08,1.08,0,0,0-.8-.2,1.88,1.88,0,0,0-.8.2,1,1,0,0,0-.5.6,2.39,2.39,0,0,0-.2.9c0,.3-.1.8-.1,1.3a5.28,5.28,0,0,0,.1,1.3c.1.4.1.6.2.9s.3.4.5.6a1.08,1.08,0,0,0,.8.2,1.88,1.88,0,0,0,.8-.2A1.47,1.47,0,0,0,118.36,293.19Z"/><path id="path215" class="cls-11" d="M126,291a5.46,5.46,0,0,1-.6,2.9,2.46,2.46,0,0,1-3.8,0,5.46,5.46,0,0,1-.6-2.9,5.7,5.7,0,0,1,.6-2.9,2.46,2.46,0,0,1,3.8,0A5.46,5.46,0,0,1,126,291Zm-1.3,2.2a2.92,2.92,0,0,0,.2-.9c0-.4.1-.8.1-1.3a5.28,5.28,0,0,0-.1-1.3,6.38,6.38,0,0,0-.2-.9c-.1-.3-.3-.4-.5-.6a1.08,1.08,0,0,0-.8-.2,1.88,1.88,0,0,0-.8.2,1,1,0,0,0-.5.6,2.39,2.39,0,0,0-.2.9c0,.3-.1.8-.1,1.3a5.28,5.28,0,0,0,.1,1.3c.1.4.1.6.2.9s.3.4.5.6a1.08,1.08,0,0,0,.8.2,1.88,1.88,0,0,0,.8-.2A1.47,1.47,0,0,0,124.66,293.19Z"/></g><g id="g217" class="cls-10"><path id="path219" class="cls-11" d="M138.46,291.09a1,1,0,0,1,.4.5,1.88,1.88,0,0,1,.2.8,2.92,2.92,0,0,1-.2.9,1.79,1.79,0,0,1-.5.7,1.93,1.93,0,0,1-.9.5,3.59,3.59,0,0,1-1.1.2,4.87,4.87,0,0,1-1.2-.1c-.4-.1-.7-.2-1-.3v-1h.1a9.29,9.29,0,0,0,1,.5,2.15,2.15,0,0,0,1.1.2,2,2,0,0,0,.7-.1,3.33,3.33,0,0,0,.6-.3.85.85,0,0,0,.3-.5c0-.2.1-.4.1-.7s0-.5-.1-.6a1.38,1.38,0,0,0-.3-.4.76.76,0,0,0-.5-.2c-.2,0-.4-.1-.7-.1h-.4v-.8h.3a2.13,2.13,0,0,0,1.2-.3,1,1,0,0,0,.4-.9.9.9,0,0,0-.1-.5l-.3-.3c-.1-.1-.3-.1-.4-.2s-.3,0-.5,0a4.4,4.4,0,0,0-1,.2,3.13,3.13,0,0,0-1,.5h0v-1a4.65,4.65,0,0,1,.9-.3,4.48,4.48,0,0,1,1.1-.1,2.22,2.22,0,0,1,.9.1c.2.1.5.2.7.3s.4.3.5.6a2.35,2.35,0,0,1,.2.8,1.5,1.5,0,0,1-.4,1.1,2.08,2.08,0,0,1-1,.6v.1c.2,0,.3.1.5.2.1-.3.3-.2.4-.1Z"/><path id="path221" class="cls-11" d="M149,291a5.46,5.46,0,0,1-.6,2.9,2.46,2.46,0,0,1-3.8,0,5.46,5.46,0,0,1-.6-2.9,5.7,5.7,0,0,1,.6-2.9,2.46,2.46,0,0,1,3.8,0A5.46,5.46,0,0,1,149,291Zm-1.2,2.2a2.92,2.92,0,0,0,.2-.9c0-.4.1-.8.1-1.3a5.28,5.28,0,0,0-.1-1.3,6.38,6.38,0,0,0-.2-.9c-.1-.3-.3-.4-.5-.6a1.08,1.08,0,0,0-.8-.2,1.88,1.88,0,0,0-.8.2,1,1,0,0,0-.5.6,2.39,2.39,0,0,0-.2.9c0,.3-.1.8-.1,1.3a5.28,5.28,0,0,0,.1,1.3c.1.4.1.6.2.9s.3.4.5.6a1.08,1.08,0,0,0,.8.2,1.88,1.88,0,0,0,.8-.2C147.46,293.69,147.56,293.39,147.76,293.19Z"/><path id="path223" class="cls-11" d="M155.36,291a5.46,5.46,0,0,1-.6,2.9,2.46,2.46,0,0,1-3.8,0,5.46,5.46,0,0,1-.6-2.9,5.7,5.7,0,0,1,.6-2.9,2.46,2.46,0,0,1,3.8,0A5.46,5.46,0,0,1,155.36,291Zm-1.3,2.2a2.92,2.92,0,0,0,.2-.9c0-.4.1-.8.1-1.3a5.28,5.28,0,0,0-.1-1.3,6.38,6.38,0,0,0-.2-.9c-.1-.3-.3-.4-.5-.6a1.08,1.08,0,0,0-.8-.2,1.88,1.88,0,0,0-.8.2,1,1,0,0,0-.5.6,2.39,2.39,0,0,0-.2.9c0,.3-.1.8-.1,1.3a5.28,5.28,0,0,0,.1,1.3c.1.4.1.6.2.9s.3.4.5.6a1.08,1.08,0,0,0,.8.2,1.88,1.88,0,0,0,.8-.2A1.47,1.47,0,0,0,154.06,293.19Z"/><path id="path225" class="cls-11" d="M161.76,291a5.46,5.46,0,0,1-.6,2.9,2.46,2.46,0,0,1-3.8,0,5.46,5.46,0,0,1-.6-2.9,5.7,5.7,0,0,1,.6-2.9,2.46,2.46,0,0,1,3.8,0A5.46,5.46,0,0,1,161.76,291Zm-1.3,2.2a2.92,2.92,0,0,0,.2-.9c0-.4.1-.8.1-1.3a5.28,5.28,0,0,0-.1-1.3,6.38,6.38,0,0,0-.2-.9c-.1-.3-.3-.4-.5-.6a1.08,1.08,0,0,0-.8-.2,1.88,1.88,0,0,0-.8.2,1,1,0,0,0-.5.6,2.39,2.39,0,0,0-.2.9c0,.3-.1.8-.1,1.3a5.28,5.28,0,0,0,.1,1.3c.1.4.1.6.2.9s.3.4.5.6a1.08,1.08,0,0,0,.8.2,1.88,1.88,0,0,0,.8-.2A1.47,1.47,0,0,0,160.46,293.19Z"/></g><g id="g227" class="cls-10"><path id="path229" class="cls-11" d="M174.46,291.09a1,1,0,0,1,.4.5,1.88,1.88,0,0,1,.2.8,2.92,2.92,0,0,1-.2.9,1.79,1.79,0,0,1-.5.7,1.93,1.93,0,0,1-.9.5,3.59,3.59,0,0,1-1.1.2,4.87,4.87,0,0,1-1.2-.1c-.4-.1-.7-.2-1-.3v-1h.1a9.29,9.29,0,0,0,1,.5,4.25,4.25,0,0,0,1.1.2,2,2,0,0,0,.7-.1l.6-.3a.85.85,0,0,0,.3-.5c0-.2.1-.4.1-.7s0-.5-.1-.6a1.38,1.38,0,0,0-.3-.4.76.76,0,0,0-.5-.2c-.2,0-.4-.1-.7-.1h-.4v-.8h.3a2.13,2.13,0,0,0,1.2-.3,1,1,0,0,0,.4-.9.9.9,0,0,0-.1-.5l-.3-.3c-.1-.1-.3-.1-.4-.2h-.5a4.4,4.4,0,0,0-1,.2,4.67,4.67,0,0,0-1,.5h0v-1a4.65,4.65,0,0,1,.9-.3,4.48,4.48,0,0,1,1.1-.1,2.22,2.22,0,0,1,.9.1,4.88,4.88,0,0,1,.7.3c.2.2.4.3.5.6a1.88,1.88,0,0,1,.2.8,1.5,1.5,0,0,1-.4,1.1,2.08,2.08,0,0,1-1,.6v.1c.2,0,.3.1.5.2.1-.3.3-.2.4-.1Z"/><path id="path231" class="cls-11" d="M185.06,292.19a2.4,2.4,0,0,1-2.5,2.5,3,3,0,0,1-1-.2,2.18,2.18,0,0,1-.8-.5,2,2,0,0,1-.6-1.1,7.77,7.77,0,0,1-.2-1.6,8.81,8.81,0,0,1,.2-1.7,3.29,3.29,0,0,1,.7-1.3,3.13,3.13,0,0,1,1.1-.9,4.15,4.15,0,0,1,1.6-.3h.5a.6.6,0,0,1,.4.1v.9h0c-.1,0-.2-.1-.4-.1s-.4-.1-.6-.1a2.06,2.06,0,0,0-1.7.7,2.48,2.48,0,0,0-.7,1.8,3,3,0,0,1,.8-.4,2.77,2.77,0,0,1,.9-.1,2,2,0,0,1,.8.1c.2.1.5.2.7.3a1.24,1.24,0,0,1,.6.8,2,2,0,0,1,.2,1.1Zm-1,.1a2,2,0,0,0-.1-.8,1,1,0,0,0-.4-.5c-.2-.1-.3-.2-.5-.2h-.6a2.2,2.2,0,0,0-.8.1c-.2.1-.5.2-.7.3v.5a3.73,3.73,0,0,0,.2,1.2,4.35,4.35,0,0,0,.4.7,2.19,2.19,0,0,0,.5.3,1.27,1.27,0,0,0,.6.1,1.37,1.37,0,0,0,1.1-.4,2.77,2.77,0,0,0,.3-1.3Z"/><path id="path233" class="cls-11" d="M191.36,291a5.46,5.46,0,0,1-.6,2.9,2.46,2.46,0,0,1-3.8,0,5.46,5.46,0,0,1-.6-2.9,5.7,5.7,0,0,1,.6-2.9,2.46,2.46,0,0,1,3.8,0A5.46,5.46,0,0,1,191.36,291Zm-1.3,2.2a2.92,2.92,0,0,0,.2-.9c0-.4.1-.8.1-1.3a5.28,5.28,0,0,0-.1-1.3,2,2,0,0,0-.2-.9c-.1-.3-.3-.4-.5-.6a1.7,1.7,0,0,0-1.6,0,1,1,0,0,0-.5.6,2.39,2.39,0,0,0-.2.9c0,.4-.1.8-.1,1.3a5.28,5.28,0,0,0,.1,1.3,2.92,2.92,0,0,0,.2.9c.1.3.3.4.5.6a1.7,1.7,0,0,0,1.6,0A2.65,2.65,0,0,0,190.06,293.19Z"/><path id="path235" class="cls-11" d="M197.66,291a5.46,5.46,0,0,1-.6,2.9,2.46,2.46,0,0,1-3.8,0,5.46,5.46,0,0,1-.6-2.9,5.7,5.7,0,0,1,.6-2.9,2.46,2.46,0,0,1,3.8,0A5.46,5.46,0,0,1,197.66,291Zm-1.3,2.2a2.92,2.92,0,0,0,.2-.9c0-.4.1-.8.1-1.3a5.28,5.28,0,0,0-.1-1.3,2,2,0,0,0-.2-.9c-.1-.3-.3-.4-.5-.6a1.7,1.7,0,0,0-1.6,0,1,1,0,0,0-.5.6,2.39,2.39,0,0,0-.2.9c0,.4-.1.8-.1,1.3a5.28,5.28,0,0,0,.1,1.3,2.92,2.92,0,0,0,.2.9c.1.3.3.4.5.6a1.7,1.7,0,0,0,1.6,0A1.33,1.33,0,0,0,196.36,293.19Z"/></g><g id="g237"><path id="path239" class="cls-11" d="M247.46,292.59h-1.1v2h-.9v-2H242v-1.1l3.5-4.1h.9v4.4h1.1v.8Zm-2-.8v-3.3l-2.8,3.3Z"/><path id="path241" class="cls-11" d="M257.16,292.59a2,2,0,0,1-.7,1.6,2.79,2.79,0,0,1-1.8.6,2.88,2.88,0,0,1-1.9-.6,1.86,1.86,0,0,1-.7-1.6,1.5,1.5,0,0,1,.4-1.1,2.72,2.72,0,0,1,1-.8h0a2.18,2.18,0,0,1-.9-.7,1.4,1.4,0,0,1-.3-.9,1.75,1.75,0,0,1,.7-1.4,2.46,2.46,0,0,1,1.7-.5,2.86,2.86,0,0,1,1.7.5,1.61,1.61,0,0,1,.6,1.3,1.93,1.93,0,0,1-.3,1,1.6,1.6,0,0,1-.9.7h0a2,2,0,0,1,1,.7,2.14,2.14,0,0,1,.4,1.2Zm-1,.1a1.45,1.45,0,0,0-.2-.7,1.23,1.23,0,0,0-.8-.5c-.2-.1-.3-.1-.5-.2a3.63,3.63,0,0,1-.7-.3,4.35,4.35,0,0,0-.7.6,1.48,1.48,0,0,0,.2,2,1.59,1.59,0,0,0,1.2.4,1.25,1.25,0,0,0,1.1-.4A1,1,0,0,0,256.16,292.69Zm-.1-3.7a.91.91,0,0,0-.4-.8,1.82,1.82,0,0,0-2,0,.91.91,0,0,0-.4.8,1.42,1.42,0,0,0,.2.6c.1.2.3.3.6.5.1.1.3.1.5.2a1.45,1.45,0,0,0,.7.2,2.34,2.34,0,0,0,.7-.7c.2-.3.1-.5.1-.8Z"/><path id="path243" class="cls-11" d="M263.46,291a5.46,5.46,0,0,1-.6,2.9,2.46,2.46,0,0,1-3.8,0,5.46,5.46,0,0,1-.6-2.9,5.7,5.7,0,0,1,.6-2.9,2.46,2.46,0,0,1,3.8,0A5.46,5.46,0,0,1,263.46,291Zm-1.2,2.2a2.92,2.92,0,0,0,.2-.9c0-.4.1-.8.1-1.3a5.28,5.28,0,0,0-.1-1.3,2,2,0,0,0-.2-.9c-.1-.3-.3-.4-.5-.6a1.55,1.55,0,0,0-.8-.2,1.88,1.88,0,0,0-.8.2,1,1,0,0,0-.5.6,2.39,2.39,0,0,0-.2.9c0,.4-.1.8-.1,1.3a5.28,5.28,0,0,0,.1,1.3c.1.4.1.6.2.9s.3.4.5.6a1.7,1.7,0,0,0,1.6,0C262,293.69,262.06,293.39,262.26,293.19Z"/><path id="path245" class="cls-11" d="M269.86,291a5.46,5.46,0,0,1-.6,2.9,2.46,2.46,0,0,1-3.8,0,5.46,5.46,0,0,1-.6-2.9,5.7,5.7,0,0,1,.6-2.9,2.46,2.46,0,0,1,3.8,0A5.46,5.46,0,0,1,269.86,291Zm-1.3,2.2a2.92,2.92,0,0,0,.2-.9c0-.4.1-.8.1-1.3a5.28,5.28,0,0,0-.1-1.3,2,2,0,0,0-.2-.9c-.1-.3-.3-.4-.5-.6a1.55,1.55,0,0,0-.8-.2,1.88,1.88,0,0,0-.8.2,1,1,0,0,0-.5.6,2.39,2.39,0,0,0-.2.9c0,.4-.1.8-.1,1.3a5.28,5.28,0,0,0,.1,1.3c.1.4.1.6.2.9s.3.4.5.6a1.7,1.7,0,0,0,1.6,0A1.47,1.47,0,0,0,268.56,293.19Z"/></g><g id="g247"><path id="path249" class="cls-11" d="M211.06,292.59H210v2h-.9v-2h-3.5v-1.1l3.5-4.1h.9v4.4h1.1v.8Zm-2.1-.8v-3.3l-2.8,3.3Z"/><path id="path251" class="cls-11" d="M220.76,294.59h-4.9v-1c.3-.3.7-.6,1-.9s.7-.6,1-.9a13.18,13.18,0,0,0,1.3-1.4,2.38,2.38,0,0,0,.3-1.2,1,1,0,0,0-.4-.9,1.49,1.49,0,0,0-1-.3,4.4,4.4,0,0,0-1,.2,4.67,4.67,0,0,0-1,.5h0v-1a4.65,4.65,0,0,1,.9-.3,4.48,4.48,0,0,1,1.1-.1,3.45,3.45,0,0,1,1.8.5,1.89,1.89,0,0,1,.6,1.5,2.2,2.2,0,0,1-.1.8c-.1.2-.2.5-.3.7s-.3.4-.4.6-.4.4-.6.6a11,11,0,0,1-1.1,1,9,9,0,0,0-1,.9h3.9v.7Z"/><path id="path253" class="cls-11" d="M227.06,291a5.46,5.46,0,0,1-.6,2.9,2.46,2.46,0,0,1-3.8,0,5.46,5.46,0,0,1-.6-2.9,5.7,5.7,0,0,1,.6-2.9,2.46,2.46,0,0,1,3.8,0A5.46,5.46,0,0,1,227.06,291Zm-1.3,2.2a2.92,2.92,0,0,0,.2-.9c0-.4.1-.8.1-1.3a5.28,5.28,0,0,0-.1-1.3,2,2,0,0,0-.2-.9c-.1-.3-.3-.4-.5-.6a1.7,1.7,0,0,0-1.6,0,1,1,0,0,0-.5.6,2.39,2.39,0,0,0-.2.9c0,.4-.1.8-.1,1.3a5.28,5.28,0,0,0,.1,1.3,2.92,2.92,0,0,0,.2.9c.1.3.3.4.5.6a1.7,1.7,0,0,0,1.6,0A1.33,1.33,0,0,0,225.76,293.19Z"/><path id="path255" class="cls-11" d="M233.46,291a5.46,5.46,0,0,1-.6,2.9,2.46,2.46,0,0,1-3.8,0,5.46,5.46,0,0,1-.6-2.9,5.7,5.7,0,0,1,.6-2.9,2.46,2.46,0,0,1,3.8,0A5.46,5.46,0,0,1,233.46,291Zm-1.3,2.2a2.92,2.92,0,0,0,.2-.9c0-.4.1-.8.1-1.3a5.28,5.28,0,0,0-.1-1.3,2,2,0,0,0-.2-.9c-.1-.3-.3-.4-.5-.6a1.7,1.7,0,0,0-1.6,0,1,1,0,0,0-.5.6,2.39,2.39,0,0,0-.2.9c0,.4-.1.8-.1,1.3a5.28,5.28,0,0,0,.1,1.3,2.92,2.92,0,0,0,.2.9c.1.3.3.4.5.6a1.7,1.7,0,0,0,1.6,0A2.65,2.65,0,0,0,232.16,293.19Z"/></g><line id="line385" class="cls-1" x1="18.66" y1="36.99" x2="14.36" y2="36.99"/><g id="g387"><text class="cls-2" transform="translate(-0.14 43.14)">7</text></g><g id="g118"><line id="line120" class="cls-4" x1="14.3" y1="72.75" x2="16.52" y2="72.75"/><line id="line122" class="cls-12" x1="21.91" y1="72.75" x2="215.73" y2="72.75"/><polyline id="polyline124" class="cls-4" points="218.38 72.75 220.7 72.75 220.7 74.98"/><line id="line126" class="cls-13" x1="220.7" y1="80.15" x2="220.7" y2="275.55"/><line id="line128" class="cls-4" x1="220.7" y1="278.09" x2="220.7" y2="280.32"/></g><line id="line342-1" class="cls-14" x1="156.56" y1="8.89" x2="338.86" y2="193.59"/><text class="cls-9" transform="translate(340.8 205.11)">D</text><text class="cls-15" transform="translate(350.62 211.56)">1</text><text class="cls-2" transform="translate(209.74 59.58)">E</text><text class="cls-16" transform="translate(219.2 64.56)">1</text><circle id="circle219-4" class="cls-11" cx="220.86" cy="73.19" r="3"/><line id="line144-6" class="cls-1" x1="289.36" y1="276.89" x2="289.36" y2="281.29"/><g id="g275"><path id="path277" class="cls-11" d="M283.56,292.29a3.55,3.55,0,0,1-.2,1,2.1,2.1,0,0,1-1.3,1.3,3.59,3.59,0,0,1-1.1.2,3.75,3.75,0,0,1-1.1-.1,4.65,4.65,0,0,1-.9-.3v-1h.1a3.55,3.55,0,0,0,.9.4,4.25,4.25,0,0,0,1.1.2,1.7,1.7,0,0,0,.7-.1l.6-.3a.85.85,0,0,0,.3-.5c0-.2.1-.4.1-.7s0-.5-.1-.6a.78.78,0,0,0-.4-.4l-.6-.3a3.25,3.25,0,0,0-1.6,0c-.3,0-.5.1-.7.1v-3.7h4.4v.9h-3.4v1.9h.8a3.08,3.08,0,0,1,1,.1,2,2,0,0,1,.8.4,1.34,1.34,0,0,1,.6.7C283.46,291.49,283.56,291.89,283.56,292.29Z"/><path id="path279" class="cls-11" d="M293.66,292.59h-1.1v2h-.9v-2h-3.5v-1.1l3.5-4.1h.9v4.4h1.1v.8Zm-2-.8v-3.3l-2.8,3.3Z"/><path id="path281" class="cls-11" d="M299.86,291a5.46,5.46,0,0,1-.6,2.9,2.46,2.46,0,0,1-3.8,0,5.46,5.46,0,0,1-.6-2.9,5.7,5.7,0,0,1,.6-2.9,2.46,2.46,0,0,1,3.8,0A5.46,5.46,0,0,1,299.86,291Zm-1.3,2.2a2.92,2.92,0,0,0,.2-.9c0-.4.1-.8.1-1.3a5.28,5.28,0,0,0-.1-1.3,2,2,0,0,0-.2-.9c-.1-.3-.3-.4-.5-.6a1.7,1.7,0,0,0-1.6,0,1,1,0,0,0-.5.6,2.39,2.39,0,0,0-.2.9c0,.4-.1.8-.1,1.3a5.28,5.28,0,0,0,.1,1.3,2.92,2.92,0,0,0,.2.9c.1.3.3.4.5.6a1.7,1.7,0,0,0,1.6,0A2.65,2.65,0,0,0,298.56,293.19Z"/><path id="path283" class="cls-11" d="M306.26,291a5.46,5.46,0,0,1-.6,2.9,2.46,2.46,0,0,1-3.8,0,5.46,5.46,0,0,1-.6-2.9,5.7,5.7,0,0,1,.6-2.9,2.46,2.46,0,0,1,3.8,0A5.46,5.46,0,0,1,306.26,291Zm-1.3,2.2a2.92,2.92,0,0,0,.2-.9c0-.4.1-.8.1-1.3a5.28,5.28,0,0,0-.1-1.3,2,2,0,0,0-.2-.9c-.1-.3-.3-.4-.5-.6a1.7,1.7,0,0,0-1.6,0,1,1,0,0,0-.5.6,2.39,2.39,0,0,0-.2.9c0,.4-.1.8-.1,1.3a5.28,5.28,0,0,0,.1,1.3,2.92,2.92,0,0,0,.2.9c.1.3.3.4.5.6a1.7,1.7,0,0,0,1.6,0A2.65,2.65,0,0,0,305,293.19Z"/></g><g id="g159"><g id="g161"><line id="line163" class="cls-4" x1="289.29" y1="146.15" x2="289.29" y2="148.35"/><line id="line165" class="cls-17" x1="289.29" y1="153.45" x2="289.29" y2="273.05"/><line id="line167" class="cls-4" x1="289.29" y1="275.65" x2="289.29" y2="277.85"/></g></g><line id="line169" class="cls-18" x1="147.86" y1="144.89" x2="288.86" y2="144.89"/><circle id="circle219-4-6" class="cls-11" cx="289.56" cy="144.29" r="3"/><line id="line342" class="cls-19" x1="28.36" y1="23.19" x2="266.66" y2="264.59"/><circle id="circle219" class="cls-11" cx="149.16" cy="144.89" r="3"/></g></g><g id="Layer_4" data-name="Layer 4"><polygon id="rect236" class="cls-20" points="168.4 155.96 271.6 156.64 271.94 177.42 183.34 177.59 168.4 155.96"/><text class="cls-21" transform="translate(177.31 166.21)">E<tspan class="cls-22" x="7.59" y="0">x</tspan><tspan x="14.57" y="0">cess demand</tspan></text><text class="cls-21" transform="translate(201.63 179.39)">2 400</text></g></svg>