<svg id="svg2" xmlns="http://www.w3.org/2000/svg" viewBox="0 0 351.53 299.54"><defs><style>.cls-1,.cls-10,.cls-12,.cls-13,.cls-18,.cls-19,.cls-6,.cls-7,.cls-8,.cls-9{fill:none;stroke-miterlimit:10;}.cls-1,.cls-10,.cls-18,.cls-6,.cls-7,.cls-8,.cls-9{stroke:#4d4d4d;}.cls-1{stroke-width:2.16px;}.cls-11,.cls-14,.cls-15,.cls-16,.cls-2,.cls-22,.cls-23,.cls-24,.cls-25,.cls-3,.cls-4{isolation:isolate;}.cls-11,.cls-14,.cls-2,.cls-4{font-size:16px;}.cls-16,.cls-17,.cls-2,.cls-22{fill:#4d4d4d;}.cls-11,.cls-14,.cls-15,.cls-16,.cls-2,.cls-21,.cls-22,.cls-24,.cls-3,.cls-4{font-family:Verdana, Verdana;}.cls-21,.cls-22,.cls-3{font-size:12.5px;}.cls-21,.cls-3,.cls-4{fill:#4d4d4e;}.cls-5{fill:#fff;}.cls-10,.cls-18,.cls-6,.cls-7,.cls-8,.cls-9{stroke-width:1.4px;}.cls-7{stroke-dasharray:4.23 5.08;}.cls-8{stroke-dasharray:4.37 5.24;}.cls-9{stroke-dasharray:4.36 5.23;}.cls-10{stroke-dasharray:4.32 5.19;}.cls-11{fill:#449a77;}.cls-12{stroke:#449a77;stroke-width:2.12px;}.cls-13,.cls-19{stroke:#3e7bbe;}.cls-13{stroke-width:2.69px;}.cls-14,.cls-15{fill:#3e7bbe;}.cls-15,.cls-16{font-size:11.08px;}.cls-18{stroke-dasharray:4.27 5.13;}.cls-19{stroke-width:2.54px;}.cls-20{stroke:#96201e;stroke-width:1.7px;}.cls-24{font-size:11.22px;}.cls-25{opacity:0;}</style></defs><title>[UECA-1124][4] cds12c</title><polyline id="polyline61" class="cls-1" points="349.61 279.82 30.8 279.82 30.8 0.92"/><text class="cls-2" transform="translate(16.84 12.21)">P</text><g id="g65"><text class="cls-2" transform="translate(20 294.62)">0</text></g><text class="cls-2" transform="translate(338.04 295.9)">Q</text><text class="cls-3" transform="translate(71.28 292.63) rotate(-0.07)">1 200</text><text class="cls-3" transform="translate(282.71 292.63) rotate(-0.07)">3 600</text><line id="line191" class="cls-1" x1="296.3" y1="275.42" x2="296.3" y2="279.72"/><line id="line193" class="cls-1" x1="244.14" y1="275.42" x2="244.14" y2="279.72"/><line id="line195" class="cls-1" x1="191.2" y1="275.32" x2="191.2" y2="279.62"/><line id="line197" class="cls-1" x1="138.7" y1="275.42" x2="138.7" y2="279.72"/><line id="line199" class="cls-1" x1="86.2" y1="275.42" x2="86.2" y2="279.72"/><text class="cls-4" transform="translate(16.45 30.42) rotate(-0.07)">6</text><text class="cls-4" transform="translate(16.45 72.69) rotate(-0.07)">5</text><text class="cls-4" transform="translate(16.45 157.24) rotate(-0.07)">3</text><text class="cls-4" transform="translate(16.45 114.97) rotate(-0.07)">4</text><text class="cls-4" transform="translate(16.45 200.73) rotate(-0.07)">2</text><text class="cls-4" transform="translate(17.82 242.67) rotate(-0.07)">1</text><line id="line201" class="cls-1" x1="35.1" y1="237.01" x2="30.8" y2="237.01"/><line id="line203" class="cls-1" x1="35.1" y1="194.65" x2="30.8" y2="194.65"/><line id="line205" class="cls-1" x1="35.1" y1="152.3" x2="30.8" y2="152.3"/><line id="line211" class="cls-1" x1="35.1" y1="67.58" x2="30.8" y2="67.58"/><line id="line213" class="cls-1" x1="35.1" y1="25.22" x2="30.8" y2="25.22"/><rect id="rect215" class="cls-5" x="37.5" y="32.61" width="5.6" height="6.2"/><g id="g137"><g id="g139"><line id="line141" class="cls-6" x1="32.95" y1="152.14" x2="35.05" y2="152.14"/><line id="line143" class="cls-7" x1="40.15" y1="152.14" x2="186.46" y2="152.14"/><polyline id="polyline145" class="cls-6" points="189.06 152.14 191.16 152.14 191.16 154.84"/><line id="line147" class="cls-8" x1="191.16" y1="161.65" x2="191.16" y2="269.43"/><line id="line149" class="cls-6" x1="191.16" y1="272.77" x2="191.16" y2="275.6"/></g></g><g id="g151"><g id="g153"><line id="line155" class="cls-6" x1="32.94" y1="110.56" x2="35.04" y2="110.56"/><line id="line157" class="cls-9" x1="40.34" y1="110.56" x2="238.97" y2="110.44"/><polyline id="polyline159" class="cls-6" points="241.56 110.44 243.66 110.44 243.66 113.17"/><line id="line161" class="cls-10" x1="243.66" y1="119.63" x2="243.66" y2="269.97"/><line id="line163" class="cls-6" x1="243.66" y1="273.2" x2="243.66" y2="275.94"/></g></g><text class="cls-11" transform="translate(336.43 38.05)">S</text><line id="line167" class="cls-12" x1="335.81" y1="40.71" x2="116.65" y2="211.38"/><line id="line169" class="cls-13" x1="49.04" y1="39.87" x2="291.16" y2="232.9"/><text class="cls-14" transform="translate(291.07 244.84)">D</text><text class="cls-15" transform="translate(303.39 251.17)">1</text><text class="cls-2" transform="translate(203.59 158.54)">E</text><rect id="rect3732" class="cls-5" x="212.8" y="150.72" width="15.5" height="16.5"/><text class="cls-16" transform="translate(213.71 164.87)">1</text><text class="cls-2" transform="translate(254.95 115.85)">E</text><text class="cls-14" transform="translate(338.87 196.88)">D</text><circle id="circle187" class="cls-17" cx="190.95" cy="151.99" r="3"/><g id="g159"><g id="g161"><line id="line163-9" class="cls-6" x1="138.47" y1="116.85" x2="138.47" y2="119.48"/><line id="line165" class="cls-18" x1="138.47" y1="125.59" x2="138.47" y2="268.78"/><line id="line167-1" class="cls-6" x1="138.47" y1="271.89" x2="138.47" y2="274.52"/></g></g><line id="line203-2" class="cls-1" x1="35.2" y1="109.94" x2="30.9" y2="109.94"/><line id="line169-8" class="cls-19" x1="109.15" y1="4.16" x2="338.22" y2="186.55"/><path id="path4582" class="cls-20" d="M138.41,110.41H243.78"/><circle id="circle189-2" class="cls-17" cx="138.2" cy="109.99" r="3"/><circle id="circle189" class="cls-17" cx="243.93" cy="110.85" r="3"/><text class="cls-21" transform="translate(229.41 293.39) rotate(-0.07)">3 000</text><text class="cls-22" transform="translate(124.05 293.39) rotate(-0.07)">1 800</text><text class="cls-3" transform="translate(177.18 293.39) rotate(-0.07)">2 400</text><rect id="rect3732-6" class="cls-5" x="162.86" y="86.54" width="69.58" height="16.5"/><g class="cls-23"><text class="cls-24" transform="translate(150.73 96.38) scale(1.02 1)">E</text><text class="cls-24" transform="translate(157.97 96.38) scale(1.02 1)">x</text><text class="cls-24" transform="translate(164.63 96.38) scale(1.02 1)">cess supply</text></g><text class="cls-24" transform="translate(172.08 107.37) scale(1.02 1)">1 200</text><g id="text148" class="cls-25"><path class="cls-17" d="M7.52,129.4a2.62,2.62,0,0,1,.62.84,3.08,3.08,0,0,1,.24,1.31A3.65,3.65,0,0,1,8.1,133a3.49,3.49,0,0,1-.81,1.16,3.72,3.72,0,0,1-1.38.81,5.53,5.53,0,0,1-1.74.26A7.88,7.88,0,0,1,2.26,135a8.78,8.78,0,0,1-1.54-.5v-1.63H.84a6.35,6.35,0,0,0,1.56.73,5.64,5.64,0,0,0,1.74.29,3.74,3.74,0,0,0,1-.16,2.2,2.2,0,0,0,.9-.49,2.27,2.27,0,0,0,.53-.76,2.7,2.7,0,0,0,.18-1,2.35,2.35,0,0,0-.2-1,1.6,1.6,0,0,0-.55-.65,2.16,2.16,0,0,0-.85-.33,6,6,0,0,0-1.08-.09H3.4V128h.55a3.24,3.24,0,0,0,1.89-.5,1.66,1.66,0,0,0,.71-1.45,1.42,1.42,0,0,0-.68-1.26,2.22,2.22,0,0,0-.72-.28,4.29,4.29,0,0,0-.87-.08,5.19,5.19,0,0,0-1.58.27,6.4,6.4,0,0,0-1.58.75H1v-1.63a7.46,7.46,0,0,1,1.48-.51,7.39,7.39,0,0,1,1.79-.23,6.41,6.41,0,0,1,1.5.15,3.71,3.71,0,0,1,1.17.5,2.42,2.42,0,0,1,1.14,2.15,2.38,2.38,0,0,1-.68,1.69,3,3,0,0,1-1.61.91v.11a4,4,0,0,1,.86.26A2.88,2.88,0,0,1,7.52,129.4Z"/><path class="cls-17" d="M14.08,132.77l-2.2,5.12H10.74l1.35-5.12Z"/><path class="cls-17" d="M24.44,131.28a4.15,4.15,0,0,1-.3,1.55,3.6,3.6,0,0,1-.81,1.25,3.85,3.85,0,0,1-1.34.84,5.1,5.1,0,0,1-1.8.29,8.3,8.3,0,0,1-1.84-.2,7.63,7.63,0,0,1-1.49-.48V132.9H17a6.73,6.73,0,0,0,1.5.69,5.31,5.31,0,0,0,1.69.28,3.71,3.71,0,0,0,1.07-.16,2.26,2.26,0,0,0,.92-.55,2.19,2.19,0,0,0,.52-.81,3.07,3.07,0,0,0,.17-1.09,2.26,2.26,0,0,0-.21-1,1.72,1.72,0,0,0-.58-.66,2.53,2.53,0,0,0-1-.42,6.4,6.4,0,0,0-1.3-.12,9,9,0,0,0-1.32.1q-.64.09-1.1.19v-6h7v1.37H18.87v3.09l.69,0,.61,0a7.65,7.65,0,0,1,1.66.16,3.76,3.76,0,0,1,1.31.56,2.93,2.93,0,0,1,1,1.11A3.76,3.76,0,0,1,24.44,131.28Z"/></g></svg>