<?xml version="1.0" encoding="UTF-8" standalone="no"?>
<!-- Created with Inkscape (http://www.inkscape.org/) -->

<svg
   xmlns:dc="http://purl.org/dc/elements/1.1/"
   xmlns:cc="http://creativecommons.org/ns#"
   xmlns:rdf="http://www.w3.org/1999/02/22-rdf-syntax-ns#"
   xmlns:svg="http://www.w3.org/2000/svg"
   xmlns="http://www.w3.org/2000/svg"
   xmlns:sodipodi="http://sodipodi.sourceforge.net/DTD/sodipodi-0.dtd"
   xmlns:inkscape="http://www.inkscape.org/namespaces/inkscape"
   id="svg5056"
   version="1.1"
   inkscape:version="0.91 r13725"
   xml:space="preserve"
   width="567"
   height="265.79999"
   viewBox="0 0 567 265.79999"
   sodipodi:docname="ELA220Table.svg"><metadata
     id="metadata5062"><rdf:RDF><cc:Work
         rdf:about=""><dc:format>image/svg+xml</dc:format><dc:type
           rdf:resource="http://purl.org/dc/dcmitype/StillImage" /><dc:title></dc:title></cc:Work></rdf:RDF></metadata><defs
     id="defs5060"><clipPath
       clipPathUnits="userSpaceOnUse"
       id="clipPath5070"><path
         d="m 9.0013,141.91 139.73,0 0,56.085 -139.73,0 0,-56.085 z"
         id="path5072"
         inkscape:connector-curvature="0"
         style="clip-rule:evenodd" /></clipPath><clipPath
       clipPathUnits="userSpaceOnUse"
       id="clipPath5078"><path
         d="m 9,141.91 139.73,0 0,56.088 -139.73,0 0,-56.088 z"
         id="path5080"
         inkscape:connector-curvature="0"
         style="clip-rule:evenodd" /></clipPath><clipPath
       clipPathUnits="userSpaceOnUse"
       id="clipPath5086"><path
         d="m 149.21,141.91 84.51,0 0,56.085 -84.51,0 0,-56.085 z"
         id="path5088"
         inkscape:connector-curvature="0"
         style="clip-rule:evenodd" /></clipPath><clipPath
       clipPathUnits="userSpaceOnUse"
       id="clipPath5094"><path
         d="m 149.21,141.91 84.504,0 0,56.088 -84.504,0 0,-56.088 z"
         id="path5096"
         inkscape:connector-curvature="0"
         style="clip-rule:evenodd" /></clipPath><clipPath
       clipPathUnits="userSpaceOnUse"
       id="clipPath5106"><path
         d="m 149.21,141.91 84.504,0 0,56.088 -84.504,0 0,-56.088 z"
         id="path5108"
         inkscape:connector-curvature="0"
         style="clip-rule:evenodd" /></clipPath><clipPath
       clipPathUnits="userSpaceOnUse"
       id="clipPath5114"><path
         d="m 234.32,141.91 84.495,0 0,56.085 -84.495,0 0,-56.085 z"
         id="path5116"
         inkscape:connector-curvature="0"
         style="clip-rule:evenodd" /></clipPath><clipPath
       clipPathUnits="userSpaceOnUse"
       id="clipPath5122"><path
         d="m 234.31,141.91 84.504,0 0,56.088 -84.504,0 0,-56.088 z"
         id="path5124"
         inkscape:connector-curvature="0"
         style="clip-rule:evenodd" /></clipPath><clipPath
       clipPathUnits="userSpaceOnUse"
       id="clipPath5134"><path
         d="m 234.31,141.91 84.504,0 0,56.088 -84.504,0 0,-56.088 z"
         id="path5136"
         inkscape:connector-curvature="0"
         style="clip-rule:evenodd" /></clipPath><clipPath
       clipPathUnits="userSpaceOnUse"
       id="clipPath5146"><path
         d="m 234.31,141.91 84.504,0 0,56.088 -84.504,0 0,-56.088 z"
         id="path5148"
         inkscape:connector-curvature="0"
         style="clip-rule:evenodd" /></clipPath><clipPath
       clipPathUnits="userSpaceOnUse"
       id="clipPath5154"><path
         d="m 234.31,141.91 84.504,0 0,56.088 -84.504,0 0,-56.088 z"
         id="path5156"
         inkscape:connector-curvature="0"
         style="clip-rule:evenodd" /></clipPath><clipPath
       clipPathUnits="userSpaceOnUse"
       id="clipPath5166"><path
         d="m 234.31,141.91 84.504,0 0,56.088 -84.504,0 0,-56.088 z"
         id="path5168"
         inkscape:connector-curvature="0"
         style="clip-rule:evenodd" /></clipPath><clipPath
       clipPathUnits="userSpaceOnUse"
       id="clipPath5174"><path
         d="m 319.29,141.91 127.11,0 0,56.085 -127.11,0 0,-56.085 z"
         id="path5176"
         inkscape:connector-curvature="0"
         style="clip-rule:evenodd" /></clipPath><clipPath
       clipPathUnits="userSpaceOnUse"
       id="clipPath5182"><path
         d="m 319.3,141.91 127.1,0 0,56.088 -127.1,0 0,-56.088 z"
         id="path5184"
         inkscape:connector-curvature="0"
         style="clip-rule:evenodd" /></clipPath><clipPath
       clipPathUnits="userSpaceOnUse"
       id="clipPath5194"><path
         d="m 319.3,141.91 127.1,0 0,56.088 -127.1,0 0,-56.088 z"
         id="path5196"
         inkscape:connector-curvature="0"
         style="clip-rule:evenodd" /></clipPath><clipPath
       clipPathUnits="userSpaceOnUse"
       id="clipPath5206"><path
         d="m 319.3,141.91 127.1,0 0,56.088 -127.1,0 0,-56.088 z"
         id="path5208"
         inkscape:connector-curvature="0"
         style="clip-rule:evenodd" /></clipPath><clipPath
       clipPathUnits="userSpaceOnUse"
       id="clipPath5214"><path
         d="m 319.3,141.91 127.1,0 0,56.088 -127.1,0 0,-56.088 z"
         id="path5216"
         inkscape:connector-curvature="0"
         style="clip-rule:evenodd" /></clipPath><clipPath
       clipPathUnits="userSpaceOnUse"
       id="clipPath5226"><path
         d="m 319.3,141.91 127.1,0 0,56.088 -127.1,0 0,-56.088 z"
         id="path5228"
         inkscape:connector-curvature="0"
         style="clip-rule:evenodd" /></clipPath><clipPath
       clipPathUnits="userSpaceOnUse"
       id="clipPath5266"><path
         d="m 9.0013,84.644 139.73,0 0,56.79 -139.73,0 0,-56.79 z"
         id="path5268"
         inkscape:connector-curvature="0"
         style="clip-rule:evenodd" /></clipPath><clipPath
       clipPathUnits="userSpaceOnUse"
       id="clipPath5274"><path
         d="m 9,84.648 139.73,0 0,56.784 -139.73,0 0,-56.784 z"
         id="path5276"
         inkscape:connector-curvature="0"
         style="clip-rule:evenodd" /></clipPath><clipPath
       clipPathUnits="userSpaceOnUse"
       id="clipPath5286"><path
         d="m 9,84.648 139.73,0 0,56.784 -139.73,0 0,-56.784 z"
         id="path5288"
         inkscape:connector-curvature="0"
         style="clip-rule:evenodd" /></clipPath><clipPath
       clipPathUnits="userSpaceOnUse"
       id="clipPath5298"><path
         d="m 9,84.648 139.73,0 0,56.784 -139.73,0 0,-56.784 z"
         id="path5300"
         inkscape:connector-curvature="0"
         style="clip-rule:evenodd" /></clipPath><clipPath
       clipPathUnits="userSpaceOnUse"
       id="clipPath5306"><path
         d="m 149.21,84.644 84.51,0 0,56.79 -84.51,0 0,-56.79 z"
         id="path5308"
         inkscape:connector-curvature="0"
         style="clip-rule:evenodd" /></clipPath><clipPath
       clipPathUnits="userSpaceOnUse"
       id="clipPath5314"><path
         d="m 149.21,84.648 84.504,0 0,56.784 -84.504,0 0,-56.784 z"
         id="path5316"
         inkscape:connector-curvature="0"
         style="clip-rule:evenodd" /></clipPath><clipPath
       clipPathUnits="userSpaceOnUse"
       id="clipPath5326"><path
         d="m 149.21,84.648 84.504,0 0,56.784 -84.504,0 0,-56.784 z"
         id="path5328"
         inkscape:connector-curvature="0"
         style="clip-rule:evenodd" /></clipPath><clipPath
       clipPathUnits="userSpaceOnUse"
       id="clipPath5334"><path
         d="m 234.32,84.644 84.495,0 0,56.79 -84.495,0 0,-56.79 z"
         id="path5336"
         inkscape:connector-curvature="0"
         style="clip-rule:evenodd" /></clipPath><clipPath
       clipPathUnits="userSpaceOnUse"
       id="clipPath5342"><path
         d="m 234.31,84.648 84.504,0 0,56.784 -84.504,0 0,-56.784 z"
         id="path5344"
         inkscape:connector-curvature="0"
         style="clip-rule:evenodd" /></clipPath><clipPath
       clipPathUnits="userSpaceOnUse"
       id="clipPath5354"><path
         d="m 234.31,84.648 84.504,0 0,56.784 -84.504,0 0,-56.784 z"
         id="path5356"
         inkscape:connector-curvature="0"
         style="clip-rule:evenodd" /></clipPath><clipPath
       clipPathUnits="userSpaceOnUse"
       id="clipPath5362"><path
         d="m 319.29,84.644 127.11,0 0,56.79 -127.11,0 0,-56.79 z"
         id="path5364"
         inkscape:connector-curvature="0"
         style="clip-rule:evenodd" /></clipPath><clipPath
       clipPathUnits="userSpaceOnUse"
       id="clipPath5370"><path
         d="m 319.3,84.648 127.1,0 0,56.784 -127.1,0 0,-56.784 z"
         id="path5372"
         inkscape:connector-curvature="0"
         style="clip-rule:evenodd" /></clipPath><clipPath
       clipPathUnits="userSpaceOnUse"
       id="clipPath5382"><path
         d="m 319.3,84.648 127.1,0 0,56.784 -127.1,0 0,-56.784 z"
         id="path5384"
         inkscape:connector-curvature="0"
         style="clip-rule:evenodd" /></clipPath><clipPath
       clipPathUnits="userSpaceOnUse"
       id="clipPath5418"><path
         d="m 9.0013,27.509 139.73,0 0,56.655 -139.73,0 0,-56.655 z"
         id="path5420"
         inkscape:connector-curvature="0"
         style="clip-rule:evenodd" /></clipPath><clipPath
       clipPathUnits="userSpaceOnUse"
       id="clipPath5426"><path
         d="m 9,27.504 139.73,0 0,56.664 -139.73,0 0,-56.664 z"
         id="path5428"
         inkscape:connector-curvature="0"
         style="clip-rule:evenodd" /></clipPath><clipPath
       clipPathUnits="userSpaceOnUse"
       id="clipPath5438"><path
         d="m 9,27.504 139.73,0 0,56.664 -139.73,0 0,-56.664 z"
         id="path5440"
         inkscape:connector-curvature="0"
         style="clip-rule:evenodd" /></clipPath><clipPath
       clipPathUnits="userSpaceOnUse"
       id="clipPath5450"><path
         d="m 9,27.504 139.73,0 0,56.664 -139.73,0 0,-56.664 z"
         id="path5452"
         inkscape:connector-curvature="0"
         style="clip-rule:evenodd" /></clipPath><clipPath
       clipPathUnits="userSpaceOnUse"
       id="clipPath5458"><path
         d="m 149.21,27.509 84.51,0 0,56.655 -84.51,0 0,-56.655 z"
         id="path5460"
         inkscape:connector-curvature="0"
         style="clip-rule:evenodd" /></clipPath><clipPath
       clipPathUnits="userSpaceOnUse"
       id="clipPath5466"><path
         d="m 149.21,27.504 84.504,0 0,56.664 -84.504,0 0,-56.664 z"
         id="path5468"
         inkscape:connector-curvature="0"
         style="clip-rule:evenodd" /></clipPath><clipPath
       clipPathUnits="userSpaceOnUse"
       id="clipPath5478"><path
         d="m 149.21,27.504 84.504,0 0,56.664 -84.504,0 0,-56.664 z"
         id="path5480"
         inkscape:connector-curvature="0"
         style="clip-rule:evenodd" /></clipPath><clipPath
       clipPathUnits="userSpaceOnUse"
       id="clipPath5486"><path
         d="m 234.32,27.509 84.495,0 0,56.655 -84.495,0 0,-56.655 z"
         id="path5488"
         inkscape:connector-curvature="0"
         style="clip-rule:evenodd" /></clipPath><clipPath
       clipPathUnits="userSpaceOnUse"
       id="clipPath5494"><path
         d="m 234.31,27.504 84.504,0 0,56.664 -84.504,0 0,-56.664 z"
         id="path5496"
         inkscape:connector-curvature="0"
         style="clip-rule:evenodd" /></clipPath><clipPath
       clipPathUnits="userSpaceOnUse"
       id="clipPath5506"><path
         d="m 234.31,27.504 84.504,0 0,56.664 -84.504,0 0,-56.664 z"
         id="path5508"
         inkscape:connector-curvature="0"
         style="clip-rule:evenodd" /></clipPath><clipPath
       clipPathUnits="userSpaceOnUse"
       id="clipPath5514"><path
         d="m 319.29,27.509 127.11,0 0,56.655 -127.11,0 0,-56.655 z"
         id="path5516"
         inkscape:connector-curvature="0"
         style="clip-rule:evenodd" /></clipPath><clipPath
       clipPathUnits="userSpaceOnUse"
       id="clipPath5522"><path
         d="m 319.3,27.504 127.1,0 0,56.664 -127.1,0 0,-56.664 z"
         id="path5524"
         inkscape:connector-curvature="0"
         style="clip-rule:evenodd" /></clipPath><clipPath
       clipPathUnits="userSpaceOnUse"
       id="clipPath5534"><path
         d="m 319.3,27.504 127.1,0 0,56.664 -127.1,0 0,-56.664 z"
         id="path5536"
         inkscape:connector-curvature="0"
         style="clip-rule:evenodd" /></clipPath></defs><sodipodi:namedview
     pagecolor="#ffffff"
     bordercolor="#666666"
     borderopacity="1"
     objecttolerance="10"
     gridtolerance="10"
     guidetolerance="10"
     inkscape:pageopacity="0"
     inkscape:pageshadow="2"
     inkscape:window-width="640"
     inkscape:window-height="480"
     id="namedview5058"
     showgrid="false"
     inkscape:zoom="0.63315697"
     inkscape:cx="283.5"
     inkscape:cy="132.89999"
     inkscape:window-x="0"
     inkscape:window-y="0"
     inkscape:window-maximized="0"
     inkscape:current-layer="g5064" /><g
     id="g5064"
     inkscape:groupmode="layer"
     inkscape:label="ELA220Table"
     transform="matrix(1.25,0,0,-1.25,0,265.8)"><g
       id="g5066"><g
         id="g5068"
         clip-path="url(#clipPath5070)"><g
           id="g5074"><g
             id="g5076"
             clip-path="url(#clipPath5078)" /></g></g></g><g
       id="g5082"><g
         id="g5084"
         clip-path="url(#clipPath5086)"><g
           id="g5090"><g
             id="g5092"
             clip-path="url(#clipPath5094)"><text
               transform="matrix(1,0,0,-1,164.81,164.5)"
               style="font-variant:normal;font-weight:normal;font-size:14.03999996px;font-family:Verdana;-inkscape-font-specification:Verdana;writing-mode:lr-tb;fill:#333333;fill-opacity:1;fill-rule:nonzero;stroke:none"
               id="text5098"><tspan
                 x="0 8.5082397 13.45032 19.67004 23.61528 32.502602 37.444679 47.132278"
                 y="0"
                 sodipodi:role="line"
                 id="tspan5100">P (in R)</tspan></text>
</g></g><g
           id="g5102"><g
             id="g5104"
             clip-path="url(#clipPath5106)" /></g></g></g><g
       id="g5110"><g
         id="g5112"
         clip-path="url(#clipPath5114)"><g
           id="g5118"><g
             id="g5120"
             clip-path="url(#clipPath5122)"><text
               transform="matrix(1,0,0,-1,240.67,164.5)"
               style="font-variant:normal;font-weight:normal;font-size:14.03999996px;font-family:Verdana;-inkscape-font-specification:Verdana;writing-mode:lr-tb;fill:#333333;fill-opacity:1;fill-rule:nonzero;stroke:none"
               id="text5126"><tspan
                 x="0"
                 y="0"
                 id="tspan5128">Q</tspan></text>
</g></g><g
           id="g5130"><g
             id="g5132"
             clip-path="url(#clipPath5134)"><text
               transform="matrix(1,0,0,-1,251.71,162.46)"
               style="font-variant:normal;font-weight:normal;font-size:9px;font-family:Verdana;-inkscape-font-specification:Verdana;writing-mode:lr-tb;fill:#333333;fill-opacity:1;fill-rule:nonzero;stroke:none"
               id="text5138"><tspan
                 x="0"
                 y="0"
                 id="tspan5140">d</tspan></text>
</g></g><g
           id="g5142"><g
             id="g5144"
             clip-path="url(#clipPath5146)" /></g><g
           id="g5150"><g
             id="g5152"
             clip-path="url(#clipPath5154)"><text
               transform="matrix(1,0,0,-1,262.27,164.5)"
               style="font-variant:normal;font-weight:normal;font-size:14.03999996px;font-family:Verdana;-inkscape-font-specification:Verdana;writing-mode:lr-tb;fill:#333333;fill-opacity:1;fill-rule:nonzero;stroke:none"
               id="text5158"><tspan
                 x="0 6.3741598 15.97752 24.23304 28.17828 36.54612 43.860958"
                 y="0"
                 sodipodi:role="line"
                 id="tspan5160">(Sales)</tspan></text>
</g></g><g
           id="g5162"><g
             id="g5164"
             clip-path="url(#clipPath5166)" /></g></g></g><g
       id="g5170"><g
         id="g5172"
         clip-path="url(#clipPath5174)"><g
           id="g5178"><g
             id="g5180"
             clip-path="url(#clipPath5182)"><text
               transform="matrix(1,0,0,-1,334.3,173.02)"
               style="font-variant:normal;font-weight:normal;font-size:14.03999996px;font-family:Verdana;-inkscape-font-specification:Verdana;writing-mode:lr-tb;fill:#000000;fill-opacity:1;fill-rule:nonzero;stroke:none"
               id="text5186"><tspan
                 x="0 8.6486397 17.170919 22.702681 31.08456 35.0298 39.971882 45.826561 54.194401 62.506081 70.78968 79.677002 88.564323 96.932159"
                 y="0"
                 sodipodi:role="line"
                 id="tspan5188">Total revenue </tspan></text>
</g></g><g
           id="g5190"><g
             id="g5192"
             clip-path="url(#clipPath5194)"><text
               transform="matrix(1,0,0,-1,328.06,155.98)"
               style="font-variant:normal;font-weight:normal;font-size:14.03999996px;font-family:Verdana;-inkscape-font-specification:Verdana;writing-mode:lr-tb;fill:#000000;fill-opacity:1;fill-rule:nonzero;stroke:none"
               id="text5198"><tspan
                 x="0 8.7469196 17.142839 23.13792 27.9396 39.42432 47.84832 56.21616"
                 y="0"
                 sodipodi:role="line"
                 id="tspan5200">per week</tspan></text>
</g></g><g
           id="g5202"><g
             id="g5204"
             clip-path="url(#clipPath5206)" /></g><g
           id="g5210"><g
             id="g5212"
             clip-path="url(#clipPath5214)"><text
               transform="matrix(1,0,0,-1,397.56,155.98)"
               style="font-variant:normal;font-weight:normal;font-size:14.03999996px;font-family:Verdana;-inkscape-font-specification:Verdana;writing-mode:lr-tb;fill:#000000;fill-opacity:1;fill-rule:nonzero;stroke:none"
               id="text5218"><tspan
                 x="0 6.2337599 10.08072 18.96804 23.91012 33.597721"
                 y="0"
                 sodipodi:role="line"
                 id="tspan5220">(in R)</tspan></text>
</g></g><g
           id="g5222"><g
             id="g5224"
             clip-path="url(#clipPath5226)" /></g></g></g><path
       d="m 8.52,198 0.48,0 0,0.48 -0.48,0 0,-0.48 z"
       style="fill:#000000;fill-opacity:1;fill-rule:evenodd;stroke:none"
       id="path5230"
       inkscape:connector-curvature="0" /><path
       d="m 8.52,198 0.48,0 0,0.48 -0.48,0 0,-0.48 z"
       style="fill:#000000;fill-opacity:1;fill-rule:evenodd;stroke:none"
       id="path5232"
       inkscape:connector-curvature="0" /><path
       d="m 9,198 139.73,0 0,0.48 L 9,198.48 9,198 Z"
       style="fill:#000000;fill-opacity:1;fill-rule:evenodd;stroke:none"
       id="path5234"
       inkscape:connector-curvature="0" /><path
       d="m 148.73,198 0.48,0 0,0.48 -0.48,0 0,-0.48 z"
       style="fill:#000000;fill-opacity:1;fill-rule:evenodd;stroke:none"
       id="path5236"
       inkscape:connector-curvature="0" /><path
       d="m 149.21,198 84.504,0 0,0.48 -84.504,0 0,-0.48 z"
       style="fill:#000000;fill-opacity:1;fill-rule:evenodd;stroke:none"
       id="path5238"
       inkscape:connector-curvature="0" /><path
       d="m 233.71,198 0.48001,0 0,0.48 -0.48001,0 0,-0.48 z"
       style="fill:#000000;fill-opacity:1;fill-rule:evenodd;stroke:none"
       id="path5240"
       inkscape:connector-curvature="0" /><path
       d="m 234.19,198 84.624,0 0,0.48 -84.624,0 0,-0.48 z"
       style="fill:#000000;fill-opacity:1;fill-rule:evenodd;stroke:none"
       id="path5242"
       inkscape:connector-curvature="0" /><path
       d="m 318.82,198 0.48001,0 0,0.48 -0.48001,0 0,-0.48 z"
       style="fill:#000000;fill-opacity:1;fill-rule:evenodd;stroke:none"
       id="path5244"
       inkscape:connector-curvature="0" /><path
       d="m 319.3,198 127.1,0 0,0.48 -127.1,0 0,-0.48 z"
       style="fill:#000000;fill-opacity:1;fill-rule:evenodd;stroke:none"
       id="path5246"
       inkscape:connector-curvature="0" /><path
       d="m 446.4,198 0.47998,0 0,0.48 -0.47998,0 0,-0.48 z"
       style="fill:#000000;fill-opacity:1;fill-rule:evenodd;stroke:none"
       id="path5248"
       inkscape:connector-curvature="0" /><path
       d="m 446.4,198 0.47998,0 0,0.48 -0.47998,0 0,-0.48 z"
       style="fill:#000000;fill-opacity:1;fill-rule:evenodd;stroke:none"
       id="path5250"
       inkscape:connector-curvature="0" /><path
       d="m 8.52,141.91 0.48,0 0,56.088 -0.48,0 0,-56.088 z"
       style="fill:#000000;fill-opacity:1;fill-rule:evenodd;stroke:none"
       id="path5252"
       inkscape:connector-curvature="0" /><path
       d="m 148.73,141.91 0.48,0 0,56.088 -0.48,0 0,-56.088 z"
       style="fill:#000000;fill-opacity:1;fill-rule:evenodd;stroke:none"
       id="path5254"
       inkscape:connector-curvature="0" /><path
       d="m 233.71,141.91 0.48001,0 0,56.088 -0.48001,0 0,-56.088 z"
       style="fill:#000000;fill-opacity:1;fill-rule:evenodd;stroke:none"
       id="path5256"
       inkscape:connector-curvature="0" /><path
       d="m 318.82,141.91 0.48001,0 0,56.088 -0.48001,0 0,-56.088 z"
       style="fill:#000000;fill-opacity:1;fill-rule:evenodd;stroke:none"
       id="path5258"
       inkscape:connector-curvature="0" /><path
       d="m 446.4,141.91 0.47998,0 0,56.088 -0.47998,0 0,-56.088 z"
       style="fill:#000000;fill-opacity:1;fill-rule:evenodd;stroke:none"
       id="path5260"
       inkscape:connector-curvature="0" /><g
       id="g5262"><g
         id="g5264"
         clip-path="url(#clipPath5266)"><g
           id="g5270"><g
             id="g5272"
             clip-path="url(#clipPath5274)"><text
               transform="matrix(1,0,0,-1,34.92,116.11)"
               style="font-variant:normal;font-weight:normal;font-size:14.03999996px;font-family:Verdana;-inkscape-font-specification:Verdana;writing-mode:lr-tb;fill:#000000;fill-opacity:1;fill-rule:nonzero;stroke:none"
               id="text5278"><tspan
                 x="0 13.88556 22.197241 30.565081 38.750401 42.695641 51.00732 55.893242 61.424999 69.947281 75.479042 83.734558 87.679802"
                 y="0"
                 sodipodi:role="line"
                 id="tspan5280">Weekly total </tspan></text>
</g></g><g
           id="g5282"><g
             id="g5284"
             clip-path="url(#clipPath5286)"><text
               transform="matrix(1,0,0,-1,24.6,99.048)"
               style="font-variant:normal;font-weight:normal;font-size:14.03999996px;font-family:Verdana;-inkscape-font-specification:Verdana;writing-mode:lr-tb;fill:#000000;fill-opacity:1;fill-rule:nonzero;stroke:none"
               id="text5290"><tspan
                 x="0 5.99508 14.36292 22.674601 31.04244 39.92976 48.7188 57.086639 62.028721 70.466759 75.99852 80.884438 90.642242 99.487442"
                 y="0"
                 sodipodi:role="line"
                 id="tspan5292">revenue at R30</tspan></text>
</g></g><g
           id="g5294"><g
             id="g5296"
             clip-path="url(#clipPath5298)" /></g></g></g><g
       id="g5302"><g
         id="g5304"
         clip-path="url(#clipPath5306)"><g
           id="g5310"><g
             id="g5312"
             clip-path="url(#clipPath5314)"><text
               transform="matrix(1,0,0,-1,187.25,107.59)"
               style="font-variant:normal;font-weight:normal;font-size:14.03999996px;font-family:Verdana;-inkscape-font-specification:Verdana;writing-mode:lr-tb;fill:#000000;fill-opacity:1;fill-rule:nonzero;stroke:none"
               id="text5318"><tspan
                 x="0"
                 y="0"
                 id="tspan5320">a</tspan></text>
</g></g><g
           id="g5322"><g
             id="g5324"
             clip-path="url(#clipPath5326)" /></g></g></g><g
       id="g5330"><g
         id="g5332"
         clip-path="url(#clipPath5334)"><g
           id="g5338"><g
             id="g5340"
             clip-path="url(#clipPath5342)"><text
               transform="matrix(1,0,0,-1,272.23,107.59)"
               style="font-variant:normal;font-weight:normal;font-size:14.03999996px;font-family:Verdana;-inkscape-font-specification:Verdana;writing-mode:lr-tb;fill:#000000;fill-opacity:1;fill-rule:nonzero;stroke:none"
               id="text5346"><tspan
                 x="0"
                 y="0"
                 id="tspan5348">b</tspan></text>
</g></g><g
           id="g5350"><g
             id="g5352"
             clip-path="url(#clipPath5354)" /></g></g></g><g
       id="g5358"><g
         id="g5360"
         clip-path="url(#clipPath5362)"><g
           id="g5366"><g
             id="g5368"
             clip-path="url(#clipPath5370)"><text
               transform="matrix(1,0,0,-1,379.2,107.59)"
               style="font-variant:normal;font-weight:normal;font-size:14.03999996px;font-family:Verdana;-inkscape-font-specification:Verdana;writing-mode:lr-tb;fill:#000000;fill-opacity:1;fill-rule:nonzero;stroke:none"
               id="text5374"><tspan
                 x="0"
                 y="0"
                 id="tspan5376">c</tspan></text>
</g></g><g
           id="g5378"><g
             id="g5380"
             clip-path="url(#clipPath5382)" /></g></g></g><path
       d="m 8.52,141.43 0.48,0 0,0.48 -0.48,0 0,-0.48 z"
       style="fill:#000000;fill-opacity:1;fill-rule:evenodd;stroke:none"
       id="path5386"
       inkscape:connector-curvature="0" /><path
       d="m 9,141.43 139.73,0 0,0.48 -139.73,0 0,-0.48 z"
       style="fill:#000000;fill-opacity:1;fill-rule:evenodd;stroke:none"
       id="path5388"
       inkscape:connector-curvature="0" /><path
       d="m 148.73,141.43 0.48,0 0,0.48 -0.48,0 0,-0.48 z"
       style="fill:#000000;fill-opacity:1;fill-rule:evenodd;stroke:none"
       id="path5390"
       inkscape:connector-curvature="0" /><path
       d="m 149.21,141.43 84.504,0 0,0.48 -84.504,0 0,-0.48 z"
       style="fill:#000000;fill-opacity:1;fill-rule:evenodd;stroke:none"
       id="path5392"
       inkscape:connector-curvature="0" /><path
       d="m 233.71,141.43 0.48001,0 0,0.48 -0.48001,0 0,-0.48 z"
       style="fill:#000000;fill-opacity:1;fill-rule:evenodd;stroke:none"
       id="path5394"
       inkscape:connector-curvature="0" /><path
       d="m 234.19,141.43 84.624,0 0,0.48 -84.624,0 0,-0.48 z"
       style="fill:#000000;fill-opacity:1;fill-rule:evenodd;stroke:none"
       id="path5396"
       inkscape:connector-curvature="0" /><path
       d="m 318.82,141.43 0.48001,0 0,0.48 -0.48001,0 0,-0.48 z"
       style="fill:#000000;fill-opacity:1;fill-rule:evenodd;stroke:none"
       id="path5398"
       inkscape:connector-curvature="0" /><path
       d="m 319.3,141.43 127.1,0 0,0.48 -127.1,0 0,-0.48 z"
       style="fill:#000000;fill-opacity:1;fill-rule:evenodd;stroke:none"
       id="path5400"
       inkscape:connector-curvature="0" /><path
       d="m 446.4,141.43 0.47998,0 0,0.48 -0.47998,0 0,-0.48 z"
       style="fill:#000000;fill-opacity:1;fill-rule:evenodd;stroke:none"
       id="path5402"
       inkscape:connector-curvature="0" /><path
       d="m 8.52,84.648 0.48,0 0,56.784 -0.48,0 0,-56.784 z"
       style="fill:#000000;fill-opacity:1;fill-rule:evenodd;stroke:none"
       id="path5404"
       inkscape:connector-curvature="0" /><path
       d="m 148.73,84.648 0.48,0 0,56.784 -0.48,0 0,-56.784 z"
       style="fill:#000000;fill-opacity:1;fill-rule:evenodd;stroke:none"
       id="path5406"
       inkscape:connector-curvature="0" /><path
       d="m 233.71,84.648 0.48001,0 0,56.784 -0.48001,0 0,-56.784 z"
       style="fill:#000000;fill-opacity:1;fill-rule:evenodd;stroke:none"
       id="path5408"
       inkscape:connector-curvature="0" /><path
       d="m 318.82,84.648 0.48001,0 0,56.784 -0.48001,0 0,-56.784 z"
       style="fill:#000000;fill-opacity:1;fill-rule:evenodd;stroke:none"
       id="path5410"
       inkscape:connector-curvature="0" /><path
       d="m 446.4,84.648 0.47998,0 0,56.784 -0.47998,0 0,-56.784 z"
       style="fill:#000000;fill-opacity:1;fill-rule:evenodd;stroke:none"
       id="path5412"
       inkscape:connector-curvature="0" /><g
       id="g5414"><g
         id="g5416"
         clip-path="url(#clipPath5418)"><g
           id="g5422"><g
             id="g5424"
             clip-path="url(#clipPath5426)"><text
               transform="matrix(1,0,0,-1,34.92,58.944)"
               style="font-variant:normal;font-weight:normal;font-size:14.03999996px;font-family:Verdana;-inkscape-font-specification:Verdana;writing-mode:lr-tb;fill:#000000;fill-opacity:1;fill-rule:nonzero;stroke:none"
               id="text5430"><tspan
                 x="0 13.88556 22.197241 30.565081 38.750401 42.695641 51.00732 55.893242 61.424999 69.947281 75.479042 83.734558 87.679802"
                 y="0"
                 sodipodi:role="line"
                 id="tspan5432">Weekly total </tspan></text>
</g></g><g
           id="g5434"><g
             id="g5436"
             clip-path="url(#clipPath5438)"><text
               transform="matrix(1,0,0,-1,24.6,41.904)"
               style="font-variant:normal;font-weight:normal;font-size:14.03999996px;font-family:Verdana;-inkscape-font-specification:Verdana;writing-mode:lr-tb;fill:#000000;fill-opacity:1;fill-rule:nonzero;stroke:none"
               id="text5442"><tspan
                 x="0 5.99508 14.36292 22.674601 31.04244 39.92976 48.7188 57.086639 62.028721 70.466759 75.99852 80.884438 90.642242 99.487442"
                 y="0"
                 sodipodi:role="line"
                 id="tspan5444">revenue at R27</tspan></text>
</g></g><g
           id="g5446"><g
             id="g5448"
             clip-path="url(#clipPath5450)" /></g></g></g><g
       id="g5454"><g
         id="g5456"
         clip-path="url(#clipPath5458)"><g
           id="g5462"><g
             id="g5464"
             clip-path="url(#clipPath5466)"><text
               transform="matrix(1,0,0,-1,187.13,50.424)"
               style="font-variant:normal;font-weight:normal;font-size:14.03999996px;font-family:Verdana;-inkscape-font-specification:Verdana;writing-mode:lr-tb;fill:#000000;fill-opacity:1;fill-rule:nonzero;stroke:none"
               id="text5470"><tspan
                 x="0"
                 y="0"
                 id="tspan5472">d</tspan></text>
</g></g><g
           id="g5474"><g
             id="g5476"
             clip-path="url(#clipPath5478)" /></g></g></g><g
       id="g5482"><g
         id="g5484"
         clip-path="url(#clipPath5486)"><g
           id="g5490"><g
             id="g5492"
             clip-path="url(#clipPath5494)"><text
               transform="matrix(1,0,0,-1,272.35,50.424)"
               style="font-variant:normal;font-weight:normal;font-size:14.03999996px;font-family:Verdana;-inkscape-font-specification:Verdana;writing-mode:lr-tb;fill:#000000;fill-opacity:1;fill-rule:nonzero;stroke:none"
               id="text5498"><tspan
                 x="0"
                 y="0"
                 id="tspan5500">e</tspan></text>
</g></g><g
           id="g5502"><g
             id="g5504"
             clip-path="url(#clipPath5506)" /></g></g></g><g
       id="g5510"><g
         id="g5512"
         clip-path="url(#clipPath5514)"><g
           id="g5518"><g
             id="g5520"
             clip-path="url(#clipPath5522)"><text
               transform="matrix(1,0,0,-1,380.4,50.424)"
               style="font-variant:normal;font-weight:normal;font-size:14.03999996px;font-family:Verdana;-inkscape-font-specification:Verdana;writing-mode:lr-tb;fill:#000000;fill-opacity:1;fill-rule:nonzero;stroke:none"
               id="text5526"><tspan
                 x="0"
                 y="0"
                 id="tspan5528">f</tspan></text>
</g></g><g
           id="g5530"><g
             id="g5532"
             clip-path="url(#clipPath5534)" /></g></g></g><path
       d="m 8.52,84.168 0.48,0 0,0.48 -0.48,0 0,-0.48 z"
       style="fill:#000000;fill-opacity:1;fill-rule:evenodd;stroke:none"
       id="path5538"
       inkscape:connector-curvature="0" /><path
       d="m 9,84.168 139.73,0 0,0.48 -139.73,0 0,-0.48 z"
       style="fill:#000000;fill-opacity:1;fill-rule:evenodd;stroke:none"
       id="path5540"
       inkscape:connector-curvature="0" /><path
       d="m 148.73,84.168 0.48,0 0,0.48 -0.48,0 0,-0.48 z"
       style="fill:#000000;fill-opacity:1;fill-rule:evenodd;stroke:none"
       id="path5542"
       inkscape:connector-curvature="0" /><path
       d="m 149.21,84.168 84.504,0 0,0.48 -84.504,0 0,-0.48 z"
       style="fill:#000000;fill-opacity:1;fill-rule:evenodd;stroke:none"
       id="path5544"
       inkscape:connector-curvature="0" /><path
       d="m 233.71,84.168 0.48001,0 0,0.48 -0.48001,0 0,-0.48 z"
       style="fill:#000000;fill-opacity:1;fill-rule:evenodd;stroke:none"
       id="path5546"
       inkscape:connector-curvature="0" /><path
       d="m 234.19,84.168 84.624,0 0,0.48 -84.624,0 0,-0.48 z"
       style="fill:#000000;fill-opacity:1;fill-rule:evenodd;stroke:none"
       id="path5548"
       inkscape:connector-curvature="0" /><path
       d="m 318.82,84.168 0.48001,0 0,0.48 -0.48001,0 0,-0.48 z"
       style="fill:#000000;fill-opacity:1;fill-rule:evenodd;stroke:none"
       id="path5550"
       inkscape:connector-curvature="0" /><path
       d="m 319.3,84.168 127.1,0 0,0.48 -127.1,0 0,-0.48 z"
       style="fill:#000000;fill-opacity:1;fill-rule:evenodd;stroke:none"
       id="path5552"
       inkscape:connector-curvature="0" /><path
       d="m 446.4,84.168 0.47998,0 0,0.48 -0.47998,0 0,-0.48 z"
       style="fill:#000000;fill-opacity:1;fill-rule:evenodd;stroke:none"
       id="path5554"
       inkscape:connector-curvature="0" /><path
       d="m 8.52,27.384 0.48,0 0,56.784 -0.48,0 0,-56.784 z"
       style="fill:#000000;fill-opacity:1;fill-rule:evenodd;stroke:none"
       id="path5556"
       inkscape:connector-curvature="0" /><path
       d="m 8.52,26.904 0.48,0 0,0.48 -0.48,0 0,-0.48 z"
       style="fill:#000000;fill-opacity:1;fill-rule:evenodd;stroke:none"
       id="path5558"
       inkscape:connector-curvature="0" /><path
       d="m 8.52,26.904 0.48,0 0,0.48 -0.48,0 0,-0.48 z"
       style="fill:#000000;fill-opacity:1;fill-rule:evenodd;stroke:none"
       id="path5560"
       inkscape:connector-curvature="0" /><path
       d="m 9,26.904 139.73,0 0,0.48 -139.73,0 0,-0.48 z"
       style="fill:#000000;fill-opacity:1;fill-rule:evenodd;stroke:none"
       id="path5562"
       inkscape:connector-curvature="0" /><path
       d="m 148.73,27.384 0.48,0 0,56.784 -0.48,0 0,-56.784 z"
       style="fill:#000000;fill-opacity:1;fill-rule:evenodd;stroke:none"
       id="path5564"
       inkscape:connector-curvature="0" /><path
       d="m 148.73,26.904 0.48,0 0,0.48 -0.48,0 0,-0.48 z"
       style="fill:#000000;fill-opacity:1;fill-rule:evenodd;stroke:none"
       id="path5566"
       inkscape:connector-curvature="0" /><path
       d="m 149.21,26.904 84.504,0 0,0.48 -84.504,0 0,-0.48 z"
       style="fill:#000000;fill-opacity:1;fill-rule:evenodd;stroke:none"
       id="path5568"
       inkscape:connector-curvature="0" /><path
       d="m 233.71,27.384 0.48001,0 0,56.784 -0.48001,0 0,-56.784 z"
       style="fill:#000000;fill-opacity:1;fill-rule:evenodd;stroke:none"
       id="path5570"
       inkscape:connector-curvature="0" /><path
       d="m 233.71,26.904 0.48001,0 0,0.48 -0.48001,0 0,-0.48 z"
       style="fill:#000000;fill-opacity:1;fill-rule:evenodd;stroke:none"
       id="path5572"
       inkscape:connector-curvature="0" /><path
       d="m 234.19,26.904 84.624,0 0,0.48 -84.624,0 0,-0.48 z"
       style="fill:#000000;fill-opacity:1;fill-rule:evenodd;stroke:none"
       id="path5574"
       inkscape:connector-curvature="0" /><path
       d="m 318.82,27.384 0.48001,0 0,56.784 -0.48001,0 0,-56.784 z"
       style="fill:#000000;fill-opacity:1;fill-rule:evenodd;stroke:none"
       id="path5576"
       inkscape:connector-curvature="0" /><path
       d="m 318.82,26.904 0.48001,0 0,0.48 -0.48001,0 0,-0.48 z"
       style="fill:#000000;fill-opacity:1;fill-rule:evenodd;stroke:none"
       id="path5578"
       inkscape:connector-curvature="0" /><path
       d="m 319.3,26.904 127.1,0 0,0.48 -127.1,0 0,-0.48 z"
       style="fill:#000000;fill-opacity:1;fill-rule:evenodd;stroke:none"
       id="path5580"
       inkscape:connector-curvature="0" /><path
       d="m 446.4,27.384 0.47998,0 0,56.784 -0.47998,0 0,-56.784 z"
       style="fill:#000000;fill-opacity:1;fill-rule:evenodd;stroke:none"
       id="path5582"
       inkscape:connector-curvature="0" /><path
       d="m 446.4,26.904 0.47998,0 0,0.48 -0.47998,0 0,-0.48 z"
       style="fill:#000000;fill-opacity:1;fill-rule:evenodd;stroke:none"
       id="path5584"
       inkscape:connector-curvature="0" /><path
       d="m 446.4,26.904 0.47998,0 0,0.48 -0.47998,0 0,-0.48 z"
       style="fill:#000000;fill-opacity:1;fill-rule:evenodd;stroke:none"
       id="path5586"
       inkscape:connector-curvature="0" /></g></svg>