<?xml version="1.0" encoding="UTF-8" standalone="no"?>
<!-- Generator: Adobe Illustrator 19.1.0, SVG Export Plug-In . SVG Version: 6.00 Build 0)  -->

<svg
   xmlns:dc="http://purl.org/dc/elements/1.1/"
   xmlns:cc="http://creativecommons.org/ns#"
   xmlns:rdf="http://www.w3.org/1999/02/22-rdf-syntax-ns#"
   xmlns:svg="http://www.w3.org/2000/svg"
   xmlns="http://www.w3.org/2000/svg"
   xmlns:sodipodi="http://sodipodi.sourceforge.net/DTD/sodipodi-0.dtd"
   xmlns:inkscape="http://www.inkscape.org/namespaces/inkscape"
   version="1.1"
   x="0px"
   y="0px"
   viewBox="0 0 450 387.9"
   style="enable-background:new 0 0 450 387.9;"
   xml:space="preserve"
   id="svg2"
   inkscape:version="0.91 r13725"
   sodipodi:docname="[UECA-228][4]PPC15.svg"><metadata
     id="metadata319"><rdf:RDF><cc:Work
         rdf:about=""><dc:format>image/svg+xml</dc:format><dc:type
           rdf:resource="http://purl.org/dc/dcmitype/StillImage" /></cc:Work></rdf:RDF></metadata><defs
     id="defs317" /><sodipodi:namedview
     pagecolor="#ffffff"
     bordercolor="#666666"
     borderopacity="1"
     objecttolerance="10"
     gridtolerance="10"
     guidetolerance="10"
     inkscape:pageopacity="0"
     inkscape:pageshadow="2"
     inkscape:window-width="1360"
     inkscape:window-height="706"
     id="namedview315"
     showgrid="false"
     inkscape:zoom="1.5004755"
     inkscape:cx="210.47742"
     inkscape:cy="198.95672"
     inkscape:window-x="-8"
     inkscape:window-y="304"
     inkscape:window-maximized="1"
     inkscape:current-layer="svg2" /><style
     type="text/css"
     id="style4">
	.st0{display:none;}
	.st1{display:inline;fill:none;stroke:#ED1F24;stroke-miterlimit:10;}
	.st2{display:inline;}
	.st3{display:inline;fill:none;stroke:#3F7CBE;stroke-width:1.73;stroke-miterlimit:10;}
	.st4{fill:none;stroke:#439A77;stroke-width:1.73;stroke-miterlimit:10;}
	.st5{fill:none;stroke:#4E4E4E;stroke-width:2.16;stroke-miterlimit:10;}
	.st6{fill:none;stroke:#4E4E4E;stroke-width:1.4;stroke-miterlimit:10;}
	.st7{fill:none;stroke:#4E4E4E;stroke-width:1.4;stroke-miterlimit:10;stroke-dasharray:4.3352,5.2022;}
	.st8{fill:none;stroke:#4E4E4E;stroke-width:1.4;stroke-miterlimit:10;stroke-dasharray:3.9826,4.7792;}
	.st9{fill:none;stroke:#4E4E4E;stroke-width:1.4;stroke-miterlimit:10;stroke-dasharray:4.4523,5.3426;}
	.st10{fill:none;stroke:#4E4E4E;stroke-width:1.4;stroke-miterlimit:10;stroke-dasharray:4.1989,5.0385;}
	.st11{fill:none;stroke:#4E4E4E;stroke-width:1.4;stroke-miterlimit:10;stroke-dasharray:4.3671,5.2403;}
	.st12{fill:none;stroke:#4E4E4E;stroke-width:1.4;stroke-miterlimit:10;stroke-dasharray:4.3525,5.2228;}
	.st13{fill:none;stroke:#4E4E4E;stroke-width:1.4;stroke-miterlimit:10;stroke-dasharray:4.1833,5.0198;}
	.st14{fill:none;stroke:#4E4E4E;stroke-width:1.4;stroke-miterlimit:10;stroke-dasharray:4.3658,5.2387;}
	.st15{fill:#4E4E4E;}
	.st16{font-family:'Verdana';}
	.st17{font-size:16px;}
	.st18{fill:#439A77;}
	.st19{fill:#FFFFFF;}
	.st20{font-size:19px;}
</style><g
     id="Simon"
     class="st0"><polyline
       class="st1"
       points="376.9,584.8 94.6,584.8 94.6,302.6  "
       id="polyline7" /><line
       class="st1"
       x1="78.5"
       y1="584.8"
       x2="312.2"
       y2="584.8"
       id="line9" /><line
       class="st1"
       x1="78.5"
       y1="531.9"
       x2="362.1"
       y2="531.9"
       id="line11" /><line
       class="st1"
       x1="78.5"
       y1="479"
       x2="331"
       y2="479"
       id="line13" /><line
       class="st1"
       x1="78.5"
       y1="426"
       x2="310.8"
       y2="426"
       id="line15" /><line
       class="st1"
       x1="78.5"
       y1="373.1"
       x2="267.2"
       y2="373.1"
       id="line17" /><line
       class="st1"
       x1="78.5"
       y1="320.2"
       x2="209.6"
       y2="320.2"
       id="line19" /><path
       class="st1"
       d="M331,584.8"
       id="path21" /><path
       class="st1"
       d="M331,479"
       id="path23" /><path
       class="st1"
       d="M286.3,584.8"
       id="path25" /><path
       class="st1"
       d="M286.3,311.7"
       id="path27" /><line
       class="st1"
       x1="103.8"
       y1="311.7"
       x2="103.8"
       y2="584.8"
       id="line29" /><line
       class="st1"
       x1="94.6"
       y1="311.7"
       x2="94.6"
       y2="584.8"
       id="line31" /><line
       class="st1"
       x1="113"
       y1="311.7"
       x2="113"
       y2="584.8"
       id="line33" /><line
       class="st1"
       x1="122.2"
       y1="311.7"
       x2="122.2"
       y2="584.8"
       id="line35" /><line
       class="st1"
       x1="131.4"
       y1="311.7"
       x2="131.4"
       y2="584.8"
       id="line37" /><line
       class="st1"
       x1="140.5"
       y1="311.7"
       x2="140.5"
       y2="584.8"
       id="line39" /><line
       class="st1"
       x1="149.7"
       y1="311.7"
       x2="149.7"
       y2="584.8"
       id="line41" /><line
       class="st1"
       x1="158.9"
       y1="311.7"
       x2="158.9"
       y2="584.8"
       id="line43" /><line
       class="st1"
       x1="168.1"
       y1="311.7"
       x2="168.1"
       y2="584.8"
       id="line45" /><line
       class="st1"
       x1="177.3"
       y1="311.7"
       x2="177.3"
       y2="584.8"
       id="line47" /><line
       class="st1"
       x1="186.4"
       y1="311.7"
       x2="186.4"
       y2="592"
       id="line49" /><line
       class="st1"
       x1="195.6"
       y1="311.7"
       x2="195.6"
       y2="584.8"
       id="line51" /><line
       class="st1"
       x1="204.8"
       y1="311.7"
       x2="204.8"
       y2="584.8"
       id="line53" /><line
       class="st1"
       x1="214"
       y1="311.7"
       x2="214"
       y2="584.8"
       id="line55" /><line
       class="st1"
       x1="223.2"
       y1="311.7"
       x2="223.2"
       y2="584.8"
       id="line57" /><line
       class="st1"
       x1="232.3"
       y1="311.7"
       x2="232.3"
       y2="584.8"
       id="line59" /><line
       class="st1"
       x1="241.5"
       y1="311.7"
       x2="241.5"
       y2="584.8"
       id="line61" /><line
       class="st1"
       x1="250.7"
       y1="311.7"
       x2="250.7"
       y2="584.8"
       id="line63" /><line
       class="st1"
       x1="259.9"
       y1="311.7"
       x2="259.9"
       y2="592"
       id="line65" /><line
       class="st1"
       x1="269.1"
       y1="311.7"
       x2="269.1"
       y2="584.8"
       id="line67" /><line
       class="st1"
       x1="278.3"
       y1="311.7"
       x2="278.3"
       y2="584.8"
       id="line69" /><line
       class="st1"
       x1="287.4"
       y1="311.7"
       x2="287.4"
       y2="584.8"
       id="line71" /><line
       class="st1"
       x1="296.6"
       y1="311.7"
       x2="296.6"
       y2="584.8"
       id="line73" /><line
       class="st1"
       x1="305.8"
       y1="311.7"
       x2="305.8"
       y2="584.8"
       id="line75" /><line
       class="st1"
       x1="315"
       y1="311.7"
       x2="315"
       y2="592"
       id="line77" /><line
       class="st1"
       x1="324.2"
       y1="311.7"
       x2="324.2"
       y2="584.8"
       id="line79" /><line
       class="st1"
       x1="333.3"
       y1="311.7"
       x2="333.3"
       y2="584.8"
       id="line81" /><line
       class="st1"
       x1="342.5"
       y1="311.7"
       x2="342.5"
       y2="584.8"
       id="line83" /><line
       class="st1"
       x1="351.7"
       y1="311.7"
       x2="351.7"
       y2="592"
       id="line85" /><line
       class="st1"
       x1="360.9"
       y1="311.7"
       x2="360.9"
       y2="584.8"
       id="line87" /><line
       class="st1"
       x1="370.1"
       y1="311.7"
       x2="370.1"
       y2="584.8"
       id="line89" /><path
       class="st1"
       d="M359.2,584.8"
       id="path91" /><polyline
       class="st1"
       points="383.3,635.9 362.7,576.7 321.7,517.5 260,458.3 177.9,399.1 75.2,339.9  "
       id="polyline93" /><path
       class="st1"
       d="M383.3,635.9c-51.4-148.2-178.1-221-308-295.9"
       id="path95" /><g
       id="OLD"
       class="st2"><g
         id="Curve"
         class="st0"><path
           class="st3"
           d="M74.2,371.5c60.5,20.7,89.4,43.8,141.9,81.7c46.6,33.7,76.5,74.7,103.1,122.5c10.5,18.8,20.1,38.6,23.2,59.9     "
           id="path99" /></g></g></g><g
     id="New_curve"><path
       class="st4"
       d="M340.1,326.2C313.6,201,176.1,123,64.6,61.6"
       id="path102" /></g><g
     id="Main_graph"><polyline
       class="st5"
       points="397.9,326.1 63.8,326.1 63.8,10  "
       id="polyline105" /><g
       id="g107"><g
         id="g109"><line
           class="st6"
           x1="64"
           y1="273.3"
           x2="66.2"
           y2="273.3"
           id="line111" /><line
           class="st7"
           x1="71.4"
           y1="273.3"
           x2="316.7"
           y2="273.3"
           id="line113" /><polyline
           class="st6"
           points="319.3,273.3 321.5,273.3 321.5,275.4    "
           id="polyline115" /><line
           class="st8"
           x1="321.5"
           y1="280.2"
           x2="321.5"
           y2="321.6"
           id="line117" /><line
           class="st6"
           x1="321.5"
           y1="324"
           x2="321.5"
           y2="326.2"
           id="line119" /></g></g><g
       id="g121"><g
         id="g123"><line
           class="st6"
           x1="64.2"
           y1="167.4"
           x2="66.4"
           y2="167.4"
           id="line125" /><line
           class="st9"
           x1="71.7"
           y1="167.4"
           x2="225.8"
           y2="167.4"
           id="line127" /><polyline
           class="st6"
           points="228.4,167.4 230.6,167.4 230.6,169.6    "
           id="polyline129" /><line
           class="st10"
           x1="230.6"
           y1="174.6"
           x2="230.6"
           y2="319.9"
           id="line131" /><line
           class="st6"
           x1="230.6"
           y1="322.4"
           x2="230.6"
           y2="324.6"
           id="line133" /></g></g><g
       id="g135"><g
         id="g137"><line
           class="st6"
           x1="63.7"
           y1="220.4"
           x2="65.9"
           y2="220.4"
           id="line139" /><line
           class="st11"
           x1="71.1"
           y1="220.4"
           x2="279.9"
           y2="220.4"
           id="line141" /><polyline
           class="st6"
           points="282.5,220.4 284.7,220.4 284.7,222.5    "
           id="polyline143" /><line
           class="st12"
           x1="284.7"
           y1="227.7"
           x2="284.7"
           y2="320.9"
           id="line145" /><line
           class="st6"
           x1="284.7"
           y1="323.5"
           x2="284.7"
           y2="325.7"
           id="line147" /></g></g><g
       id="g149"><g
         id="g151"><line
           class="st6"
           x1="63.8"
           y1="114.5"
           x2="66"
           y2="114.5"
           id="line153" /><line
           class="st13"
           x1="71"
           y1="114.5"
           x2="151.3"
           y2="114.5"
           id="line155" /><polyline
           class="st6"
           points="153.8,114.5 156,114.5 156,116.7    "
           id="polyline157" /><line
           class="st14"
           x1="156"
           y1="121.9"
           x2="156.4"
           y2="321"
           id="line159" /><line
           class="st6"
           x1="156.4"
           y1="323.6"
           x2="156.4"
           y2="325.8"
           id="line161" /></g></g></g><g
     id="g164"
     transform="translate(6.5000875,-4.3001936)"><text
       style="font-size:16px;font-family:Verdana;fill:#4e4e4e"
       id="text166"
       class="st15 st16 st17"
       transform="translate(45.5046,344.907)">0</text>
</g><g
     id="g168"
     transform="translate(2,0)"><text
       style="font-size:16px;font-family:Verdana;fill:#4e4e4e"
       id="text170"
       class="st15 st16 st17"
       transform="translate(45.5046,224.6839)">2</text>
</g><g
     id="g172"
     transform="translate(2,0)"><text
       style="font-size:16px;font-family:Verdana;fill:#4e4e4e"
       id="text174"
       class="st15 st16 st17"
       transform="translate(45.5046,172.3762)">3</text>
</g><g
     id="g176"
     transform="translate(2,0)"><text
       style="font-size:16px;font-family:Verdana;fill:#4e4e4e"
       id="text178"
       class="st15 st16 st17"
       transform="translate(45.5046,120.0696)">4</text>
</g><g
     id="g180"
     transform="translate(2,0)"><text
       style="font-size:16px;font-family:Verdana;fill:#4e4e4e"
       id="text182"
       class="st15 st16 st17"
       transform="translate(45.9513,67.762)">5</text>
</g><g
     id="g184"
     transform="translate(2,0)"><text
       style="font-size:16px;font-family:Verdana;fill:#4e4e4e"
       id="text186"
       class="st15 st16 st17"
       transform="translate(46.2847,24.4287)">6</text>
</g><g
     id="g188"
     transform="translate(2,0)"><text
       style="font-size:16px;font-family:Verdana;fill:#4e4e4e"
       id="text190"
       class="st15 st16 st17"
       transform="translate(45.9513,278.3318)">1</text>
</g><g
     id="g192"><text
       style="font-size:16px;font-family:Verdana;fill:#4e4e4e"
       id="text194"
       class="st15 st16 st17"
       transform="translate(221.5851,345.0367)">18</text>
</g><g
     id="g196"><text
       style="font-size:16px;font-family:Verdana;fill:#4e4e4e"
       id="text198"
       class="st15 st16 st17"
       transform="translate(275.4398,345.034)">24</text>
</g><g
     id="g200"><text
       style="font-size:16px;font-family:Verdana;fill:#4e4e4e"
       id="text202"
       class="st15 st16 st17"
       transform="translate(249.2005,345.0338)">20</text>
</g><g
     id="g204"><text
       style="font-size:16px;font-family:Verdana;fill:#4e4e4e"
       id="text206"
       class="st15 st16 st17"
       transform="translate(312.3929,345.0369)">28</text>
</g><g
     id="g208"><text
       style="font-size:16px;font-family:Verdana;fill:#4e4e4e"
       id="text210"
       class="st15 st16 st17"
       transform="translate(333.9836,344.9072)">30</text>
</g><g
     id="g212"><text
       style="font-size:16px;font-family:Verdana;fill:#4e4e4e"
       id="text214"
       class="st15 st16 st17"
       transform="translate(368.9836,345.0369)">40</text>
</g><g
     id="g216"><text
       style="font-size:16px;font-family:Verdana;fill:#4e4e4e"
       id="text218"
       class="st15 st16 st17"
       transform="translate(147.2806,345.0652)">10</text>
</g><text
     style="font-size:16px;font-family:Verdana;fill:#439a77"
     id="text220"
     class="st18 st16 st17"
     x="65.999397"
     y="57.553501">A</text>
<text
     style="font-size:16px;font-family:Verdana;fill:#439a77"
     id="text222"
     class="st18 st16 st17"
     x="156.4427"
     y="109.7864">B</text>
<text
     style="font-size:16px;font-family:Verdana;fill:#439a77"
     id="text224"
     class="st18 st16 st17"
     x="231.82941"
     y="165.9901">C</text>
<text
     style="font-size:16px;font-family:Verdana;fill:#439a77"
     id="text226"
     class="st18 st16 st17"
     x="287.74741"
     y="216.4866">D</text>
<text
     style="font-size:16px;font-family:Verdana;fill:#439a77"
     id="text228"
     class="st18 st16 st17"
     x="326.86929"
     y="272.38651">E</text>
<text
     style="font-size:16px;font-family:Verdana;fill:#439a77"
     id="text230"
     class="st18 st16 st17"
     x="343.33121"
     y="321.19409">F</text>
<rect
     style="fill:#ffffff"
     id="rect232"
     height="19"
     width="101"
     class="st19"
     y="237.10001"
     x="161.5" /><g
     id="g234"><text
       style="font-size:16px;font-family:Verdana;fill:#439a77"
       id="text236"
       class="st18 st16 st17"
       transform="matrix(1,0.00225,-0.00225,1,162.8301,211.2921)">H</text>
<text
       style="font-size:19px;font-family:Verdana;fill:#439a77"
       id="text238"
       class="st18 st16 st20"
       transform="matrix(0.583,0.00131175,-0.00131175,0.583,174.8393,217.6463)">1</text>
</g><g
     id="g240"><text
       style="font-size:16px;font-family:Verdana;fill:#439a77"
       id="text242"
       class="st18 st16 st17"
       transform="matrix(1,0.00225,-0.00225,1,235.4968,290.6254)">H</text>
<text
       style="font-size:19px;font-family:Verdana;fill:#439a77"
       id="text244"
       class="st18 st16 st20"
       transform="matrix(0.583,0.00131175,-0.00131175,0.583,247.506,296.9796)">2</text>
</g><g
     id="g246"
     transform="translate(2,0)"><text
       style="font-size:16px;font-family:Verdana;fill:#4e4e4e"
       id="text248"
       class="st15 st16 st17"
       transform="matrix(0,-1,1,0,35.2112,230.4814)">Laptop</text>
</g><g
     id="g250"
     transform="translate(2,0)"><text
       style="font-size:16px;font-family:Verdana;fill:#4e4e4e"
       id="text252"
       class="st15 st16 st17"
       transform="matrix(0,-1,1,0,35.2111,169.4761)">(1000s)</text>
</g><g
     id="g254"><text
       style="font-size:16px;font-family:Verdana;fill:#4e4e4e"
       id="text256"
       class="st15 st16 st17"
       transform="translate(134.6834,364.6676)">Mobile phones</text>
</g><g
     id="g258"
     transform="translate(12,0)"><text
       style="font-size:16px;font-family:Verdana;fill:#4e4e4e"
       id="text260"
       class="st15 st16 st17"
       transform="translate(162.8304,251.5008)">Inefficiency</text>
</g><g
     id="g262"><text
       style="font-size:16px;font-family:Verdana;fill:#4e4e4e"
       id="text264"
       class="st15 st16 st17"
       transform="translate(255.5818,364.6678)">(1000s)</text>
</g><g
     id="Layer_7"><g
       id="g267"><g
         id="g269"><path
           class="st15"
           d="M63.8,64.4c3.2,0,3.2-5,0-5C60.6,59.4,60.6,64.4,63.8,64.4L63.8,64.4z"
           id="path271" /></g></g><g
       id="g273"><g
         id="g275"><path
           class="st15"
           d="M155.4,116.4c3.2,0,3.2-5,0-5C152.2,111.4,152.2,116.4,155.4,116.4L155.4,116.4z"
           id="path277" /></g></g><g
       id="g279"><g
         id="g281"><path
           class="st15"
           d="M230.6,169.9c3.2,0,3.2-5,0-5C227.4,164.9,227.4,169.9,230.6,169.9L230.6,169.9z"
           id="path283" /></g></g><g
       id="g285"><g
         id="g287"><path
           class="st15"
           d="M284.7,222c3.2,0,3.2-5,0-5C281.5,217,281.4,222,284.7,222L284.7,222z"
           id="path289" /></g></g><g
       id="g291"><g
         id="g293"><path
           class="st15"
           d="M230.6,275.6c3.2,0,3.2-5,0-5C227.4,270.6,227.4,275.6,230.6,275.6L230.6,275.6z"
           id="path295" /></g></g><g
       id="g297"><g
         id="g299"><path
           class="st15"
           d="M156.7,222.5c3.2,0,3.2-5,0-5C153.4,217.5,153.4,222.5,156.7,222.5L156.7,222.5z"
           id="path301" /></g></g><g
       id="g303"><g
         id="g305"><path
           class="st15"
           d="M321.5,275.8c3.2,0,3.2-5,0-5C318.3,270.8,318.3,275.8,321.5,275.8L321.5,275.8z"
           id="path307" /></g></g><g
       id="g309"><g
         id="g311"><path
           class="st15"
           d="M339.5,328.2c3.2,0,3.2-5,0-5C336.3,323.2,336.3,328.2,339.5,328.2L339.5,328.2z"
           id="path313" /></g></g></g></svg>