<svg xmlns="http://www.w3.org/2000/svg" viewBox="0 0 419.3 167.7"><defs><style>.cls-1,.cls-4,.cls-5{fill:#4d4e4e;}.cls-2,.cls-3{fill:none;stroke:#4d4e4e;stroke-miterlimit:10;}.cls-2{stroke-width:2.27px;}.cls-3{stroke-width:1.74px;}.cls-4{font-size:43.82px;font-family:Times-Italic, Times;font-style:italic;}.cls-5{font-size:28.86px;font-family:Verdana, Verdana;}</style></defs><title>[UECA-70][4]ELA35</title><g id="Layer_1" data-name="Layer 1"><g id="Layer_1_copy" data-name="Layer 1 copy"><path class="cls-1" d="M8.6,51.4H1.2V49.5H3.7V34.6H1.2V32.7H8.6v1.9H6.1V49.5H8.6Z"/><path class="cls-1" d="M20.2,34.1h0a4.25,4.25,0,0,0-1.1-.2,4.48,4.48,0,0,0-1.1-.1,2.78,2.78,0,0,0-2.2.7,3.14,3.14,0,0,0-.7,2.4v.5h4.3v2H15.2v12H12.8V39.3H11.2v-2h1.6v-.5A5.25,5.25,0,0,1,14,33a4.55,4.55,0,0,1,3.6-1.3,6.15,6.15,0,0,1,1.4.1,5,5,0,0,1,1.2.2Z"/><path class="cls-1" d="M342.7,47.8,339.2,56h-1.9l2.2-8.2Z"/><path class="cls-1" d="M417.8,51.4H407.7V49.5h3.9V36.9h-3.9V35.2a10.28,10.28,0,0,0,1.7-.1,3.92,3.92,0,0,0,1.4-.4,2.36,2.36,0,0,0,.9-.8,2.5,2.5,0,0,0,.4-1.3h2V49.5h3.8Z"/><path class="cls-1" d="M391.5,50.4,377,43.9V42.4l14.5-6.5v2.3l-11.4,5,11.4,5Z"/><path class="cls-1" d="M297,62.1h-1.7V61a6.53,6.53,0,0,1-1.5,1,4.78,4.78,0,0,1-1.8.4,3.56,3.56,0,0,1-2.9-1.4,6.24,6.24,0,0,1-1.1-3.9,5.56,5.56,0,0,1,.4-2.3,4,4,0,0,1,1-1.7,4.18,4.18,0,0,1,1.5-1.1,5.26,5.26,0,0,1,1.7-.4,5.9,5.9,0,0,1,1.4.2,6.94,6.94,0,0,1,1.3.5V47.9H297Zm-1.7-2.5V53.7a4.15,4.15,0,0,0-1.2-.4,4.87,4.87,0,0,0-1.2-.1,2.76,2.76,0,0,0-2.3,1,4.18,4.18,0,0,0-.8,2.9,5.55,5.55,0,0,0,.6,2.8,2.26,2.26,0,0,0,2,.9,4,4,0,0,0,1.5-.3C294.4,60.2,294.8,59.9,295.3,59.6Z"/><path class="cls-1" d="M232.3,37.9a6.2,6.2,0,0,1-1.2,4.2,4.29,4.29,0,0,1-3.4,1.4,4.51,4.51,0,0,1-3.5-1.4,6.2,6.2,0,0,1-1.2-4.2,6.2,6.2,0,0,1,1.2-4.2,4.29,4.29,0,0,1,3.4-1.4,4.15,4.15,0,0,1,3.4,1.4A6.76,6.76,0,0,1,232.3,37.9Zm-2.3,0a5.62,5.62,0,0,0-.6-3,2,2,0,0,0-1.8-.9,1.81,1.81,0,0,0-1.8.9,6.79,6.79,0,0,0-.6,3,5.39,5.39,0,0,0,.6,3,2.43,2.43,0,0,0,3.43.17l.17-.17A5.62,5.62,0,0,0,230,37.9Zm10.9-5.2-9.8,18.7H229l9.8-18.7ZM247,46.2a6.2,6.2,0,0,1-1.2,4.2,4.29,4.29,0,0,1-3.4,1.4,4.15,4.15,0,0,1-3.4-1.4,6.2,6.2,0,0,1-1.2-4.2A6.2,6.2,0,0,1,239,42a4.29,4.29,0,0,1,3.4-1.4,4.51,4.51,0,0,1,3.5,1.4C246.7,42.9,247,44.3,247,46.2Zm-2.3,0a5.62,5.62,0,0,0-.6-3,2,2,0,0,0-1.8-.9,1.81,1.81,0,0,0-1.8.9,6.79,6.79,0,0,0-.6,3,5.16,5.16,0,0,0,.6,3,2,2,0,0,0,1.8.8,2.2,2.2,0,0,0,1.8-.8C244.6,48.7,244.7,47.7,244.7,46.2Z"/><path class="cls-1" d="M257.3,33.7l7.3,17.7H249.1Zm-1,4.4-5.6,12.1h10.6Z"/><path class="cls-1" d="M283.8,56l-1.5.3a7.57,7.57,0,0,1-1.5.1,5,5,0,0,1-3.5-1.2,4.29,4.29,0,0,1-1.4-3.4c-.2,0-.4.1-.6.1h-.5a8.57,8.57,0,0,1-3.6-.7,6.62,6.62,0,0,1-2.7-1.9,8.34,8.34,0,0,1-1.7-3.1,14.31,14.31,0,0,1,0-8.2,7.93,7.93,0,0,1,1.8-3.1,7.36,7.36,0,0,1,2.7-1.9,10,10,0,0,1,3.6-.7,8.57,8.57,0,0,1,3.6.7,7.72,7.72,0,0,1,2.7,1.9A9.38,9.38,0,0,1,283,38a13.09,13.09,0,0,1,.6,4.1,11.58,11.58,0,0,1-1.4,5.8,7.18,7.18,0,0,1-3.8,3.3,3.39,3.39,0,0,0,.7,2.2,2.89,2.89,0,0,0,2.3.8,6,6,0,0,0,1.2-.2,4.05,4.05,0,0,0,1-.3h.3V56Zm-2.9-14a8.5,8.5,0,0,0-1.6-5.6,6.06,6.06,0,0,0-9,0,8.5,8.5,0,0,0-1.6,5.6,8.32,8.32,0,0,0,1.7,5.6,5.62,5.62,0,0,0,4.5,2,5.42,5.42,0,0,0,4.4-2A8.69,8.69,0,0,0,280.9,42Z"/><path class="cls-1" d="M79.7,37.9a6.2,6.2,0,0,1-1.2,4.2,4.29,4.29,0,0,1-3.4,1.4,4.51,4.51,0,0,1-3.5-1.4,6.2,6.2,0,0,1-1.2-4.2,6.2,6.2,0,0,1,1.2-4.2A4.29,4.29,0,0,1,75,32.3a4.15,4.15,0,0,1,3.4,1.4A5.72,5.72,0,0,1,79.7,37.9Zm-2.2,0a5.62,5.62,0,0,0-.6-3,2,2,0,0,0-1.8-.9,1.81,1.81,0,0,0-1.8.9,5.62,5.62,0,0,0-.6,3,5.17,5.17,0,0,0,.6,3,2,2,0,0,0,1.8.8,2.2,2.2,0,0,0,1.8-.8A5.62,5.62,0,0,0,77.5,37.9Zm10.9-5.2L78.6,51.4H76.5l9.8-18.7Zm6,13.5a6.2,6.2,0,0,1-1.2,4.2,4.29,4.29,0,0,1-3.4,1.4,4.15,4.15,0,0,1-3.4-1.4,6.2,6.2,0,0,1-1.2-4.2A6.2,6.2,0,0,1,86.4,42a4.29,4.29,0,0,1,3.4-1.4A4.51,4.51,0,0,1,93.3,42,6.81,6.81,0,0,1,94.4,46.2Zm-2.2,0a5.62,5.62,0,0,0-.6-3,2,2,0,0,0-1.8-.9,1.81,1.81,0,0,0-1.8.9,5.62,5.62,0,0,0-.6,3,5.17,5.17,0,0,0,.6,3,2,2,0,0,0,1.8.8,2.2,2.2,0,0,0,1.8-.8A5.17,5.17,0,0,0,92.2,46.2Z"/><path class="cls-1" d="M104.7,33.7,112,51.4H96.5Zm-.9,4.4L98.2,50.2h10.6Z"/><path class="cls-1" d="M126.8,38.3a5.87,5.87,0,0,1-.4,2.3,5.67,5.67,0,0,1-1.2,1.8,7.63,7.63,0,0,1-2.3,1.5,10.42,10.42,0,0,1-3.3.5h-2.5v7h-2.5V32.7h5.1a12.31,12.31,0,0,1,2.9.3,6.67,6.67,0,0,1,2.1.9,5.81,5.81,0,0,1,1.7,1.8A6.16,6.16,0,0,1,126.8,38.3Zm-2.5.1a4.67,4.67,0,0,0-.3-1.7,2.94,2.94,0,0,0-1-1.2,5.91,5.91,0,0,0-1.4-.6,10.31,10.31,0,0,0-2-.2h-2.5v7.5h2.1a9,9,0,0,0,2.5-.3,3.77,3.77,0,0,0,1.5-.9,2.58,2.58,0,0,0,.8-1.3A2.5,2.5,0,0,0,124.3,38.4Z"/><rect class="cls-2" x="35.8" y="1.9" width="125.6" height="81.5"/><rect class="cls-3" x="208.4" y="13.1" width="103.3" height="57.7"/><path class="cls-1" d="M178,48.2l11.4-5-11.4-5V35.9l14.5,6.5V44L178,50.5Z"/><path class="cls-1" d="M88.3,148.9H86.6l-3.4-7h3Zm5.1,0H91.7l-3.4-7h3Z"/><path class="cls-1" d="M106.4,150h0c-.5-.1-.8-.1-1.1-.2a4.12,4.12,0,0,0-1.2-.1,5.37,5.37,0,0,0-2.1.5,7.57,7.57,0,0,0-2,1.3v10H97.6V147.4H100v2.1a9.32,9.32,0,0,1,2.5-1.6,5.45,5.45,0,0,1,2.2-.5h.9c.2,0,.5.1.8.1Z"/><path class="cls-1" d="M120.4,154.6H110a5.56,5.56,0,0,0,.4,2.3,3.81,3.81,0,0,0,1.1,1.6,4.17,4.17,0,0,0,1.6.9,6.45,6.45,0,0,0,2,.3,7.53,7.53,0,0,0,2.9-.6,9.58,9.58,0,0,0,2.1-1.1h.1v2.6a22.5,22.5,0,0,1-2.4.8,10.9,10.9,0,0,1-2.6.3,7.52,7.52,0,0,1-5.5-1.9,7.32,7.32,0,0,1-2-5.4,7.68,7.68,0,0,1,1.9-5.5,6.7,6.7,0,0,1,5-2,5.72,5.72,0,0,1,4.4,1.7,6.8,6.8,0,0,1,1.5,4.7l-.1,1.3Zm-2.3-1.8a4.37,4.37,0,0,0-.9-2.9,3.56,3.56,0,0,0-2.8-1,4.11,4.11,0,0,0-4.3,3.9Z"/><path class="cls-1" d="M126.4,161.4H124V141.8h2.4Z"/><path class="cls-1" d="M142,161.4h-2.4v-1.5a3.28,3.28,0,0,0-.8.6,2.66,2.66,0,0,1-1,.6,4.57,4.57,0,0,1-1.4.5,9,9,0,0,1-1.8.2,4.22,4.22,0,0,1-3.2-1.3,4.08,4.08,0,0,1-1.3-3.2,4.21,4.21,0,0,1,.7-2.6,4.6,4.6,0,0,1,2-1.6,12.73,12.73,0,0,1,3.1-.8l3.9-.3v-.4a2.5,2.5,0,0,0-.3-1.3,3,3,0,0,0-.8-.8,3.37,3.37,0,0,0-1.2-.4,7.57,7.57,0,0,0-1.5-.1,18.32,18.32,0,0,0-2.1.2,21.72,21.72,0,0,0-2.4.7h-.2v-2.4a17.32,17.32,0,0,1,2-.4,11.4,11.4,0,0,1,2.6-.2,18.37,18.37,0,0,1,2.6.2,5.45,5.45,0,0,1,1.9.8,4.43,4.43,0,0,1,1.2,1.5,5.27,5.27,0,0,1,.4,2.3Zm-2.4-3.4v-3.9a25,25,0,0,0-2.5.2,9.67,9.67,0,0,0-2.3.4,3.54,3.54,0,0,0-1.6.9,2.35,2.35,0,0,0-.6,1.7,2.14,2.14,0,0,0,.7,1.8,3.4,3.4,0,0,0,2.2.6,5.93,5.93,0,0,0,2.3-.5A11.27,11.27,0,0,0,139.6,158Z"/><path class="cls-1" d="M153.8,161.3q-.6.15-1.5.3a7.08,7.08,0,0,1-1.4.1,4.46,4.46,0,0,1-3.3-1.2,5.45,5.45,0,0,1-1.1-3.7v-7.4h-1.6v-2h1.6v-4h2.4v4h4.9v2h-4.9v8.1a2.84,2.84,0,0,0,.4,1.2,1.39,1.39,0,0,0,.8.7,5.42,5.42,0,0,0,1.5.2,5,5,0,0,0,1.2-.2,4.65,4.65,0,0,0,.9-.3h.1v2.2Z"/><path class="cls-1" d="M159.2,145h-2.7v-2.5h2.7Zm-.2,16.4h-2.4v-14H159Z"/><path class="cls-1" d="M175.9,147.4l-5.7,14.1h-2.4l-5.6-14.1h2.6l4.4,11.2,4.3-11.2Z"/><path class="cls-1" d="M190.5,154.6H180.1a5.56,5.56,0,0,0,.4,2.3,3.81,3.81,0,0,0,1.1,1.6,4.17,4.17,0,0,0,1.6.9,6.45,6.45,0,0,0,2,.3,7.53,7.53,0,0,0,2.9-.6,9.58,9.58,0,0,0,2.1-1.1h.1v2.6a22.5,22.5,0,0,1-2.4.8,10.9,10.9,0,0,1-2.6.3,7.52,7.52,0,0,1-5.5-1.9,7.32,7.32,0,0,1-2-5.4,7.68,7.68,0,0,1,1.9-5.5,6.7,6.7,0,0,1,5-2,5.72,5.72,0,0,1,4.4,1.7,6.8,6.8,0,0,1,1.5,4.7v1.3h-.1Zm-2.3-1.8a4.37,4.37,0,0,0-.9-2.9,3.56,3.56,0,0,0-2.8-1,4.11,4.11,0,0,0-4.3,3.9Z"/><path class="cls-1" d="M196.5,161.4h-2.4V141.8h2.4Z"/><path class="cls-1" d="M213.3,147.4l-8.2,19.2h-2.5l2.6-5.9-5.6-13.4h2.6l4.3,10.4,4.4-10.4,2.4.1Z"/><path class="cls-1" d="M228,145h-2.7v-2.5H228Zm-.1,16.4h-2.4v-14h2.4Z"/><path class="cls-1" d="M244.3,161.4h-2.4v-8a10.28,10.28,0,0,0-.1-1.8,3.32,3.32,0,0,0-.4-1.3,1.76,1.76,0,0,0-.9-.8,3.34,3.34,0,0,0-1.5-.3,5.34,5.34,0,0,0-2,.5,8.18,8.18,0,0,0-2,1.2v10.5h-2.4v-14H235V149a7.89,7.89,0,0,1,2.3-1.4,6.87,6.87,0,0,1,2.4-.5,4.51,4.51,0,0,1,3.5,1.4,5.8,5.8,0,0,1,1.2,4v8.9h-.1Z"/><path class="cls-1" d="M260.6,154.6H250.3a5.56,5.56,0,0,0,.4,2.3,3.81,3.81,0,0,0,1.1,1.6,4.17,4.17,0,0,0,1.6.9,6.45,6.45,0,0,0,2,.3,7.53,7.53,0,0,0,2.9-.6,9.58,9.58,0,0,0,2.1-1.1h.1v2.6a22.5,22.5,0,0,1-2.4.8,10.9,10.9,0,0,1-2.6.3,7.52,7.52,0,0,1-5.5-1.9,7.32,7.32,0,0,1-2-5.4,7.68,7.68,0,0,1,1.9-5.5,6.7,6.7,0,0,1,5-2,5.72,5.72,0,0,1,4.4,1.7,6.8,6.8,0,0,1,1.5,4.7v1.3h-.2Zm-2.3-1.8a4.37,4.37,0,0,0-.9-2.9,3.56,3.56,0,0,0-2.8-1,4.11,4.11,0,0,0-4.3,3.9Z"/><path class="cls-1" d="M266.6,161.4h-2.4V141.8h2.4Z"/><path class="cls-1" d="M282.2,161.4h-2.4v-1.5a3.28,3.28,0,0,0-.8.6,2.66,2.66,0,0,1-1,.6,4.57,4.57,0,0,1-1.4.5,9,9,0,0,1-1.8.2,4.22,4.22,0,0,1-3.2-1.3,4.08,4.08,0,0,1-1.3-3.2,4.21,4.21,0,0,1,.7-2.6,4.6,4.6,0,0,1,2-1.6,12.73,12.73,0,0,1,3.1-.8l3.9-.3v-.4a2.5,2.5,0,0,0-.3-1.3,3,3,0,0,0-.8-.8,3.37,3.37,0,0,0-1.2-.4,7.57,7.57,0,0,0-1.5-.1,18.32,18.32,0,0,0-2.1.2,21.72,21.72,0,0,0-2.4.7h-.1v-2.4a17.32,17.32,0,0,1,2-.4,11.4,11.4,0,0,1,2.6-.2,18.37,18.37,0,0,1,2.6.2,5.45,5.45,0,0,1,1.9.8,4.43,4.43,0,0,1,1.2,1.5,5.27,5.27,0,0,1,.4,2.3l-.1,9.7Zm-2.4-3.4v-3.9a25,25,0,0,0-2.5.2,9.67,9.67,0,0,0-2.3.4,3.54,3.54,0,0,0-1.6.9,2.35,2.35,0,0,0-.6,1.7,2.14,2.14,0,0,0,.7,1.8,3.4,3.4,0,0,0,2.2.6,5.93,5.93,0,0,0,2.3-.5,11.27,11.27,0,0,0,1.8-1.2Z"/><path class="cls-1" d="M296.8,157.4a3.88,3.88,0,0,1-1.6,3.2,7.07,7.07,0,0,1-4.3,1.2,9.25,9.25,0,0,1-2.9-.4,17.69,17.69,0,0,1-2.2-.8v-2.7h.1a7.45,7.45,0,0,0,2.5,1.3,8.51,8.51,0,0,0,2.6.5,5.05,5.05,0,0,0,2.4-.5,1.7,1.7,0,0,0,.9-1.6,1.73,1.73,0,0,0-.5-1.3,3.9,3.9,0,0,0-1.8-.7,13,13,0,0,0-1.3-.3l-1.5-.3a4.92,4.92,0,0,1-2.6-1.4,3.57,3.57,0,0,1-.8-2.3,2.93,2.93,0,0,1,.4-1.6,3.6,3.6,0,0,1,1.1-1.4,5.08,5.08,0,0,1,1.8-.9,8.75,8.75,0,0,1,2.4-.3,10.68,10.68,0,0,1,2.5.3,12.72,12.72,0,0,1,2.1.7v2.5H296a9,9,0,0,0-2.2-1.1,7.93,7.93,0,0,0-2.5-.5,4.77,4.77,0,0,0-2.2.5,1.55,1.55,0,0,0-.9,1.5,1.73,1.73,0,0,0,.5,1.3,4.57,4.57,0,0,0,1.7.7q.6.15,1.5.3c.5.1,1,.2,1.4.3a5.39,5.39,0,0,1,2.5,1.3A3.17,3.17,0,0,1,296.8,157.4Z"/><path class="cls-1" d="M307.5,161.3q-.6.15-1.5.3a7.08,7.08,0,0,1-1.4.1,4.46,4.46,0,0,1-3.3-1.2,5.45,5.45,0,0,1-1.1-3.7v-7.4h-1.6v-2h1.6v-4h2.4v4h4.9v2h-4.9v8.1a2.84,2.84,0,0,0,.4,1.2,1.39,1.39,0,0,0,.8.7,5.42,5.42,0,0,0,1.5.2,5,5,0,0,0,1.2-.2,4.65,4.65,0,0,0,.9-.3h.1v2.2Z"/><path class="cls-1" d="M312.9,145h-2.7v-2.5h2.7Zm-.2,16.4h-2.4v-14h2.4Z"/><path class="cls-1" d="M327.8,160.5a12.78,12.78,0,0,1-2.2.9,8.52,8.52,0,0,1-2.3.3,8.63,8.63,0,0,1-2.8-.4,5.18,5.18,0,0,1-2.2-1.4,5.93,5.93,0,0,1-1.4-2.3,10.23,10.23,0,0,1-.5-3.2,7.27,7.27,0,0,1,1.9-5.4,6.7,6.7,0,0,1,5-2,9.86,9.86,0,0,1,2.4.3,10.23,10.23,0,0,1,2.1.8v2.6h-.1a8.46,8.46,0,0,0-2.2-1.3,6.31,6.31,0,0,0-2.2-.5,4.16,4.16,0,0,0-3.2,1.4,5.8,5.8,0,0,0-1.2,4,6.24,6.24,0,0,0,1.1,3.9,4,4,0,0,0,3.2,1.4,7.72,7.72,0,0,0,1.5-.2,5,5,0,0,0,1.3-.5c.3-.2.7-.4,1-.6s.5-.4.7-.5h.1v2.7Z"/><path class="cls-1" d="M335.5,141.9l-3.4,7h-1.7l2.1-7Zm5,0-3.4,7h-1.7l2.1-7Z"/></g></g><g id="Layer_2" data-name="Layer 2"><text class="cls-4" transform="translate(346.6 51.06)">e</text><text class="cls-5" transform="translate(361.15 61.08) scale(0.58)">p</text></g></svg>