<?xml version="1.0" encoding="UTF-8" standalone="no"?>
<!-- Created with Inkscape (http://www.inkscape.org/) -->

<svg
   xmlns:dc="http://purl.org/dc/elements/1.1/"
   xmlns:cc="http://creativecommons.org/ns#"
   xmlns:rdf="http://www.w3.org/1999/02/22-rdf-syntax-ns#"
   xmlns:svg="http://www.w3.org/2000/svg"
   xmlns="http://www.w3.org/2000/svg"
   xmlns:sodipodi="http://sodipodi.sourceforge.net/DTD/sodipodi-0.dtd"
   xmlns:inkscape="http://www.inkscape.org/namespaces/inkscape"
   id="svg3336"
   version="1.1"
   inkscape:version="0.91 r13725"
   xml:space="preserve"
   width="567"
   height="265.79999"
   viewBox="0 0 567 265.79999"
   sodipodi:docname="ELA211Table.svg"><metadata
     id="metadata3342"><rdf:RDF><cc:Work
         rdf:about=""><dc:format>image/svg+xml</dc:format><dc:type
           rdf:resource="http://purl.org/dc/dcmitype/StillImage" /><dc:title></dc:title></cc:Work></rdf:RDF></metadata><defs
     id="defs3340"><clipPath
       clipPathUnits="userSpaceOnUse"
       id="clipPath3350"><path
         d="m 9.0013,141.91 139.73,0 0,56.085 -139.73,0 0,-56.085 z"
         id="path3352"
         inkscape:connector-curvature="0"
         style="clip-rule:evenodd" /></clipPath><clipPath
       clipPathUnits="userSpaceOnUse"
       id="clipPath3358"><path
         d="m 9,141.91 139.73,0 0,56.088 -139.73,0 0,-56.088 z"
         id="path3360"
         inkscape:connector-curvature="0"
         style="clip-rule:evenodd" /></clipPath><clipPath
       clipPathUnits="userSpaceOnUse"
       id="clipPath3366"><path
         d="m 149.21,141.91 77.43,0 0,56.085 -77.43,0 0,-56.085 z"
         id="path3368"
         inkscape:connector-curvature="0"
         style="clip-rule:evenodd" /></clipPath><clipPath
       clipPathUnits="userSpaceOnUse"
       id="clipPath3374"><path
         d="m 149.21,141.91 77.424,0 0,56.088 -77.424,0 0,-56.088 z"
         id="path3376"
         inkscape:connector-curvature="0"
         style="clip-rule:evenodd" /></clipPath><clipPath
       clipPathUnits="userSpaceOnUse"
       id="clipPath3386"><path
         d="m 149.21,141.91 77.424,0 0,56.088 -77.424,0 0,-56.088 z"
         id="path3388"
         inkscape:connector-curvature="0"
         style="clip-rule:evenodd" /></clipPath><clipPath
       clipPathUnits="userSpaceOnUse"
       id="clipPath3394"><path
         d="m 227.12,141.91 77.535,0 0,56.085 -77.535,0 0,-56.085 z"
         id="path3396"
         inkscape:connector-curvature="0"
         style="clip-rule:evenodd" /></clipPath><clipPath
       clipPathUnits="userSpaceOnUse"
       id="clipPath3402"><path
         d="m 227.11,141.91 77.544,0 0,56.088 -77.544,0 0,-56.088 z"
         id="path3404"
         inkscape:connector-curvature="0"
         style="clip-rule:evenodd" /></clipPath><clipPath
       clipPathUnits="userSpaceOnUse"
       id="clipPath3414"><path
         d="m 227.11,141.91 77.544,0 0,56.088 -77.544,0 0,-56.088 z"
         id="path3416"
         inkscape:connector-curvature="0"
         style="clip-rule:evenodd" /></clipPath><clipPath
       clipPathUnits="userSpaceOnUse"
       id="clipPath3426"><path
         d="m 227.11,141.91 77.544,0 0,56.088 -77.544,0 0,-56.088 z"
         id="path3428"
         inkscape:connector-curvature="0"
         style="clip-rule:evenodd" /></clipPath><clipPath
       clipPathUnits="userSpaceOnUse"
       id="clipPath3434"><path
         d="m 305.13,141.91 141.27,0 0,56.085 -141.27,0 0,-56.085 z"
         id="path3436"
         inkscape:connector-curvature="0"
         style="clip-rule:evenodd" /></clipPath><clipPath
       clipPathUnits="userSpaceOnUse"
       id="clipPath3442"><path
         d="m 305.14,141.91 141.26,0 0,56.088 -141.26,0 0,-56.088 z"
         id="path3444"
         inkscape:connector-curvature="0"
         style="clip-rule:evenodd" /></clipPath><clipPath
       clipPathUnits="userSpaceOnUse"
       id="clipPath3454"><path
         d="m 305.14,141.91 141.26,0 0,56.088 -141.26,0 0,-56.088 z"
         id="path3456"
         inkscape:connector-curvature="0"
         style="clip-rule:evenodd" /></clipPath><clipPath
       clipPathUnits="userSpaceOnUse"
       id="clipPath3466"><path
         d="m 305.14,141.91 141.26,0 0,56.088 -141.26,0 0,-56.088 z"
         id="path3468"
         inkscape:connector-curvature="0"
         style="clip-rule:evenodd" /></clipPath><clipPath
       clipPathUnits="userSpaceOnUse"
       id="clipPath3478"><path
         d="m 305.14,141.91 141.26,0 0,56.088 -141.26,0 0,-56.088 z"
         id="path3480"
         inkscape:connector-curvature="0"
         style="clip-rule:evenodd" /></clipPath><clipPath
       clipPathUnits="userSpaceOnUse"
       id="clipPath3490"><path
         d="m 305.14,141.91 141.26,0 0,56.088 -141.26,0 0,-56.088 z"
         id="path3492"
         inkscape:connector-curvature="0"
         style="clip-rule:evenodd" /></clipPath><clipPath
       clipPathUnits="userSpaceOnUse"
       id="clipPath3530"><path
         d="m 9.0013,84.644 139.73,0 0,56.79 -139.73,0 0,-56.79 z"
         id="path3532"
         inkscape:connector-curvature="0"
         style="clip-rule:evenodd" /></clipPath><clipPath
       clipPathUnits="userSpaceOnUse"
       id="clipPath3538"><path
         d="m 9,84.648 139.73,0 0,56.784 -139.73,0 0,-56.784 z"
         id="path3540"
         inkscape:connector-curvature="0"
         style="clip-rule:evenodd" /></clipPath><clipPath
       clipPathUnits="userSpaceOnUse"
       id="clipPath3550"><path
         d="m 9,84.648 139.73,0 0,56.784 -139.73,0 0,-56.784 z"
         id="path3552"
         inkscape:connector-curvature="0"
         style="clip-rule:evenodd" /></clipPath><clipPath
       clipPathUnits="userSpaceOnUse"
       id="clipPath3562"><path
         d="m 9,84.648 139.73,0 0,56.784 -139.73,0 0,-56.784 z"
         id="path3564"
         inkscape:connector-curvature="0"
         style="clip-rule:evenodd" /></clipPath><clipPath
       clipPathUnits="userSpaceOnUse"
       id="clipPath3570"><path
         d="m 149.21,84.644 77.43,0 0,56.79 -77.43,0 0,-56.79 z"
         id="path3572"
         inkscape:connector-curvature="0"
         style="clip-rule:evenodd" /></clipPath><clipPath
       clipPathUnits="userSpaceOnUse"
       id="clipPath3578"><path
         d="m 149.21,84.648 77.424,0 0,56.784 -77.424,0 0,-56.784 z"
         id="path3580"
         inkscape:connector-curvature="0"
         style="clip-rule:evenodd" /></clipPath><clipPath
       clipPathUnits="userSpaceOnUse"
       id="clipPath3590"><path
         d="m 149.21,84.648 77.424,0 0,56.784 -77.424,0 0,-56.784 z"
         id="path3592"
         inkscape:connector-curvature="0"
         style="clip-rule:evenodd" /></clipPath><clipPath
       clipPathUnits="userSpaceOnUse"
       id="clipPath3598"><path
         d="m 227.12,84.644 77.535,0 0,56.79 -77.535,0 0,-56.79 z"
         id="path3600"
         inkscape:connector-curvature="0"
         style="clip-rule:evenodd" /></clipPath><clipPath
       clipPathUnits="userSpaceOnUse"
       id="clipPath3606"><path
         d="m 227.11,84.648 77.544,0 0,56.784 -77.544,0 0,-56.784 z"
         id="path3608"
         inkscape:connector-curvature="0"
         style="clip-rule:evenodd" /></clipPath><clipPath
       clipPathUnits="userSpaceOnUse"
       id="clipPath3618"><path
         d="m 227.11,84.648 77.544,0 0,56.784 -77.544,0 0,-56.784 z"
         id="path3620"
         inkscape:connector-curvature="0"
         style="clip-rule:evenodd" /></clipPath><clipPath
       clipPathUnits="userSpaceOnUse"
       id="clipPath3626"><path
         d="m 305.13,84.644 141.27,0 0,56.79 -141.27,0 0,-56.79 z"
         id="path3628"
         inkscape:connector-curvature="0"
         style="clip-rule:evenodd" /></clipPath><clipPath
       clipPathUnits="userSpaceOnUse"
       id="clipPath3634"><path
         d="m 305.14,84.648 141.26,0 0,56.784 -141.26,0 0,-56.784 z"
         id="path3636"
         inkscape:connector-curvature="0"
         style="clip-rule:evenodd" /></clipPath><clipPath
       clipPathUnits="userSpaceOnUse"
       id="clipPath3646"><path
         d="m 305.14,84.648 141.26,0 0,56.784 -141.26,0 0,-56.784 z"
         id="path3648"
         inkscape:connector-curvature="0"
         style="clip-rule:evenodd" /></clipPath><clipPath
       clipPathUnits="userSpaceOnUse"
       id="clipPath3682"><path
         d="m 9.0013,27.509 139.73,0 0,56.655 -139.73,0 0,-56.655 z"
         id="path3684"
         inkscape:connector-curvature="0"
         style="clip-rule:evenodd" /></clipPath><clipPath
       clipPathUnits="userSpaceOnUse"
       id="clipPath3690"><path
         d="m 9,27.504 139.73,0 0,56.664 -139.73,0 0,-56.664 z"
         id="path3692"
         inkscape:connector-curvature="0"
         style="clip-rule:evenodd" /></clipPath><clipPath
       clipPathUnits="userSpaceOnUse"
       id="clipPath3702"><path
         d="m 9,27.504 139.73,0 0,56.664 -139.73,0 0,-56.664 z"
         id="path3704"
         inkscape:connector-curvature="0"
         style="clip-rule:evenodd" /></clipPath><clipPath
       clipPathUnits="userSpaceOnUse"
       id="clipPath3714"><path
         d="m 9,27.504 139.73,0 0,56.664 -139.73,0 0,-56.664 z"
         id="path3716"
         inkscape:connector-curvature="0"
         style="clip-rule:evenodd" /></clipPath><clipPath
       clipPathUnits="userSpaceOnUse"
       id="clipPath3722"><path
         d="m 9,27.504 139.73,0 0,56.664 -139.73,0 0,-56.664 z"
         id="path3724"
         inkscape:connector-curvature="0"
         style="clip-rule:evenodd" /></clipPath><clipPath
       clipPathUnits="userSpaceOnUse"
       id="clipPath3734"><path
         d="m 9,27.504 139.73,0 0,56.664 -139.73,0 0,-56.664 z"
         id="path3736"
         inkscape:connector-curvature="0"
         style="clip-rule:evenodd" /></clipPath><clipPath
       clipPathUnits="userSpaceOnUse"
       id="clipPath3742"><path
         d="m 149.21,27.509 77.43,0 0,56.655 -77.43,0 0,-56.655 z"
         id="path3744"
         inkscape:connector-curvature="0"
         style="clip-rule:evenodd" /></clipPath><clipPath
       clipPathUnits="userSpaceOnUse"
       id="clipPath3750"><path
         d="m 149.21,27.504 77.424,0 0,56.664 -77.424,0 0,-56.664 z"
         id="path3752"
         inkscape:connector-curvature="0"
         style="clip-rule:evenodd" /></clipPath><clipPath
       clipPathUnits="userSpaceOnUse"
       id="clipPath3762"><path
         d="m 149.21,27.504 77.424,0 0,56.664 -77.424,0 0,-56.664 z"
         id="path3764"
         inkscape:connector-curvature="0"
         style="clip-rule:evenodd" /></clipPath><clipPath
       clipPathUnits="userSpaceOnUse"
       id="clipPath3770"><path
         d="m 227.12,27.509 77.535,0 0,56.655 -77.535,0 0,-56.655 z"
         id="path3772"
         inkscape:connector-curvature="0"
         style="clip-rule:evenodd" /></clipPath><clipPath
       clipPathUnits="userSpaceOnUse"
       id="clipPath3778"><path
         d="m 227.11,27.504 77.544,0 0,56.664 -77.544,0 0,-56.664 z"
         id="path3780"
         inkscape:connector-curvature="0"
         style="clip-rule:evenodd" /></clipPath><clipPath
       clipPathUnits="userSpaceOnUse"
       id="clipPath3790"><path
         d="m 227.11,27.504 77.544,0 0,56.664 -77.544,0 0,-56.664 z"
         id="path3792"
         inkscape:connector-curvature="0"
         style="clip-rule:evenodd" /></clipPath><clipPath
       clipPathUnits="userSpaceOnUse"
       id="clipPath3798"><path
         d="m 305.13,27.509 141.27,0 0,56.655 -141.27,0 0,-56.655 z"
         id="path3800"
         inkscape:connector-curvature="0"
         style="clip-rule:evenodd" /></clipPath><clipPath
       clipPathUnits="userSpaceOnUse"
       id="clipPath3806"><path
         d="m 305.14,27.504 141.26,0 0,56.664 -141.26,0 0,-56.664 z"
         id="path3808"
         inkscape:connector-curvature="0"
         style="clip-rule:evenodd" /></clipPath><clipPath
       clipPathUnits="userSpaceOnUse"
       id="clipPath3818"><path
         d="m 305.14,27.504 141.26,0 0,56.664 -141.26,0 0,-56.664 z"
         id="path3820"
         inkscape:connector-curvature="0"
         style="clip-rule:evenodd" /></clipPath></defs><sodipodi:namedview
     pagecolor="#ffffff"
     bordercolor="#666666"
     borderopacity="1"
     objecttolerance="10"
     gridtolerance="10"
     guidetolerance="10"
     inkscape:pageopacity="0"
     inkscape:pageshadow="2"
     inkscape:window-width="640"
     inkscape:window-height="480"
     id="namedview3338"
     showgrid="false"
     inkscape:zoom="0.58730159"
     inkscape:cx="283.5"
     inkscape:cy="132.89999"
     inkscape:window-x="0"
     inkscape:window-y="0"
     inkscape:window-maximized="0"
     inkscape:current-layer="g3344" /><g
     id="g3344"
     inkscape:groupmode="layer"
     inkscape:label="ELA211Table"
     transform="matrix(1.25,0,0,-1.25,0,265.8)"><g
       id="g3346"><g
         id="g3348"
         clip-path="url(#clipPath3350)"><g
           id="g3354"><g
             id="g3356"
             clip-path="url(#clipPath3358)" /></g></g></g><g
       id="g3362"><g
         id="g3364"
         clip-path="url(#clipPath3366)"><g
           id="g3370"><g
             id="g3372"
             clip-path="url(#clipPath3374)"><text
               transform="matrix(1,0,0,-1,161.21,164.5)"
               style="font-variant:normal;font-weight:normal;font-size:14.03999996px;font-family:Verdana;-inkscape-font-specification:Verdana;writing-mode:lr-tb;fill:#333333;fill-opacity:1;fill-rule:nonzero;stroke:none"
               id="text3378"><tspan
                 x="0 8.5082397 13.45032 19.67004 23.61528 32.502602 37.444679 47.132278"
                 y="0"
                 sodipodi:role="line"
                 id="tspan3380">P (in R)</tspan></text>
</g></g><g
           id="g3382"><g
             id="g3384"
             clip-path="url(#clipPath3386)" /></g></g></g><g
       id="g3390"><g
         id="g3392"
         clip-path="url(#clipPath3394)"><g
           id="g3398"><g
             id="g3400"
             clip-path="url(#clipPath3402)"><text
               transform="matrix(1,0,0,-1,257.47,164.5)"
               style="font-variant:normal;font-weight:normal;font-size:14.03999996px;font-family:Verdana;-inkscape-font-specification:Verdana;writing-mode:lr-tb;fill:#333333;fill-opacity:1;fill-rule:nonzero;stroke:none"
               id="text3406"><tspan
                 x="0"
                 y="0"
                 id="tspan3408">Q</tspan></text>
</g></g><g
           id="g3410"><g
             id="g3412"
             clip-path="url(#clipPath3414)"><text
               transform="matrix(1,0,0,-1,268.51,162.46)"
               style="font-variant:normal;font-weight:normal;font-size:9px;font-family:Verdana;-inkscape-font-specification:Verdana;writing-mode:lr-tb;fill:#333333;fill-opacity:1;fill-rule:nonzero;stroke:none"
               id="text3418"><tspan
                 x="0"
                 y="0"
                 id="tspan3420">d</tspan></text>
</g></g><g
           id="g3422"><g
             id="g3424"
             clip-path="url(#clipPath3426)" /></g></g></g><g
       id="g3430"><g
         id="g3432"
         clip-path="url(#clipPath3434)"><g
           id="g3438"><g
             id="g3440"
             clip-path="url(#clipPath3442)"><text
               transform="matrix(1,0,0,-1,324.1,173.02)"
               style="font-variant:normal;font-weight:normal;font-size:14.03999996px;font-family:Verdana;-inkscape-font-specification:Verdana;writing-mode:lr-tb;fill:#000000;fill-opacity:1;fill-rule:nonzero;stroke:none"
               id="text3446"><tspan
                 x="0 8.6486397 17.170919 22.702681 31.08456 35.0298"
                 y="0"
                 sodipodi:role="line"
                 id="tspan3448">Total </tspan></text>
</g></g><g
           id="g3450"><g
             id="g3452"
             clip-path="url(#clipPath3454)"><text
               transform="matrix(1,0,0,-1,364.06,173.02)"
               style="font-variant:normal;font-weight:normal;font-size:14.03999996px;font-family:Verdana;-inkscape-font-specification:Verdana;writing-mode:lr-tb;fill:#000000;fill-opacity:1;fill-rule:nonzero;stroke:none"
               id="text3458"><tspan
                 x="0 7.2025199 15.94944 24.34536 33.106319 41.740921 45.686161 54.573479 63.3204"
                 y="0"
                 sodipodi:role="line"
                 id="tspan3460">spending </tspan></text>
</g></g><g
           id="g3462"><g
             id="g3464"
             clip-path="url(#clipPath3466)"><text
               transform="matrix(1,0,0,-1,316.54,155.98)"
               style="font-variant:normal;font-weight:normal;font-size:14.03999996px;font-family:Verdana;-inkscape-font-specification:Verdana;writing-mode:lr-tb;fill:#000000;fill-opacity:1;fill-rule:nonzero;stroke:none"
               id="text3470"><tspan
                 x="0 8.7469196 17.142839 23.13792 27.9396 41.600521 50.122799 59.01012 64.541878 73.429199"
                 y="0"
                 sodipodi:role="line"
                 id="tspan3472">per month </tspan></text>
</g></g><g
           id="g3474"><g
             id="g3476"
             clip-path="url(#clipPath3478)"><text
               transform="matrix(1,0,0,-1,394.92,155.98)"
               style="font-variant:normal;font-weight:normal;font-size:14.03999996px;font-family:Verdana;-inkscape-font-specification:Verdana;writing-mode:lr-tb;fill:#000000;fill-opacity:1;fill-rule:nonzero;stroke:none"
               id="text3482"><tspan
                 x="0 6.2337599 10.179 19.06632 24.0084 33.695999"
                 y="0"
                 sodipodi:role="line"
                 id="tspan3484">(in R)</tspan></text>
</g></g><g
           id="g3486"><g
             id="g3488"
             clip-path="url(#clipPath3490)" /></g></g></g><path
       d="m 8.52,198 0.48,0 0,0.48 -0.48,0 0,-0.48 z"
       style="fill:#000000;fill-opacity:1;fill-rule:evenodd;stroke:none"
       id="path3494"
       inkscape:connector-curvature="0" /><path
       d="m 8.52,198 0.48,0 0,0.48 -0.48,0 0,-0.48 z"
       style="fill:#000000;fill-opacity:1;fill-rule:evenodd;stroke:none"
       id="path3496"
       inkscape:connector-curvature="0" /><path
       d="m 9,198 139.73,0 0,0.48 L 9,198.48 9,198 Z"
       style="fill:#000000;fill-opacity:1;fill-rule:evenodd;stroke:none"
       id="path3498"
       inkscape:connector-curvature="0" /><path
       d="m 148.73,198 0.48,0 0,0.48 -0.48,0 0,-0.48 z"
       style="fill:#000000;fill-opacity:1;fill-rule:evenodd;stroke:none"
       id="path3500"
       inkscape:connector-curvature="0" /><path
       d="m 149.21,198 77.424,0 0,0.48 -77.424,0 0,-0.48 z"
       style="fill:#000000;fill-opacity:1;fill-rule:evenodd;stroke:none"
       id="path3502"
       inkscape:connector-curvature="0" /><path
       d="m 226.63,198 0.48001,0 0,0.48 -0.48001,0 0,-0.48 z"
       style="fill:#000000;fill-opacity:1;fill-rule:evenodd;stroke:none"
       id="path3504"
       inkscape:connector-curvature="0" /><path
       d="m 227.11,198 77.544,0 0,0.48 -77.544,0 0,-0.48 z"
       style="fill:#000000;fill-opacity:1;fill-rule:evenodd;stroke:none"
       id="path3506"
       inkscape:connector-curvature="0" /><path
       d="m 304.66,198 0.48001,0 0,0.48 -0.48001,0 0,-0.48 z"
       style="fill:#000000;fill-opacity:1;fill-rule:evenodd;stroke:none"
       id="path3508"
       inkscape:connector-curvature="0" /><path
       d="m 305.14,198 141.26,0 0,0.48 -141.26,0 0,-0.48 z"
       style="fill:#000000;fill-opacity:1;fill-rule:evenodd;stroke:none"
       id="path3510"
       inkscape:connector-curvature="0" /><path
       d="m 446.4,198 0.47998,0 0,0.48 -0.47998,0 0,-0.48 z"
       style="fill:#000000;fill-opacity:1;fill-rule:evenodd;stroke:none"
       id="path3512"
       inkscape:connector-curvature="0" /><path
       d="m 446.4,198 0.47998,0 0,0.48 -0.47998,0 0,-0.48 z"
       style="fill:#000000;fill-opacity:1;fill-rule:evenodd;stroke:none"
       id="path3514"
       inkscape:connector-curvature="0" /><path
       d="m 8.52,141.91 0.48,0 0,56.088 -0.48,0 0,-56.088 z"
       style="fill:#000000;fill-opacity:1;fill-rule:evenodd;stroke:none"
       id="path3516"
       inkscape:connector-curvature="0" /><path
       d="m 148.73,141.91 0.48,0 0,56.088 -0.48,0 0,-56.088 z"
       style="fill:#000000;fill-opacity:1;fill-rule:evenodd;stroke:none"
       id="path3518"
       inkscape:connector-curvature="0" /><path
       d="m 226.63,141.91 0.48001,0 0,56.088 -0.48001,0 0,-56.088 z"
       style="fill:#000000;fill-opacity:1;fill-rule:evenodd;stroke:none"
       id="path3520"
       inkscape:connector-curvature="0" /><path
       d="m 304.66,141.91 0.48001,0 0,56.088 -0.48001,0 0,-56.088 z"
       style="fill:#000000;fill-opacity:1;fill-rule:evenodd;stroke:none"
       id="path3522"
       inkscape:connector-curvature="0" /><path
       d="m 446.4,141.91 0.47998,0 0,56.088 -0.47998,0 0,-56.088 z"
       style="fill:#000000;fill-opacity:1;fill-rule:evenodd;stroke:none"
       id="path3524"
       inkscape:connector-curvature="0" /><g
       id="g3526"><g
         id="g3528"
         clip-path="url(#clipPath3530)"><g
           id="g3534"><g
             id="g3536"
             clip-path="url(#clipPath3538)"><text
               transform="matrix(1,0,0,-1,16.8,116.11)"
               style="font-variant:normal;font-weight:normal;font-size:14.03999996px;font-family:Verdana;-inkscape-font-specification:Verdana;writing-mode:lr-tb;fill:#000000;fill-opacity:1;fill-rule:nonzero;stroke:none"
               id="text3542"><tspan
                 x="0 11.8638 20.38608 29.273399 34.805161 43.53804 47.48328 55.79496 60.680882 67.8834 76.630318 85.026237 93.787201 102.4218 106.36704 115.128 123.87492"
                 y="0"
                 sodipodi:role="line"
                 id="tspan3544">Monthly spending </tspan></text>
</g></g><g
           id="g3546"><g
             id="g3548"
             clip-path="url(#clipPath3550)"><text
               transform="matrix(1,0,0,-1,17.64,99.048)"
               style="font-variant:normal;font-weight:normal;font-size:14.03999996px;font-family:Verdana;-inkscape-font-specification:Verdana;writing-mode:lr-tb;fill:#000000;fill-opacity:1;fill-rule:nonzero;stroke:none"
               id="text3554"><tspan
                 x="0 8.4380398 13.91364 18.855721 28.55736 37.430641 46.303921 55.1772 60.119282 68.866203 77.234039 83.229118 88.171204 101.83212 110.24208 118.52568"
                 y="0"
                 sodipodi:role="line"
                 id="tspan3556">at R100 per meal</tspan></text>
</g></g><g
           id="g3558"><g
             id="g3560"
             clip-path="url(#clipPath3562)" /></g></g></g><g
       id="g3566"><g
         id="g3568"
         clip-path="url(#clipPath3570)"><g
           id="g3574"><g
             id="g3576"
             clip-path="url(#clipPath3578)"><text
               transform="matrix(1,0,0,-1,183.77,107.59)"
               style="font-variant:normal;font-weight:normal;font-size:14.03999996px;font-family:Verdana;-inkscape-font-specification:Verdana;writing-mode:lr-tb;fill:#000000;fill-opacity:1;fill-rule:nonzero;stroke:none"
               id="text3582"><tspan
                 x="0"
                 y="0"
                 id="tspan3584">a</tspan></text>
</g></g><g
           id="g3586"><g
             id="g3588"
             clip-path="url(#clipPath3590)" /></g></g></g><g
       id="g3594"><g
         id="g3596"
         clip-path="url(#clipPath3598)"><g
           id="g3602"><g
             id="g3604"
             clip-path="url(#clipPath3606)"><text
               transform="matrix(1,0,0,-1,261.43,107.59)"
               style="font-variant:normal;font-weight:normal;font-size:14.03999996px;font-family:Verdana;-inkscape-font-specification:Verdana;writing-mode:lr-tb;fill:#000000;fill-opacity:1;fill-rule:nonzero;stroke:none"
               id="text3610"><tspan
                 x="0"
                 y="0"
                 id="tspan3612">b</tspan></text>
</g></g><g
           id="g3614"><g
             id="g3616"
             clip-path="url(#clipPath3618)" /></g></g></g><g
       id="g3622"><g
         id="g3624"
         clip-path="url(#clipPath3626)"><g
           id="g3630"><g
             id="g3632"
             clip-path="url(#clipPath3634)"><text
               transform="matrix(1,0,0,-1,372.1,107.59)"
               style="font-variant:normal;font-weight:normal;font-size:14.03999996px;font-family:Verdana;-inkscape-font-specification:Verdana;writing-mode:lr-tb;fill:#000000;fill-opacity:1;fill-rule:nonzero;stroke:none"
               id="text3638"><tspan
                 x="0"
                 y="0"
                 id="tspan3640">c</tspan></text>
</g></g><g
           id="g3642"><g
             id="g3644"
             clip-path="url(#clipPath3646)" /></g></g></g><path
       d="m 8.52,141.43 0.48,0 0,0.48 -0.48,0 0,-0.48 z"
       style="fill:#000000;fill-opacity:1;fill-rule:evenodd;stroke:none"
       id="path3650"
       inkscape:connector-curvature="0" /><path
       d="m 9,141.43 139.73,0 0,0.48 -139.73,0 0,-0.48 z"
       style="fill:#000000;fill-opacity:1;fill-rule:evenodd;stroke:none"
       id="path3652"
       inkscape:connector-curvature="0" /><path
       d="m 148.73,141.43 0.48,0 0,0.48 -0.48,0 0,-0.48 z"
       style="fill:#000000;fill-opacity:1;fill-rule:evenodd;stroke:none"
       id="path3654"
       inkscape:connector-curvature="0" /><path
       d="m 149.21,141.43 77.424,0 0,0.48 -77.424,0 0,-0.48 z"
       style="fill:#000000;fill-opacity:1;fill-rule:evenodd;stroke:none"
       id="path3656"
       inkscape:connector-curvature="0" /><path
       d="m 226.63,141.43 0.48001,0 0,0.48 -0.48001,0 0,-0.48 z"
       style="fill:#000000;fill-opacity:1;fill-rule:evenodd;stroke:none"
       id="path3658"
       inkscape:connector-curvature="0" /><path
       d="m 227.11,141.43 77.544,0 0,0.48 -77.544,0 0,-0.48 z"
       style="fill:#000000;fill-opacity:1;fill-rule:evenodd;stroke:none"
       id="path3660"
       inkscape:connector-curvature="0" /><path
       d="m 304.66,141.43 0.48001,0 0,0.48 -0.48001,0 0,-0.48 z"
       style="fill:#000000;fill-opacity:1;fill-rule:evenodd;stroke:none"
       id="path3662"
       inkscape:connector-curvature="0" /><path
       d="m 305.14,141.43 141.26,0 0,0.48 -141.26,0 0,-0.48 z"
       style="fill:#000000;fill-opacity:1;fill-rule:evenodd;stroke:none"
       id="path3664"
       inkscape:connector-curvature="0" /><path
       d="m 446.4,141.43 0.47998,0 0,0.48 -0.47998,0 0,-0.48 z"
       style="fill:#000000;fill-opacity:1;fill-rule:evenodd;stroke:none"
       id="path3666"
       inkscape:connector-curvature="0" /><path
       d="m 8.52,84.648 0.48,0 0,56.784 -0.48,0 0,-56.784 z"
       style="fill:#000000;fill-opacity:1;fill-rule:evenodd;stroke:none"
       id="path3668"
       inkscape:connector-curvature="0" /><path
       d="m 148.73,84.648 0.48,0 0,56.784 -0.48,0 0,-56.784 z"
       style="fill:#000000;fill-opacity:1;fill-rule:evenodd;stroke:none"
       id="path3670"
       inkscape:connector-curvature="0" /><path
       d="m 226.63,84.648 0.48001,0 0,56.784 -0.48001,0 0,-56.784 z"
       style="fill:#000000;fill-opacity:1;fill-rule:evenodd;stroke:none"
       id="path3672"
       inkscape:connector-curvature="0" /><path
       d="m 304.66,84.648 0.48001,0 0,56.784 -0.48001,0 0,-56.784 z"
       style="fill:#000000;fill-opacity:1;fill-rule:evenodd;stroke:none"
       id="path3674"
       inkscape:connector-curvature="0" /><path
       d="m 446.4,84.648 0.47998,0 0,56.784 -0.47998,0 0,-56.784 z"
       style="fill:#000000;fill-opacity:1;fill-rule:evenodd;stroke:none"
       id="path3676"
       inkscape:connector-curvature="0" /><g
       id="g3678"><g
         id="g3680"
         clip-path="url(#clipPath3682)"><g
           id="g3686"><g
             id="g3688"
             clip-path="url(#clipPath3690)"><text
               transform="matrix(1,0,0,-1,16.8,58.944)"
               style="font-variant:normal;font-weight:normal;font-size:14.03999996px;font-family:Verdana;-inkscape-font-specification:Verdana;writing-mode:lr-tb;fill:#000000;fill-opacity:1;fill-rule:nonzero;stroke:none"
               id="text3694"><tspan
                 x="0 11.8638 20.38608 29.273399 34.805161 43.53804 47.48328 55.79496 60.680882 67.8834 76.630318 85.026237 93.787201 102.4218 106.36704 115.128 123.87492"
                 y="0"
                 sodipodi:role="line"
                 id="tspan3696">Monthly spending </tspan></text>
</g></g><g
           id="g3698"><g
             id="g3700"
             clip-path="url(#clipPath3702)"><text
               transform="matrix(1,0,0,-1,22.08,41.904)"
               style="font-variant:normal;font-weight:normal;font-size:14.03999996px;font-family:Verdana;-inkscape-font-specification:Verdana;writing-mode:lr-tb;fill:#000000;fill-opacity:1;fill-rule:nonzero;stroke:none"
               id="text3706"><tspan
                 x="0 8.4380398 13.91364 18.855721 28.55736 37.430641"
                 y="0"
                 sodipodi:role="line"
                 id="tspan3708">at R90</tspan></text>
</g></g><g
           id="g3710"><g
             id="g3712"
             clip-path="url(#clipPath3714)" /></g><g
           id="g3718"><g
             id="g3720"
             clip-path="url(#clipPath3722)"><text
               transform="matrix(1,0,0,-1,73.344,41.904)"
               style="font-variant:normal;font-weight:normal;font-size:14.03999996px;font-family:Verdana;-inkscape-font-specification:Verdana;writing-mode:lr-tb;fill:#000000;fill-opacity:1;fill-rule:nonzero;stroke:none"
               id="text3726"><tspan
                 x="0 8.7469196 17.142839 23.13792 28.08 41.740921 50.108761 58.420441"
                 y="0"
                 sodipodi:role="line"
                 id="tspan3728">per meal</tspan></text>
</g></g><g
           id="g3730"><g
             id="g3732"
             clip-path="url(#clipPath3734)" /></g></g></g><g
       id="g3738"><g
         id="g3740"
         clip-path="url(#clipPath3742)"><g
           id="g3746"><g
             id="g3748"
             clip-path="url(#clipPath3750)"><text
               transform="matrix(1,0,0,-1,183.53,50.424)"
               style="font-variant:normal;font-weight:normal;font-size:14.03999996px;font-family:Verdana;-inkscape-font-specification:Verdana;writing-mode:lr-tb;fill:#000000;fill-opacity:1;fill-rule:nonzero;stroke:none"
               id="text3754"><tspan
                 x="0"
                 y="0"
                 id="tspan3756">d</tspan></text>
</g></g><g
           id="g3758"><g
             id="g3760"
             clip-path="url(#clipPath3762)" /></g></g></g><g
       id="g3766"><g
         id="g3768"
         clip-path="url(#clipPath3770)"><g
           id="g3774"><g
             id="g3776"
             clip-path="url(#clipPath3778)"><text
               transform="matrix(1,0,0,-1,261.67,50.424)"
               style="font-variant:normal;font-weight:normal;font-size:14.03999996px;font-family:Verdana;-inkscape-font-specification:Verdana;writing-mode:lr-tb;fill:#000000;fill-opacity:1;fill-rule:nonzero;stroke:none"
               id="text3782"><tspan
                 x="0"
                 y="0"
                 id="tspan3784">e</tspan></text>
</g></g><g
           id="g3786"><g
             id="g3788"
             clip-path="url(#clipPath3790)" /></g></g></g><g
       id="g3794"><g
         id="g3796"
         clip-path="url(#clipPath3798)"><g
           id="g3802"><g
             id="g3804"
             clip-path="url(#clipPath3806)"><text
               transform="matrix(1,0,0,-1,373.3,50.424)"
               style="font-variant:normal;font-weight:normal;font-size:14.03999996px;font-family:Verdana;-inkscape-font-specification:Verdana;writing-mode:lr-tb;fill:#000000;fill-opacity:1;fill-rule:nonzero;stroke:none"
               id="text3810"><tspan
                 x="0"
                 y="0"
                 id="tspan3812">f</tspan></text>
</g></g><g
           id="g3814"><g
             id="g3816"
             clip-path="url(#clipPath3818)" /></g></g></g><path
       d="m 8.52,84.168 0.48,0 0,0.48 -0.48,0 0,-0.48 z"
       style="fill:#000000;fill-opacity:1;fill-rule:evenodd;stroke:none"
       id="path3822"
       inkscape:connector-curvature="0" /><path
       d="m 9,84.168 139.73,0 0,0.48 -139.73,0 0,-0.48 z"
       style="fill:#000000;fill-opacity:1;fill-rule:evenodd;stroke:none"
       id="path3824"
       inkscape:connector-curvature="0" /><path
       d="m 148.73,84.168 0.48,0 0,0.48 -0.48,0 0,-0.48 z"
       style="fill:#000000;fill-opacity:1;fill-rule:evenodd;stroke:none"
       id="path3826"
       inkscape:connector-curvature="0" /><path
       d="m 149.21,84.168 77.424,0 0,0.48 -77.424,0 0,-0.48 z"
       style="fill:#000000;fill-opacity:1;fill-rule:evenodd;stroke:none"
       id="path3828"
       inkscape:connector-curvature="0" /><path
       d="m 226.63,84.168 0.48001,0 0,0.48 -0.48001,0 0,-0.48 z"
       style="fill:#000000;fill-opacity:1;fill-rule:evenodd;stroke:none"
       id="path3830"
       inkscape:connector-curvature="0" /><path
       d="m 227.11,84.168 77.544,0 0,0.48 -77.544,0 0,-0.48 z"
       style="fill:#000000;fill-opacity:1;fill-rule:evenodd;stroke:none"
       id="path3832"
       inkscape:connector-curvature="0" /><path
       d="m 304.66,84.168 0.48001,0 0,0.48 -0.48001,0 0,-0.48 z"
       style="fill:#000000;fill-opacity:1;fill-rule:evenodd;stroke:none"
       id="path3834"
       inkscape:connector-curvature="0" /><path
       d="m 305.14,84.168 141.26,0 0,0.48 -141.26,0 0,-0.48 z"
       style="fill:#000000;fill-opacity:1;fill-rule:evenodd;stroke:none"
       id="path3836"
       inkscape:connector-curvature="0" /><path
       d="m 446.4,84.168 0.47998,0 0,0.48 -0.47998,0 0,-0.48 z"
       style="fill:#000000;fill-opacity:1;fill-rule:evenodd;stroke:none"
       id="path3838"
       inkscape:connector-curvature="0" /><path
       d="m 8.52,27.384 0.48,0 0,56.784 -0.48,0 0,-56.784 z"
       style="fill:#000000;fill-opacity:1;fill-rule:evenodd;stroke:none"
       id="path3840"
       inkscape:connector-curvature="0" /><path
       d="m 8.52,26.904 0.48,0 0,0.48 -0.48,0 0,-0.48 z"
       style="fill:#000000;fill-opacity:1;fill-rule:evenodd;stroke:none"
       id="path3842"
       inkscape:connector-curvature="0" /><path
       d="m 8.52,26.904 0.48,0 0,0.48 -0.48,0 0,-0.48 z"
       style="fill:#000000;fill-opacity:1;fill-rule:evenodd;stroke:none"
       id="path3844"
       inkscape:connector-curvature="0" /><path
       d="m 9,26.904 139.73,0 0,0.48 -139.73,0 0,-0.48 z"
       style="fill:#000000;fill-opacity:1;fill-rule:evenodd;stroke:none"
       id="path3846"
       inkscape:connector-curvature="0" /><path
       d="m 148.73,27.384 0.48,0 0,56.784 -0.48,0 0,-56.784 z"
       style="fill:#000000;fill-opacity:1;fill-rule:evenodd;stroke:none"
       id="path3848"
       inkscape:connector-curvature="0" /><path
       d="m 148.73,26.904 0.48,0 0,0.48 -0.48,0 0,-0.48 z"
       style="fill:#000000;fill-opacity:1;fill-rule:evenodd;stroke:none"
       id="path3850"
       inkscape:connector-curvature="0" /><path
       d="m 149.21,26.904 77.424,0 0,0.48 -77.424,0 0,-0.48 z"
       style="fill:#000000;fill-opacity:1;fill-rule:evenodd;stroke:none"
       id="path3852"
       inkscape:connector-curvature="0" /><path
       d="m 226.63,27.384 0.48001,0 0,56.784 -0.48001,0 0,-56.784 z"
       style="fill:#000000;fill-opacity:1;fill-rule:evenodd;stroke:none"
       id="path3854"
       inkscape:connector-curvature="0" /><path
       d="m 226.63,26.904 0.48001,0 0,0.48 -0.48001,0 0,-0.48 z"
       style="fill:#000000;fill-opacity:1;fill-rule:evenodd;stroke:none"
       id="path3856"
       inkscape:connector-curvature="0" /><path
       d="m 227.11,26.904 77.544,0 0,0.48 -77.544,0 0,-0.48 z"
       style="fill:#000000;fill-opacity:1;fill-rule:evenodd;stroke:none"
       id="path3858"
       inkscape:connector-curvature="0" /><path
       d="m 304.66,27.384 0.48001,0 0,56.784 -0.48001,0 0,-56.784 z"
       style="fill:#000000;fill-opacity:1;fill-rule:evenodd;stroke:none"
       id="path3860"
       inkscape:connector-curvature="0" /><path
       d="m 304.66,26.904 0.48001,0 0,0.48 -0.48001,0 0,-0.48 z"
       style="fill:#000000;fill-opacity:1;fill-rule:evenodd;stroke:none"
       id="path3862"
       inkscape:connector-curvature="0" /><path
       d="m 305.14,26.904 141.26,0 0,0.48 -141.26,0 0,-0.48 z"
       style="fill:#000000;fill-opacity:1;fill-rule:evenodd;stroke:none"
       id="path3864"
       inkscape:connector-curvature="0" /><path
       d="m 446.4,27.384 0.47998,0 0,56.784 -0.47998,0 0,-56.784 z"
       style="fill:#000000;fill-opacity:1;fill-rule:evenodd;stroke:none"
       id="path3866"
       inkscape:connector-curvature="0" /><path
       d="m 446.4,26.904 0.47998,0 0,0.48 -0.47998,0 0,-0.48 z"
       style="fill:#000000;fill-opacity:1;fill-rule:evenodd;stroke:none"
       id="path3868"
       inkscape:connector-curvature="0" /><path
       d="m 446.4,26.904 0.47998,0 0,0.48 -0.47998,0 0,-0.48 z"
       style="fill:#000000;fill-opacity:1;fill-rule:evenodd;stroke:none"
       id="path3870"
       inkscape:connector-curvature="0" /></g></svg>