<svg xmlns="http://www.w3.org/2000/svg" viewBox="0 0 421.5 85.5"><defs><style>.cls-1,.cls-4,.cls-5{fill:#4d4e4e;}.cls-2,.cls-3{fill:none;stroke:#4d4e4e;stroke-miterlimit:10;}.cls-2{stroke-width:2.27px;}.cls-3{stroke-width:1.74px;}.cls-4{font-size:43.82px;font-family:Times-Italic, Times;font-style:italic;}.cls-5{font-size:28.86px;font-family:Verdana, Verdana;}</style></defs><title>[UECA-69][4]ELA34</title><g id="Layer_1" data-name="Layer 1"><g id="Layer_1_copy" data-name="Layer 1 copy"><path class="cls-1" d="M10.6,51.5H3.2V49.6H5.7V34.7H3.2V32.8h7.4v1.9H8.1V49.6h2.5Z"/><path class="cls-1" d="M22.2,34.2h0a4.25,4.25,0,0,0-1.1-.2,4.48,4.48,0,0,0-1.1-.1,2.78,2.78,0,0,0-2.2.7,3.14,3.14,0,0,0-.7,2.4v.5h4.3v2H17.2v12H14.8V39.4H13.2v-2h1.6v-.5A5.25,5.25,0,0,1,16,33.1a4.55,4.55,0,0,1,3.6-1.3,6.15,6.15,0,0,1,1.4.1,5,5,0,0,1,1.2.2Z"/><path class="cls-1" d="M288,62.2h-1.7V61.1a6.53,6.53,0,0,1-1.5,1,4.78,4.78,0,0,1-1.8.4,3.56,3.56,0,0,1-2.9-1.4,6.24,6.24,0,0,1-1.1-3.9,5.56,5.56,0,0,1,.4-2.3,4,4,0,0,1,1-1.7,4.18,4.18,0,0,1,1.5-1.1,5.26,5.26,0,0,1,1.7-.4,5.9,5.9,0,0,1,1.4.2,6.94,6.94,0,0,1,1.3.5V48H288Zm-1.7-2.5V53.8a4.15,4.15,0,0,0-1.2-.4,4.87,4.87,0,0,0-1.2-.1,2.76,2.76,0,0,0-2.3,1,4.18,4.18,0,0,0-.8,2.9,5.55,5.55,0,0,0,.6,2.8,2.26,2.26,0,0,0,2,.9,4,4,0,0,0,1.5-.3C285.4,60.3,285.8,60,286.3,59.7Z"/><path class="cls-1" d="M344.8,47.9l-3.5,8.2h-1.8l2.2-8.2Z"/><path class="cls-1" d="M419.8,51.5H409.7V49.6h3.9V37h-3.9V35.3a10.28,10.28,0,0,0,1.7-.1,3.92,3.92,0,0,0,1.4-.4,2.36,2.36,0,0,0,.9-.8,2.5,2.5,0,0,0,.4-1.3h2V49.6h3.8Z"/><path class="cls-1" d="M379.3,48.3l11.4-5-11.4-5V36l14.5,6.5v1.6l-14.5,6.4Z"/><rect class="cls-2" x="188.1" y="2" width="125.6" height="81.5"/><rect class="cls-3" x="37.8" y="13.2" width="103.3" height="57.7"/><path class="cls-1" d="M223.3,38a6.2,6.2,0,0,1-1.2,4.2,4.29,4.29,0,0,1-3.4,1.4,4.51,4.51,0,0,1-3.5-1.4A6.2,6.2,0,0,1,214,38a6.2,6.2,0,0,1,1.2-4.2,4.29,4.29,0,0,1,3.4-1.4,4.15,4.15,0,0,1,3.4,1.4A6.76,6.76,0,0,1,223.3,38ZM221,38a5.62,5.62,0,0,0-.6-3,2,2,0,0,0-1.8-.9,1.81,1.81,0,0,0-1.8.9,6.79,6.79,0,0,0-.6,3,5.39,5.39,0,0,0,.6,3,2.43,2.43,0,0,0,3.43.17l.17-.17A5.62,5.62,0,0,0,221,38Zm10.9-5.2-9.8,18.7H220l9.8-18.7ZM238,46.3a6.2,6.2,0,0,1-1.2,4.2,4.29,4.29,0,0,1-3.4,1.4,4.15,4.15,0,0,1-3.4-1.4,6.2,6.2,0,0,1-1.2-4.2,6.2,6.2,0,0,1,1.2-4.2,4.29,4.29,0,0,1,3.4-1.4,4.51,4.51,0,0,1,3.5,1.4C237.7,43,238,44.4,238,46.3Zm-2.3,0a5.62,5.62,0,0,0-.6-3,2,2,0,0,0-1.8-.9,1.81,1.81,0,0,0-1.8.9,6.79,6.79,0,0,0-.6,3,5.16,5.16,0,0,0,.6,3,2,2,0,0,0,1.8.8,2.2,2.2,0,0,0,1.8-.8C235.6,48.8,235.7,47.8,235.7,46.3Z"/><path class="cls-1" d="M248.3,33.8l7.3,17.7H240.1Zm-1,4.4-5.6,12.1h10.6Z"/><path class="cls-1" d="M274.8,56.1l-1.5.3a7.57,7.57,0,0,1-1.5.1,5,5,0,0,1-3.5-1.2,4.29,4.29,0,0,1-1.4-3.4c-.2,0-.4.1-.6.1h-.5a8.57,8.57,0,0,1-3.6-.7,6.62,6.62,0,0,1-2.7-1.9,8.34,8.34,0,0,1-1.7-3.1,14.31,14.31,0,0,1,0-8.2,7.93,7.93,0,0,1,1.8-3.1,7.36,7.36,0,0,1,2.7-1.9,10,10,0,0,1,3.6-.7,8.57,8.57,0,0,1,3.6.7,7.72,7.72,0,0,1,2.7,1.9,9.38,9.38,0,0,1,1.8,3.1,13.09,13.09,0,0,1,.6,4.1,11.58,11.58,0,0,1-1.4,5.8,7.18,7.18,0,0,1-3.8,3.3,3.39,3.39,0,0,0,.7,2.2,2.89,2.89,0,0,0,2.3.8,6,6,0,0,0,1.2-.2,4.05,4.05,0,0,0,1-.3h.3v2.3Zm-2.9-14a8.5,8.5,0,0,0-1.6-5.6,6.06,6.06,0,0,0-9,0,8.5,8.5,0,0,0-1.6,5.6,8.32,8.32,0,0,0,1.7,5.6,5.62,5.62,0,0,0,4.5,2,5.42,5.42,0,0,0,4.4-2A8.69,8.69,0,0,0,271.9,42.1Z"/><path class="cls-1" d="M171.7,50.5,157.2,44V42.5L171.7,36v2.3l-11.4,5,11.4,5Z"/><path class="cls-1" d="M70.7,38a6.2,6.2,0,0,1-1.2,4.2,4.29,4.29,0,0,1-3.4,1.4,4.51,4.51,0,0,1-3.5-1.4A6.2,6.2,0,0,1,61.4,38a6.2,6.2,0,0,1,1.2-4.2A4.29,4.29,0,0,1,66,32.4a4.15,4.15,0,0,1,3.4,1.4A5.72,5.72,0,0,1,70.7,38Zm-2.2,0a5.62,5.62,0,0,0-.6-3,2,2,0,0,0-1.8-.9,1.81,1.81,0,0,0-1.8.9,5.62,5.62,0,0,0-.6,3,5.17,5.17,0,0,0,.6,3,2,2,0,0,0,1.8.8,2.2,2.2,0,0,0,1.8-.8A5.62,5.62,0,0,0,68.5,38Zm10.9-5.2L69.6,51.5H67.5l9.8-18.7Zm6,13.5a6.2,6.2,0,0,1-1.2,4.2,4.29,4.29,0,0,1-3.4,1.4,4.15,4.15,0,0,1-3.4-1.4,6.2,6.2,0,0,1-1.2-4.2,6.2,6.2,0,0,1,1.2-4.2,4.29,4.29,0,0,1,3.4-1.4,4.51,4.51,0,0,1,3.5,1.4A6.81,6.81,0,0,1,85.4,46.3Zm-2.2,0a5.62,5.62,0,0,0-.6-3,2,2,0,0,0-1.8-.9,1.81,1.81,0,0,0-1.8.9,5.62,5.62,0,0,0-.6,3,5.17,5.17,0,0,0,.6,3,2,2,0,0,0,1.8.8,2.2,2.2,0,0,0,1.8-.8A5.17,5.17,0,0,0,83.2,46.3Z"/><path class="cls-1" d="M95.7,33.8,103,51.5H87.5Zm-.9,4.4L89.2,50.3H99.8Z"/><path class="cls-1" d="M117.8,38.4a5.87,5.87,0,0,1-.4,2.3,5.67,5.67,0,0,1-1.2,1.8,7.63,7.63,0,0,1-2.3,1.5,10.42,10.42,0,0,1-3.3.5h-2.5v7h-2.5V32.8h5.1a12.31,12.31,0,0,1,2.9.3,6.67,6.67,0,0,1,2.1.9,5.81,5.81,0,0,1,1.7,1.8A6.16,6.16,0,0,1,117.8,38.4Zm-2.5.1a4.67,4.67,0,0,0-.3-1.7,2.94,2.94,0,0,0-1-1.2,5.91,5.91,0,0,0-1.4-.6,10.31,10.31,0,0,0-2-.2h-2.5v7.5h2.1a9,9,0,0,0,2.5-.3,3.77,3.77,0,0,0,1.5-.9,2.58,2.58,0,0,0,.8-1.3A2.5,2.5,0,0,0,115.3,38.5Z"/></g></g><g id="Layer_2" data-name="Layer 2"><text class="cls-4" transform="translate(346.6 51.06)">e</text><text class="cls-5" transform="translate(361.15 61.08) scale(0.58)">p</text></g></svg>